<svg width="67" height="80" viewBox="0 0 67 80" fill="none" xmlns="http://www.w3.org/2000/svg">
<path d="M32 5.28004H35.84" stroke="#2196F3" stroke-width="1.2"/>
<path d="M38.72 5.28004H42.56" stroke="#2196F3" stroke-width="1.2"/>
<path d="M37.2798 0V3.84" stroke="#2196F3" stroke-width="1.2"/>
<path d="M37.2798 6.71997V10.56" stroke="#2196F3" stroke-width="1.2"/>
<path d="M1 24.4667L3.71536 21.7518" stroke="#2196F3" stroke-width="1.2"/>
<path d="M5.75146 19.715L8.46682 17.0001" stroke="#2196F3" stroke-width="1.2"/>
<path d="M1 17L3.71536 19.7149" stroke="#2196F3" stroke-width="1.2"/>
<path d="M5.75146 21.7517L8.46682 24.4666" stroke="#2196F3" stroke-width="1.2"/>
<path d="M65.75 33.75H50.6387C53.1962 32.295 54.5 30.215 54.5 27.5C54.5 20.7775 50.22 20 47 20C42.8737 20 38.935 24.7363 37 29.5025C35.065 24.7363 31.1275 20 27 20C23.78 20 19.5 20.7775 19.5 27.5C19.5 30.215 20.8037 32.295 23.3612 33.75H8.25C7.56 33.75 7 34.3087 7 35V50C7 50.6912 7.56 51.25 8.25 51.25H10.75H13.25H30.75V36.25H33.25V51.25H40.75V36.25H43.25V51.25H60.75H63.25H65.75C66.44 51.25 67 50.6912 67 50V35C67 34.3087 66.44 33.75 65.75 33.75ZM22 27.5C22 23.3175 23.8337 22.5 27 22.5C30.64 22.5 34.9563 28.9463 35.6525 33.735C29.1325 33.5925 22 32.33 22 27.5ZM38.3475 33.735C39.0437 28.9463 43.36 22.5 47 22.5C50.1662 22.5 52 23.3175 52 27.5C52 32.33 44.8675 33.5925 38.3475 33.735ZM43.25 53.75H60.75V78.75C60.75 79.4412 60.19 80 59.5 80H14.5C13.81 80 13.25 79.4412 13.25 78.75V53.75H30.75V77.5H33.25V53.75H40.75V77.5H43.25V53.75Z" fill="#2196F3"/>
</svg>
