<svg width="70" height="75" viewBox="0 0 70 75" fill="none" xmlns="http://www.w3.org/2000/svg">
<g id="like">
<path id="Fill 4" fill-rule="evenodd" clip-rule="evenodd" d="M14.4106 34.0811L1.57056 37.5217C1.10784 37.6456 0.832804 38.1213 0.957124 38.584L10.4299 73.9365C10.5538 74.3997 11.0294 74.6742 11.4922 74.5504L24.3322 71.1097C24.7954 70.9859 25.0694 70.5102 24.9451 70.0475L15.4728 34.6941C15.349 34.2318 14.8733 33.9573 14.4106 34.0811Z" fill="#2196F3"/>
<path id="Fill 6" fill-rule="evenodd" clip-rule="evenodd" d="M68.9548 35.6398C68.3668 33.4462 66.7928 31.7801 64.8383 30.9895C65.9178 29.4247 66.3316 27.4145 65.8007 25.4335C64.8407 21.8498 61.1562 19.7225 57.572 20.683L54.3796 21.5383C53.7613 21.6626 53.1244 21.8114 52.4677 21.9876C43.9943 24.258 41.0044 25.0807 40.8272 25.1066C39.08 25.2084 37.4428 24.0756 36.9719 22.3188C36.9244 22.1407 36.5759 20.3974 36.5447 20.3494C36.0186 17.9335 35.2775 15.5407 34.2186 13.5478C32.2506 9.84744 30.2792 7.44744 28.6132 6.19416C28.5968 6.198 28.5781 6.19512 28.556 6.18024C27.8096 5.67288 26.8554 5.48136 25.9151 5.73288C24.4832 6.11688 23.54 7.40952 23.5343 8.82456C23.637 10.1196 23.8808 11.5433 23.9764 12.5801C25.3098 26.9191 19.7687 31.8324 18.118 35.275L18.0676 36.0737L26.565 67.7878C40.0127 65.7996 42.85 70.1402 58.8354 65.8102L64.2316 64.3644L64.2311 64.362C67.6156 63.4548 69.6239 59.9762 68.7167 56.5918C68.4229 55.4945 67.8551 54.545 67.1111 53.7895C69.1352 52.1302 70.1183 49.3841 69.3968 46.6913C68.9567 45.0478 67.9549 43.7047 66.6546 42.81C68.6941 41.1305 69.6834 38.358 68.9548 35.6398Z" fill="#2196F3"/>
<path id="Stroke 8" d="M43.228 5.71668H47.068" stroke="#2196F3" stroke-width="1.2"/>
<path id="Stroke 10" d="M49.9479 5.71668H53.7879" stroke="#2196F3" stroke-width="1.2"/>
<path id="Stroke 12" d="M48.5079 0.436646V4.27665" stroke="#2196F3" stroke-width="1.2"/>
<path id="Stroke 14" d="M48.5079 7.15662V10.9966" stroke="#2196F3" stroke-width="1.2"/>
<path id="Stroke 16" d="M1.92657 24.3916L4.64193 21.6768" stroke="#2196F3" stroke-width="1.2"/>
<path id="Stroke 18" d="M6.67804 19.6399L9.3934 16.925" stroke="#2196F3" stroke-width="1.2"/>
<path id="Stroke 20" d="M1.92657 16.9249L4.64193 19.6398" stroke="#2196F3" stroke-width="1.2"/>
<path id="Stroke 22" d="M6.67804 21.6766L9.3934 24.3915" stroke="#2196F3" stroke-width="1.2"/>
</g>
</svg>
