<svg width="87" height="33" viewBox="0 0 87 33" fill="none" xmlns="http://www.w3.org/2000/svg">
<path fill-rule="evenodd" clip-rule="evenodd" d="M43.6427 18.2771C46.0247 18.2546 48.3835 18.0578 50.721 17.609C53.0162 17.168 55.2314 16.4906 57.3104 15.4048C58.5012 14.7826 59.5988 14.0365 60.4551 12.9796C61.779 11.3449 61.8441 9.45252 60.6296 7.76664C59.9722 6.85388 59.1014 6.17856 58.1595 5.58897C56.7222 4.68908 55.155 4.0858 53.5412 3.59642C51.8873 3.09456 50.2007 2.74 48.482 2.55849C47.7855 2.48489 47.0867 2.43372 46.3879 2.38254C46.1505 2.36515 45.9131 2.34776 45.6758 2.3295C44.0917 2.20796 42.5049 2.24216 40.9265 2.36894C39.6512 2.47116 38.3772 2.64462 37.118 2.872C34.8573 3.27888 32.6642 3.93166 30.5929 4.94222C29.2939 5.57569 28.1148 6.38582 27.178 7.50746C26.5717 8.23349 26.1673 9.05288 26.111 10.0151C26.0394 11.2418 26.5066 12.2717 27.3026 13.1668C28.3668 14.3624 29.7024 15.1802 31.1425 15.8326C33.8028 17.038 36.6195 17.6618 39.5053 17.9793C40.4499 18.0831 41.3999 18.1395 42.3498 18.1959C42.7809 18.2215 43.212 18.2471 43.6427 18.2771ZM45.8699 0.279785C45.9126 0.283866 45.9553 0.288431 45.9979 0.292994C46.0898 0.302834 46.1816 0.312667 46.2736 0.317616C46.7417 0.34143 47.21 0.361497 47.6783 0.381563C48.7216 0.426268 49.7648 0.470966 50.8046 0.557076C52.2169 0.674189 53.6253 0.855293 55.028 1.05692C57.6501 1.43362 60.2444 1.95238 62.7905 2.6941C65.0741 3.35976 67.2696 4.23308 69.2991 5.48834C70.2439 6.0727 71.1071 6.75727 71.7954 7.64146C73.1402 9.36799 73.1398 11.2631 71.7946 12.9929C70.9145 14.125 69.7731 14.9323 68.5344 15.6193C66.431 16.7848 64.194 17.6098 61.8819 18.2437C59.8922 18.789 57.8764 19.2116 55.8337 19.4977L55.7446 19.5102C54.4837 19.6868 53.222 19.8635 51.956 19.9964C48.6219 20.3477 45.2769 20.4765 41.9256 20.3682C40.4999 20.3224 39.0739 20.2636 37.6499 20.1747C36.6351 20.1115 35.6212 20.0125 34.6121 19.8857L34.2683 19.8428C32.9126 19.6737 31.5552 19.5044 30.2122 19.2595C28.7218 18.9886 27.2403 18.6522 25.7721 18.2767C23.3305 17.6529 20.9798 16.7796 18.7794 15.5324C17.6553 14.8953 16.6237 14.1399 15.7838 13.145C15.1522 12.3964 14.7538 11.5445 14.6839 10.558C14.6208 9.66781 14.8716 8.85687 15.3444 8.10992C16.0082 7.06193 16.9437 6.29646 17.9617 5.62437C19.5493 4.57477 21.2777 3.82057 23.0744 3.21407C25.5264 2.38663 28.0331 1.77369 30.5861 1.36399C32.3173 1.0859 34.0545 0.827524 35.7977 0.647225C36.932 0.529876 38.0719 0.466837 39.2117 0.403797L39.2118 0.403795C39.7255 0.375385 40.2392 0.346974 40.7524 0.313591C40.8216 0.309105 40.8904 0.300128 40.9592 0.291148C40.9891 0.287237 41.0191 0.283326 41.0491 0.279785H45.8699ZM4.47163 28.3287H4.47565C4.47565 28.5082 4.47584 28.6877 4.47604 28.8671C4.47647 29.262 4.4769 29.6568 4.47524 30.0516C4.47446 30.1963 4.47139 30.341 4.46831 30.4857C4.46345 30.7142 4.4586 30.9428 4.46278 31.1713C4.46962 31.5419 4.58902 31.7021 4.94402 31.7391C5.32676 31.7782 5.71794 31.7914 6.10068 31.7621C6.49347 31.7315 6.59237 31.595 6.62976 31.1918C6.64183 31.0638 6.64142 30.9342 6.64102 30.805C6.63861 29.9056 6.63577 29.0061 6.63292 28.1064L6.63292 28.1053L6.62735 26.3044C6.62708 26.2089 6.62882 26.1133 6.63056 26.0178C6.63391 25.8336 6.63727 25.6496 6.62615 25.4665C6.60846 25.1759 6.51036 25.0471 6.23014 25.0214C5.81885 24.9835 5.39993 24.9598 4.99025 24.9968C4.53233 25.0375 4.47122 25.1485 4.47163 25.615C4.47189 26.2178 4.4718 26.8207 4.47171 27.4238V27.4238V27.4238V27.4239V27.4239V27.424L4.47163 28.3287ZM0.76001 25.4434C0.847252 24.7894 1.34337 24.5942 1.87928 24.4578C2.79513 24.2248 3.73268 24.1531 4.67184 24.1656C5.85383 24.1817 7.03582 24.2215 8.2158 24.292C8.67493 24.3193 9.13727 24.4252 9.58072 24.554C10.1552 24.7206 10.3249 24.9757 10.3454 25.5762C10.3527 25.7871 10.3486 25.9985 10.3446 26.2098V26.2099V26.2099V26.2099V26.21V26.21C10.3422 26.3362 10.3398 26.4623 10.3398 26.5884L10.3405 27.3131V27.3139C10.3417 28.601 10.3429 29.8881 10.3486 31.1751C10.351 31.7688 10.2135 32.0336 9.64384 32.2018C9.2912 32.3058 8.92555 32.3659 8.56 32.4261C8.40336 32.4519 8.24674 32.4776 8.09117 32.5069C8.03144 32.5183 7.97118 32.528 7.91097 32.5377L7.9104 32.5378C7.88003 32.5427 7.84966 32.5476 7.81939 32.5527H3.42874L3.33135 32.5376C3.2664 32.5276 3.20145 32.5176 3.13686 32.5069C2.98684 32.4818 2.83639 32.4587 2.68594 32.4355L2.68588 32.4355L2.68583 32.4355L2.68577 32.4355L2.68571 32.4355L2.68565 32.4355C2.33623 32.3817 1.98681 32.328 1.64289 32.2501C1.20667 32.1515 0.848056 31.9273 0.76001 31.4327V25.4434ZM86.8154 24.3557L86.8156 24.3556L86.8321 24.339C86.8373 24.3337 86.8424 24.3283 86.8474 24.3229V24.2368C86.5997 24.2381 86.352 24.2399 86.1043 24.2418C85.4199 24.247 84.7355 24.2522 84.0512 24.2448C83.8257 24.2424 83.7083 24.3181 83.6013 24.5092C83.3052 25.0356 82.998 25.5564 82.6911 26.0768L82.691 26.077L82.6909 26.0771L82.6908 26.0773L82.6907 26.0775C82.612 26.211 82.5333 26.3445 82.4547 26.478C82.3468 26.662 82.2366 26.8442 82.1222 27.0332L82.0534 27.1471L81.9683 27.2882L81.9109 27.1903L81.9104 27.1894C81.8844 27.1452 81.8614 27.1059 81.8384 27.0664L81.6584 26.7577L81.4488 26.3986C81.0658 25.7425 80.6828 25.0863 80.3042 24.4279C80.2258 24.2915 80.133 24.2468 79.9782 24.2476C79.1034 24.2518 78.2288 24.2516 77.3542 24.2513C76.974 24.2511 76.5937 24.251 76.2135 24.2513C76.1705 24.2513 76.1273 24.2543 76.0739 24.258L76.0178 24.2619L75.9667 24.2649C76.0313 24.3635 76.0936 24.4591 76.1545 24.5525C76.2851 24.753 76.4092 24.9435 76.5367 25.1318L76.8074 25.5318L76.8119 25.5385L76.8129 25.54C77.6366 26.7574 78.4603 27.9748 79.2895 29.1886C79.4435 29.4139 79.4411 29.6542 79.437 29.9085C79.4264 30.5627 79.423 31.2169 79.4196 31.8715V31.873L79.4169 32.3627C79.4169 32.3814 79.4248 32.4001 79.431 32.415L79.431 32.4151L79.4338 32.4219C79.4351 32.4251 79.4362 32.4281 79.437 32.4307H83.4393L83.4392 32.1479L83.4387 31.7343C83.4377 31.03 83.4368 30.3385 83.445 29.647C83.4466 29.5077 83.4932 29.3491 83.5696 29.2328C84.5586 27.7287 85.555 26.2293 86.5512 24.7301L86.7517 24.4283C86.7692 24.4018 86.7923 24.3787 86.8154 24.3557ZM43.5149 24.2891C43.4914 24.3135 43.4678 24.3378 43.4442 24.362C43.3969 24.4105 43.3496 24.459 43.3038 24.5089C43.0749 24.7566 42.8461 25.0046 42.6174 25.2525C41.9314 25.9961 41.2454 26.7397 40.5547 27.4786C40.4353 27.6062 40.4493 27.6919 40.5317 27.8267C41.2557 29.0088 41.9757 30.1933 42.6956 31.3776L43.2057 32.2167C43.2333 32.2616 43.2593 32.3076 43.2895 32.3611C43.3037 32.3863 43.3188 32.4132 43.3356 32.4424C43.307 32.4447 43.2811 32.4472 43.2569 32.4496C43.212 32.454 43.1731 32.4579 43.1341 32.4581C42.7634 32.4584 42.3927 32.4583 42.022 32.4582C41.116 32.458 40.2101 32.4579 39.3039 32.4622C39.1644 32.4626 39.0836 32.4227 39.0128 32.3008C38.5159 31.4442 38.0155 30.5903 37.5149 29.736L37.1687 29.1451C37.1329 29.0848 37.0927 29.0264 37.0147 28.9733V32.4469H33.0277V24.2509L33.3921 24.2508C33.6378 24.2507 33.8857 24.2506 34.1333 24.2509C34.3881 24.2513 34.6428 24.252 34.8976 24.2528H34.8976H34.8977H34.8977H34.8982C35.5254 24.2548 36.1525 24.2567 36.7799 24.2521C36.9645 24.2505 37.0244 24.2968 37.0219 24.4932C37.0115 25.243 37.0112 25.9926 37.0108 26.7425V26.7425V26.7425V26.7425C37.0108 26.9691 37.0107 27.1956 37.0103 27.4222C37.0103 27.4339 37.0135 27.4455 37.0193 27.4666C37.0231 27.4804 37.0281 27.4984 37.034 27.5233C37.1125 27.4408 37.1893 27.3608 37.2648 27.2822C37.4231 27.1175 37.5754 26.9589 37.7243 26.7968L37.8695 26.6388L37.8696 26.6387L37.8697 26.6386L37.8698 26.6384C38.5202 25.9306 39.1709 25.2222 39.8137 24.5073C39.9842 24.3173 40.1639 24.228 40.4272 24.2316C41.1686 24.2424 41.91 24.2407 42.6515 24.2389H42.6516H42.6516H42.6517C42.9283 24.2383 43.2049 24.2376 43.4815 24.2376L43.494 24.2572L43.5149 24.2891ZM20.5413 26.3538C20.5614 26.3514 20.5819 26.3486 20.6024 26.3457L21.2112 28.1083L21.6723 29.4434H19.6331C19.9391 28.4031 20.2402 27.3784 20.5413 26.3538ZM16.0897 32.1479L15.9842 32.447C16.0163 32.4487 16.0449 32.4506 16.0711 32.4523H16.0711H16.0712C16.1192 32.4555 16.1594 32.4582 16.1997 32.4582C16.4293 32.4583 16.659 32.458 16.8886 32.4576C17.4769 32.4565 18.0651 32.4555 18.653 32.4631C18.8286 32.4655 18.8817 32.3971 18.9227 32.2445C19.0041 31.943 19.0906 31.6427 19.177 31.3425C19.2489 31.0926 19.3209 30.8427 19.3899 30.5921C19.4237 30.4697 19.4759 30.413 19.609 30.4138C20.3262 30.4182 21.0431 30.4186 21.7603 30.413C21.9034 30.4122 21.9537 30.479 21.9935 30.6037C22.0715 30.8465 22.1526 31.0883 22.2337 31.3302L22.2338 31.3302L22.2338 31.3303C22.337 31.6381 22.4402 31.9458 22.537 32.2554C22.5861 32.4119 22.6552 32.4635 22.8213 32.4627C23.7535 32.4573 24.6858 32.4577 25.6182 32.4581H25.6182H25.6183C25.9412 32.4582 26.2642 32.4583 26.5872 32.4582C26.6318 32.4582 26.6766 32.4549 26.7273 32.4511L26.7639 32.4484C26.7789 32.4474 26.7945 32.4463 26.8107 32.4454C26.8022 32.4203 26.7944 32.3969 26.7871 32.3747C26.7688 32.3195 26.7531 32.2722 26.7347 32.2256C26.4825 31.5804 26.2301 30.9353 25.9778 30.2901L25.9752 30.2837L25.9727 30.2773L25.9721 30.2757C25.2169 28.3453 24.4617 26.4147 23.711 24.4824C23.6438 24.3098 23.5671 24.2446 23.3757 24.2458C21.9915 24.2554 20.6069 24.257 19.2226 24.2446C19.0031 24.243 18.9127 24.3158 18.8415 24.5134C18.2448 26.1771 17.6433 27.8391 17.0419 29.5011C16.8223 30.1078 16.6028 30.7145 16.3834 31.3213C16.285 31.5935 16.1887 31.8669 16.0897 32.1479ZM71.2991 25.3145H67.5175V27.8182H70.4315V28.7841H67.532V31.39H71.2923V32.4408H63.4975V24.2645H71.2991V25.3145ZM53.5878 31.3487V24.2672H49.5896V32.4406H57.5668C57.5668 32.3528 57.5656 32.2665 57.5644 32.1814C57.5618 31.9856 57.5592 31.7959 57.5712 31.6071C57.5841 31.4071 57.5161 31.3503 57.3207 31.3511C56.446 31.3548 55.5711 31.3527 54.6961 31.3506C54.416 31.3499 54.136 31.3492 53.856 31.3487H53.5878Z" fill="#3A4850"/>
</svg>
