<svg width="110" height="23" viewBox="0 0 110 23" fill="none" xmlns="http://www.w3.org/2000/svg">
<path fill-rule="evenodd" clip-rule="evenodd" d="M98.4636 1.26343H109.096V2.94222C108.787 2.84041 108.462 2.78542 108.138 2.78542H102.026V10.6306H107.971C108.399 10.6306 108.779 10.5838 109.096 10.5054V12.1763C108.826 12.1134 108.454 12.0821 107.995 12.0821H102.026V20.194H107.956C108.28 20.194 108.668 20.1469 109.096 20.0451V21.8494H98.4793C98.5587 21.5513 98.6062 21.2296 98.6062 20.8768V2.25976C98.6062 1.85197 98.5587 1.51442 98.4636 1.26343Z" fill="#3A4850"/>
<path fill-rule="evenodd" clip-rule="evenodd" d="M96.0016 6.60605L92.9299 6.58264C92.7797 4.87254 91.7899 3.21689 89.6127 2.91118C84.9502 2.4955 83.6355 7.57108 83.7548 11.282C83.8734 14.8593 84.4511 20.359 89.2646 20.359C91.2831 20.359 93.223 18.3034 93.1593 16.5694L96.0016 16.5462C95.7958 20.1235 91.6553 22.1946 89.6841 22.2654C82.9472 22.4929 80.1288 18.0446 79.9865 11.6977C79.8598 5.94728 82.2346 0.839844 88.8924 0.839844C94.5924 0.918516 95.6928 4.26059 96.0016 6.60605Z" fill="#3A4850"/>
<path fill-rule="evenodd" clip-rule="evenodd" d="M48.0906 19.5115L50.1253 17.8251C51.1861 19.5589 52.0569 20.3508 54.1625 20.3508C56.3002 20.3508 58.0972 19.0642 58.0972 16.7893C58.0972 15.6672 57.6379 14.7495 56.7273 14.0592C56.3158 13.7377 55.2712 13.1807 53.6243 12.4038C51.1622 11.2349 48.7633 9.71286 48.7633 6.65336C48.7633 2.79352 52.0726 1.09104 55.5637 0.965548C57.63 0.886876 60.1951 2.01687 61.2321 3.2876L59.1658 4.86459C58.2632 3.23289 56.6718 2.60514 55.3659 2.60514C52.7297 2.60514 50.6398 5.63334 52.8247 7.7202C53.3788 8.25375 54.5111 8.91253 56.2367 9.69735C58.9916 10.9762 61.3428 12.5059 61.3428 15.8874C61.3428 17.0558 61.034 18.1463 60.4245 19.1429C59.1974 21.1511 57.1473 22.1553 54.2814 22.1553C50.9881 22.1553 50.339 21.4103 48.0906 19.5115Z" fill="#3A4850"/>
<path fill-rule="evenodd" clip-rule="evenodd" d="M19.1001 1.26343H29.7243V2.94222C29.4155 2.84041 29.0911 2.78542 28.7661 2.78542H22.6547V10.6306H28.5999C29.0276 10.6306 29.4076 10.5838 29.7243 10.5054V12.1763C29.4548 12.1134 29.0831 12.0821 28.6315 12.0821H22.6547V20.194H28.5843C28.9087 20.194 29.2969 20.1469 29.7243 20.0451V21.8494H19.1163C19.1872 21.5513 19.2347 21.2296 19.2347 20.8768V2.25976C19.2347 1.85197 19.1872 1.51442 19.1001 1.26343Z" fill="#3A4850"/>
<path fill-rule="evenodd" clip-rule="evenodd" d="M0.52002 1.26343H4.38336V1.45181C4.38336 1.62439 4.43885 1.85197 4.53362 2.14216L9.98031 18.3895L15.5696 2.07166C15.6566 1.79671 15.7042 1.53021 15.7042 1.26343H17.5801C17.3903 1.59282 17.248 1.88328 17.1609 2.14216L10.7802 21.0099C10.7165 21.1904 10.6613 21.4729 10.6138 21.8494H7.44705C7.40722 21.5982 7.33608 21.3159 7.23334 21.0099L0.979313 2.29107C0.907892 2.11848 0.757632 1.76568 0.527986 1.26343H0.52002Z" fill="#3A4850"/>
<path fill-rule="evenodd" clip-rule="evenodd" d="M40.9104 10.4271C40.2377 10.8981 39.4298 11.1333 38.5038 11.1333H36.9207V2.76246H38.3376C39.549 2.76246 40.4907 3.06054 41.1637 3.65671C42.082 4.48045 42.5493 5.59466 42.5493 6.99116C42.5493 8.49736 42.0029 9.64288 40.9104 10.4271ZM41.5516 11.9963C44.0851 11.5019 46.0242 9.57979 46.0242 6.83416C46.0242 3.23293 42.9847 1.26367 39.5803 1.26367H33.3579C33.445 1.57754 33.4928 1.90721 33.4928 2.25238V20.861C33.4928 21.2614 33.445 21.5987 33.3579 21.8497H37.0627C36.9759 21.5437 36.9284 21.214 36.9284 20.861V12.3099L38.1157 12.4354L44.3224 21.8497H48.0512L41.5516 11.9963Z" fill="#3A4850"/>
<path fill-rule="evenodd" clip-rule="evenodd" d="M66.6232 13.8862L69.8531 4.58979L73.1703 13.8862H66.6232ZM79.3689 20.9944L72.4498 1.94616C72.3707 1.71069 72.3232 1.47522 72.3152 1.26343H69.3227C69.3227 1.50652 69.2834 1.76568 69.1881 2.02456L62.483 20.9944C62.3956 21.2685 62.2533 21.5513 62.0632 21.8494H63.9949C63.9869 21.5355 64.0265 21.2454 64.1136 20.9944L66.1005 15.4005H73.7403L75.7036 20.9944C75.8066 21.3001 75.8539 21.5824 75.8539 21.8494H79.86C79.6304 21.5277 79.4636 21.2375 79.3689 20.9944Z" fill="#3A4850"/>
</svg>
