<svg width="50" height="52" viewBox="0 0 50 52" fill="none" xmlns="http://www.w3.org/2000/svg">
<g id="round">
<path id="Fill 1" fill-rule="evenodd" clip-rule="evenodd" d="M34.381 48.0769C45.1032 47.4441 48.547 45.4706 49.5841 44.5574L47.8994 43.0177C48.711 43.5671 49.4409 43.921 49.9687 44.1375C49.9915 44.1031 50 44.0841 50 44.0841C47.7201 42.3639 46.0911 35.5996 46.0911 35.5996C44.7886 32.2744 43.8112 20.2367 43.8112 20.2367C43.8112 16.7971 42.5087 13.2428 42.5087 13.2428C40.1196 6.01991 34.7995 2.69495 34.7995 2.69495C34.3628 2.42215 33.9203 2.17882 33.4768 1.95679C33.0337 1.75431 30.2788 0.542606 26.8941 0.108168C24.8234 -0.101319 23.3988 0.0579847 23.3988 0.0579847C22.2621 0.153684 21.1965 0.361128 20.2007 0.651434C18.6797 1.19091 17.239 2.08692 16.0156 3.48535C16.0156 3.48535 16.0074 3.46113 15.9406 3.45588C11.5323 1.69537 8.32601 11.0593 8.31898 11.0797C7.37499 13.3458 6.51507 17.1697 6.51507 17.1697L5.86338 24.8224C5.37455 31.3576 2.85041 39.5268 2.85041 39.5268C1.87304 42.5366 0 43.9983 0 43.9983C0.43055 44.4339 0.957168 44.8232 1.55349 45.1704C1.89618 44.9965 2.71422 44.56 3.49038 43.9846L2.17237 45.503C5.09572 46.9624 9.30104 47.5821 12.3454 47.8453C14.6733 48.0769 15.8401 48.0369 16.1193 48.0393L34.381 48.0769Z" fill="#89959C"/>
<path id="Fill 43" fill-rule="evenodd" clip-rule="evenodd" d="M28.8934 11H21.1065C17.4541 11 13.5874 12.7067 11.7343 14.9972C9.68548 17.5298 9.07355 20.8282 9.01236 22.872C8.91985 25.9544 9.35302 29.5545 10.1003 34.6351C10.5701 37.832 12.7392 42.9975 13.7852 44.5199C14.8111 46.4715 20.2999 50.9632 25.0002 51C29.7005 50.9632 35.1883 46.4715 36.2147 44.5199C37.2612 42.9975 39.4293 37.832 39.9 34.6351C40.6469 29.5545 41.0805 25.9544 40.9875 22.872C40.9259 20.8282 40.3149 17.5298 38.2656 14.9972C36.412 12.7067 32.5462 11 28.8934 11Z" fill="#FFF1E3" stroke="#89959C" stroke-width="2"/>
</g>
</svg>
