<svg width="48" height="53" viewBox="0 0 48 53" fill="none" xmlns="http://www.w3.org/2000/svg">
<g id="oval">
<path id="Fill 1" fill-rule="evenodd" clip-rule="evenodd" d="M33.0058 47.1572C43.299 46.5409 46.6051 44.6189 47.6007 43.7295L45.9834 42.2301C46.7625 42.7651 47.4632 43.1098 47.9699 43.3206C47.9918 43.2871 48 43.2686 48 43.2686C45.8113 41.5933 44.2474 35.0056 44.2474 35.0056C42.997 31.7671 42.0588 20.0436 42.0588 20.0436C42.0588 16.6938 40.8084 13.2322 40.8084 13.2322C38.5148 6.19782 33.4076 2.95964 33.4076 2.95964C32.9883 2.69396 32.5635 2.45698 32.1378 2.24074C31.7124 2.04354 29.0676 0.863467 25.8184 0.440367C23.8305 0.236347 22.4628 0.391493 22.4628 0.391493C21.3716 0.484695 20.3487 0.686726 19.3927 0.969455C17.9325 1.49485 16.5494 2.36748 15.3749 3.72941C15.3749 3.72941 15.3671 3.70582 15.303 3.70071C11.071 1.98615 7.99297 11.1057 7.98622 11.1256C7.07999 13.3326 6.25446 17.0566 6.25446 17.0566L5.62885 24.5096C5.15957 30.8743 2.7364 38.8302 2.7364 38.8302C1.79812 41.7615 0 43.1851 0 43.1851C0.413328 43.6093 0.918881 43.9884 1.49135 44.3265C1.82033 44.1572 2.60565 43.7321 3.35077 43.1718L2.08548 44.6505C4.89189 46.0718 8.929 46.6753 11.8515 46.9316C14.0863 47.1572 15.2065 47.1183 15.4745 47.1206L33.0058 47.1572Z" fill="#89959C"/>
<g id="Fill 43">
<path fill-rule="evenodd" clip-rule="evenodd" d="M36.5948 14.485C34.8287 12.2015 31.1455 10.5 27.6651 10.5H20.2459C16.766 10.5 13.0819 12.2015 11.3163 14.485C9.36424 17.0099 8.7812 20.2982 8.7229 22.3357C8.63475 25.4087 9.04747 28.9979 9.75951 34.0629C10.2071 37.2501 11.6794 41.7888 12.6761 43.3065C13.6535 45.2521 19.4774 51.5633 23.9557 51.6C28.4341 51.5633 34.2571 45.2521 35.235 43.3065C36.2321 41.7888 37.7035 37.2501 38.152 34.0629C38.8636 28.9979 39.2767 25.4087 39.1881 22.3357C39.1294 20.2982 38.5473 17.0099 36.5948 14.485Z" fill="#FFF1E3"/>
<path d="M36.5948 14.485C34.8287 12.2015 31.1454 10.5 27.6651 10.5H20.2459C16.766 10.5 13.0819 12.2015 11.3163 14.485C9.36424 17.0099 8.7812 20.2982 8.7229 22.3357C8.63475 25.4087 9.04747 28.9979 9.75951 34.0629C10.2071 37.2501 11.6794 41.7888 12.6761 43.3065C13.6535 45.2521 19.4774 51.5633 23.9557 51.6C28.4341 51.5633 34.2571 45.2521 35.235 43.3065C36.2321 41.7888 37.7035 37.2501 38.152 34.0629C38.8636 28.9979 39.2767 25.4087 39.1881 22.3357C39.1294 20.2982 38.5473 17.0099 36.5948 14.485" stroke="#89959C" stroke-width="2.28"/>
</g>
</g>
</svg>
