<svg width="84" height="42" viewBox="0 0 84 42" fill="none" xmlns="http://www.w3.org/2000/svg">
<path fill-rule="evenodd" clip-rule="evenodd" d="M55.6387 15.7468C56.5005 16.7503 59.554 18.972 59.554 18.972C61.0265 20.0832 61.7092 22.0543 60.0927 24.0968C60.0927 24.0968 54.5248 29.9023 53.2319 32.3035C52.9087 32.8409 52.4056 33.056 52.0105 32.4112C51.6153 31.766 50.4659 29.8309 51.5798 28.6482C51.5798 28.6482 56.8241 23.4157 57.3268 21.4805C57.4708 20.8357 57.5783 19.9755 56.6085 19.0079C55.6387 18.0403 54.6928 16.9987 54.3097 16.4634C53.7706 15.7109 53.555 14.7793 54.4888 13.7039C54.6257 13.5464 54.8213 13.3377 55.0569 13.0862C56.4293 11.6213 59.1617 8.70477 59.59 5.99919C59.9131 3.95627 59.3024 2.95277 58.8713 2.55855C58.4406 2.16434 56.8241 1.19675 55.2435 3.59797C53.8001 5.79095 53.4828 8.29239 53.2856 9.84742C53.2669 9.99508 53.2493 10.1342 53.2319 10.2637C52.9087 12.6645 52.8727 23.4157 52.8727 24.0254C52.8727 24.0553 52.873 24.0877 52.8733 24.1223C52.8777 24.647 52.8865 25.6843 52.0105 26.3902C51.0766 27.1432 49.0289 28.2899 49.7117 26.3543C49.8912 25.5304 50.0708 21.1581 50.0708 19.5453C50.0708 17.933 50.1086 16.463 50.1428 15.1735C50.3137 8.69424 50.889 7.63241 52.107 5.38447C52.169 5.27006 52.2327 5.15258 52.298 5.03116C54.3813 1.16084 58.5548 -0.122473 60.5238 0.515634C61.9608 0.981687 63.96 3.86581 62.6791 7.18183C61.3623 10.5904 58.0353 12.8032 55.8779 14.238L55.8182 14.2777C55.4591 14.5642 55.06 15.0733 55.6387 15.7468ZM17.9881 31.9039L28.3821 36.9671C29.4594 37.4686 29.3879 37.9706 28.8132 38.9741C28.2385 39.9776 27.8074 40.1208 27.0171 39.7625L18.2521 35.5335C17.893 35.4616 17.6414 35.6053 17.5699 36.0354V37.8633C17.4979 38.7231 17.3183 40.0135 14.6244 40.551L14.7319 34.53C14.7319 33.8134 14.5168 33.5983 13.7981 33.3118L10.7806 31.8782C10.1343 31.6631 9.91876 31.0179 10.7806 30.5882L14.5301 28.4841C14.6781 28.4198 14.8039 28.2048 14.8093 27.936L14.9835 15.5007C14.9887 15.4595 14.9933 15.4202 14.9977 15.3828L14.9977 15.3826C15.0546 14.9 15.0765 14.7146 15.8098 14.2821L16.9592 13.7088C17.6779 13.4578 18.001 13.7802 18.001 14.4972L17.7494 25.2843C17.7494 25.7858 17.9748 26.0993 18.5757 25.7858C20.1562 24.9615 23.6404 21.6286 24.8618 19.3351C25.9779 17.2385 26.8669 12.2774 23.2093 11.4508C19.9229 10.7087 17.0649 12.0486 15.4663 12.7981C15.2127 12.917 14.9908 13.021 14.8039 13.0995C13.439 13.6729 6.11098 17.0417 1.29737 21.4853C0.651107 22.2738 0.363535 22.3456 0.219971 21.5572C0.229191 21.3185 0.231342 21.0763 0.233513 20.8318C0.248298 19.167 0.264037 17.3948 2.51922 15.8949C5.42116 13.9646 12.1118 10.4145 18.6833 9.0141C26.0833 7.43724 30.8177 13.2294 26.0833 20.1236C22.7845 24.9263 19.5841 26.909 18.2518 27.7344L18.2517 27.7345L18.2514 27.7346L18.2506 27.7352L18.2505 27.7352C18.1474 27.7991 18.0555 27.856 17.9757 27.9068C17.717 28.0926 17.6779 28.2943 17.6739 28.4917L17.6463 31.2867C17.6414 31.484 17.7597 31.7855 17.9881 31.9039ZM81.7838 12.1247C81.0069 12.1247 80.3806 11.4999 80.3806 10.7207C80.3806 9.95004 81.0069 9.32523 81.7838 9.32523C82.5563 9.32523 83.1826 9.95004 83.1826 10.7207C83.1826 11.4999 82.5563 12.1247 81.7838 12.1247ZM81.7838 9.13349C80.8985 9.13349 80.1846 9.84565 80.1846 10.7206C80.1846 11.6039 80.8985 12.316 81.7838 12.316C82.6648 12.316 83.3746 11.6039 83.3746 10.7206C83.3746 9.84565 82.6648 9.13349 81.7838 9.13349ZM81.7426 10.6214H81.4088V9.99257H81.9182C82.1395 9.99257 82.3813 10.0258 82.3813 10.3008C82.3813 10.6302 82.0604 10.6256 81.8137 10.6221C81.7892 10.6217 81.7653 10.6214 81.7426 10.6214ZM82.6026 10.305C82.6026 10.1546 82.536 9.99632 82.4022 9.92138C82.2688 9.84245 82.1182 9.83402 81.9679 9.83402H81.1915V11.6127H81.4088V10.7919H81.8093L82.3186 11.6127H82.5777L82.039 10.7919C82.3564 10.7834 82.6026 10.6544 82.6026 10.305ZM43.6993 21.7762C42.4806 22.4781 41.9175 23.7907 42.397 24.62C42.8771 25.4492 44.326 25.588 45.5443 24.886C46.7631 24.1836 47.2907 22.907 46.8106 22.0777C46.331 21.2489 44.9181 21.0742 43.6993 21.7762ZM26.9906 29.6952L26.992 29.6928C27.3156 29.1554 28.0339 27.9009 27.5307 27.6144C27.0009 27.312 25.8426 28.5102 25.4475 29.2627C25.1839 29.7647 24.6572 31.1979 25.0524 31.4129C25.8055 31.6636 26.666 30.2344 26.9906 29.6952ZM37.8758 25.0516C38.2353 24.299 38.8736 23.0712 39.2052 22.6685C39.6181 22.1665 40.103 22.4712 40.103 22.9013L39.7799 40.7306C39.7799 41.1248 39.5283 41.3754 39.2412 41.3754H37.6784C37.3193 41.3754 37.1219 41.2322 37.1219 40.7306C37.1219 40.7306 37.3371 29.7285 37.3371 29.2624C37.3371 28.7964 36.9064 28.5636 36.6188 29.0474C36.2005 29.7511 35.3618 30.9471 34.6071 30.9471C33.8169 30.9471 33.3502 29.7644 33.2782 29.4061C33.2062 29.0474 32.883 29.0115 32.6675 29.4416C31.4821 31.5204 30.4762 32.1297 29.6864 32.1652C28.8957 32.2011 28.285 30.8034 28.1774 30.4451C28.0694 30.0868 27.8538 30.0509 27.6387 30.4092C27.4999 30.6398 27.2569 30.9151 26.9577 31.2541C26.7921 31.4417 26.6092 31.6489 26.4173 31.8787C25.8786 32.5235 24.0465 34.0649 23.0047 33.2046C21.8877 32.2823 22.4851 29.9906 23.2202 28.7605C24.4416 26.718 25.4475 26.1805 26.4893 26.2165C27.4642 26.4293 27.6381 26.1777 27.8 25.9436C27.829 25.9016 27.8576 25.8603 27.8903 25.8222C28.1054 25.5713 28.6446 25.3562 29.0752 25.3562C29.6864 25.3562 29.9735 25.8582 30.0095 26.4674C30.0455 27.0763 30.5482 29.0474 31.2309 29.0474C32.3083 29.0474 33.2782 25.7863 33.4577 25.0338C33.6373 24.2809 34.248 24.0662 34.4636 24.0303C34.6791 23.9944 35.1103 24.1022 35.1103 24.8187C35.1103 25.5353 35.2107 27.5064 36.0081 27.5064C36.715 27.5064 37.4219 26.0111 37.8036 25.2038L37.8043 25.2023C37.8296 25.1488 37.8534 25.0983 37.8758 25.0516ZM66.4937 20.8512C66.1701 21.3886 65.4518 22.5713 64.6975 22.3203C64.3024 22.1052 64.7931 21.0663 65.0567 20.5643C65.4518 19.8118 66.6101 18.5959 67.1404 18.8979C67.5738 19.1452 67.0196 20.0187 66.6512 20.5991C66.5923 20.6919 66.5382 20.7772 66.4937 20.8512ZM81.7243 18.7007L81.7177 18.7065C81.5731 18.8327 81.3386 19.0373 80.826 18.808C80.1752 18.5483 79.9583 17.592 79.7104 16.4985L79.7103 16.4984C79.6162 16.0833 79.5176 15.6486 79.3891 15.2246C78.9695 13.8398 77.9588 13.9271 77.5934 14.5612L76.4973 16.3172L76.4688 16.3692C76.2606 16.7492 75.8492 17.4999 75.4382 17.4999C75.0519 17.4999 75.0947 17.0772 75.1475 16.5565C75.1635 16.3991 75.1804 16.2326 75.1866 16.0663C75.2044 15.5829 74.899 14.9736 74.3959 14.9736C73.8216 14.9736 73.2109 15.8516 72.7438 16.8551C72.6864 16.9783 72.6133 17.1625 72.5258 17.3827L72.5258 17.3829C72.1152 18.4168 71.3905 20.2417 70.5165 20.2417C69.87 20.2417 69.7715 18.4717 69.7323 17.7678L69.7263 17.6613C69.6903 17.052 69.4752 16.2995 68.8645 16.2995C68.4511 16.2995 68.1817 16.5146 67.9662 16.7656C67.9372 16.7994 67.9115 16.8325 67.8868 16.8643L67.8867 16.8644C67.7283 17.0686 67.6133 17.2167 66.9608 17.1239C65.9189 17.0879 64.1948 18.0555 62.9734 20.0984C62.2378 21.3281 61.3538 23.9067 62.4703 24.8286C63.5121 25.6889 65.3802 23.6819 65.9189 23.0371C66.1108 22.8073 66.2937 22.6001 66.4593 22.4125L66.4593 22.4125C66.7586 22.0735 67.0016 21.7982 67.1404 21.5675C67.3555 21.2092 67.571 21.2452 67.679 21.6035C67.7866 21.9618 68.3973 23.3595 69.1876 23.3236C69.9779 23.2876 70.6246 23.1085 71.81 21.0301C72.0255 20.6 72.4207 20.5463 72.4922 20.9046C72.4999 20.9429 72.5076 20.9879 72.5161 21.0379C72.5874 21.4551 72.7168 22.2127 73.3905 22.2127C74.6039 22.2127 75.9691 19.4483 76.4356 18.5036C76.4662 18.4416 76.493 18.3874 76.5156 18.3424C76.8387 17.6972 77.3596 17.8764 77.5392 18.3602C77.5892 18.4948 77.6381 18.6874 77.6947 18.9104C77.9293 19.8348 78.2964 21.2811 79.4251 21.2811C80.826 21.2811 81.7781 19.7938 82.0652 19.3277C82.3888 18.8621 82.2203 18.2675 81.7243 18.7007Z" fill="#232B30"/>
</svg>
