<svg width="113" height="33" viewBox="0 0 113 33" fill="none" xmlns="http://www.w3.org/2000/svg">
<path fill-rule="evenodd" clip-rule="evenodd" d="M55.3926 3.28897L55.5117 3.33943C55.5375 3.35233 55.5632 3.36092 55.5888 3.36951C55.6401 3.38664 55.6913 3.40376 55.7426 3.45501L55.2423 2.68368C54.4346 1.37279 53.6269 0.909864 53.2037 0.909864H53.1651C53.0113 0.909864 52.896 0.948492 52.8575 1.06438C52.7422 1.2569 52.8575 1.60394 53.088 1.95128C53.4575 2.46946 54.43 2.88132 55.3926 3.28897ZM56.0117 3.5322C56.8197 3.87923 57.4354 4.18764 57.743 4.57331C57.7641 4.59441 57.7736 4.60399 57.778 4.60203C57.781 4.60067 57.7815 4.59383 57.7815 4.58149C57.7813 4.61193 57.7786 4.61193 57.743 4.61193L57.7045 4.57331C57.4424 4.2354 56.8884 4.00707 56.2556 3.74625L56.2041 3.72503L57.4354 5.69167H57.5507L57.7045 6.11566C57.7045 6.11566 57.243 6.15429 57.1659 5.92283C57.1452 5.84004 57.1024 5.8351 57.0612 5.83035C57.0257 5.82625 56.9914 5.82229 56.9736 5.76862C56.935 5.69167 57.0889 5.69167 57.1659 5.69167H57.2045L55.8965 3.60945C55.8692 3.60033 55.8398 3.59121 55.8088 3.58157L55.8087 3.58152L55.8085 3.58148C55.7082 3.55035 55.5908 3.51389 55.4732 3.45494L55.3681 3.41206C54.3628 3.00187 53.3432 2.58588 52.9342 1.98953C52.6651 1.56555 52.588 1.17988 52.7036 0.909795C52.7804 0.755591 52.9342 0.640015 53.1651 0.640015H53.2037C53.4346 0.640015 54.3193 0.755591 55.3961 2.49078V2.5294L56.0117 3.5322ZM45.0482 5.80737C45.1253 6.07746 45.3944 6.88711 46.1253 7.00268L46.1639 6.92574C45.894 6.69383 45.7615 6.22079 45.6115 5.68503C45.3125 4.61735 44.9437 3.30057 43.2787 3.14665C42.4707 3.06939 42.2401 3.30085 42.2401 3.33948C42.2401 3.33948 42.3554 3.49369 42.4707 3.49369C44.127 3.41809 44.5676 4.56088 45.0185 5.73018L45.0482 5.80737ZM42.24 3.76359C42.2786 3.80191 42.3171 3.99475 42.2015 4.26484C41.9439 4.03872 41.6593 4.08313 41.5283 4.10358C41.5028 4.10756 41.4831 4.11063 41.4706 4.11063C41.5476 4.03338 41.7782 3.9178 41.7782 3.9178C41.7782 3.9178 41.6629 3.87917 41.5859 3.68634C41.5476 3.60939 41.4706 3.26235 41.5091 3.26235C41.6274 3.38092 41.9276 3.56782 42.1125 3.68299L42.1128 3.68315C42.1683 3.71769 42.2134 3.74577 42.24 3.76359ZM39.4317 5.03634C39.4317 4.95908 39.5088 4.88183 39.7011 4.76625C39.7011 4.76625 39.5088 4.45753 39.5855 4.1105V3.91766C39.5855 3.91766 40.0088 4.53479 40.2397 4.88183C40.2011 4.88183 40.153 4.8915 40.1049 4.90117C40.0568 4.91082 40.0089 4.92046 39.9706 4.92046C39.932 4.92046 39.8936 4.93011 39.8551 4.93977C39.8166 4.94943 39.7782 4.95908 39.7397 4.95908C39.6806 4.97388 39.6273 4.98867 39.5818 5.0013L39.5817 5.00133C39.5084 5.02165 39.4555 5.03634 39.4317 5.03634ZM40.0858 6.46276C40.0473 6.42414 40.0473 6.26993 40.1626 6.11573H39.9317V6.0771L39.8549 5.4986L40.355 5.42165C40.355 5.42165 40.355 5.30577 40.3167 5.22882C40.0507 5.22882 39.7666 5.30243 39.591 5.34793C39.5124 5.36829 39.4555 5.38303 39.4317 5.38303C39.3549 5.88427 39.5855 6.03847 39.5855 6.03847C39.7186 6.17191 39.815 6.52702 39.8744 6.74591C39.9008 6.84334 39.9199 6.91379 39.9317 6.92569C40.0221 6.98588 40.2067 6.97554 40.338 6.96818C40.3745 6.96613 40.4069 6.96432 40.432 6.96432C39.9317 6.92569 40.0858 6.46276 40.0858 6.46276ZM52.3958 9.08488C52.3958 9.08488 52.3958 9.58643 51.9725 10.2805C51.4725 10.1263 50.0107 9.47054 49.203 9.00793C48.9721 8.2366 48.9721 7.38832 49.0106 7.11854C49.0106 7.11854 50.7801 6.77151 51.6264 7.46558C51.934 7.73536 52.3958 8.35249 52.3958 9.08488ZM48.6258 7.19564C48.6258 7.5813 48.7025 8.27538 48.8181 8.81524C48.3834 8.59733 48.1194 8.5161 47.6727 8.37864L47.5872 8.35232V7.31121C47.664 7.31121 48.0872 7.31121 48.6258 7.19564ZM63.1285 10.9746V8.35254H61.1666C61.1284 10.1647 62.667 10.8204 63.1285 10.9746ZM15.8112 21.6081L15.8112 21.608C15.5837 21.4762 15.1736 21.2384 14.5812 21.0009C13.7347 20.6925 12.3884 20.2682 10.6571 20.2682C7.88758 20.2682 5.31008 20.808 3.42498 21.7722C1.19398 22.8903 0.0397949 24.5871 0.0397949 26.5924C0.0397949 30.7572 3.92531 32.9166 11.3113 32.9166C13.1193 32.9166 14.6965 32.4537 16.0045 31.5282L18.2355 32.7238H18.6588V27.9422H18.2355L18.197 27.9809V28.0192C18.197 28.0578 17.8125 29.1375 16.8122 30.2173C15.8889 31.2198 14.1965 32.4151 11.4266 32.4151C9.58002 32.4151 8.07964 31.721 7.07959 30.4487C6.31044 29.446 5.84864 28.0578 5.84864 26.6697C5.84864 22.9289 8.7338 20.9239 11.4266 20.9239C13.2732 20.9239 14.9274 21.5021 16.2354 22.6205C17.3507 23.546 17.9664 24.6258 18.197 25.3581V25.3968H18.6588V20.4996H18.2355L15.966 21.6949C15.9306 21.6773 15.879 21.6474 15.8112 21.6081ZM32.9306 32.377C30.8917 32.377 27.468 31.1814 27.468 26.631C27.468 22.6593 30.1993 20.8852 32.9306 20.8852C36.5849 20.8852 38.7395 23.045 38.7395 26.631C38.7777 30.4873 36.8544 32.377 32.9306 32.377ZM41.4323 22.3506C39.1625 21.0394 36.162 20.3067 32.9692 20.3067C29.7378 20.3067 26.7371 21.0394 24.5061 22.3506C22.8519 23.3534 21.89 24.8957 21.89 26.6309C21.89 28.3661 22.8519 29.909 24.5061 30.9115C26.7756 32.2224 29.7764 32.9551 32.9692 32.9551C36.2005 32.9551 39.201 32.2224 41.4323 30.9115C43.0862 29.909 44.048 28.3661 44.048 26.6309C44.048 24.8957 43.0862 23.3534 41.4323 22.3506ZM112.561 21.078V20.4995H103.328V21.078H105.29V26.0524H97.5579V21.078H99.5583V20.5765V20.4995H90.2875V21.078H92.2876V32.2225H90.2875V32.801H99.5583V32.2225H97.5579V26.6309H105.29V32.2225H103.328V32.801H112.484H112.561V32.2225H110.56V21.078H112.561ZM52.4342 24.3168L48.8567 28.7517H56.5503L52.4342 24.3168ZM55.0117 20.3067H55.3194L66.1676 32.2221H68.7448V32.8396H57.166V32.2607H59.7049L57.0889 29.3689H48.3949L46.0486 32.2221H48.6643V32.8009H43.0864V32.2221H45.3177L55.0117 20.3067ZM84.093 21.608C84.1609 21.6474 84.2124 21.6773 84.2478 21.6949L86.5173 20.4996H86.9406V25.3968H86.4788V25.3581C86.2482 24.6258 85.6326 23.546 84.5169 22.6205C83.2092 21.5021 81.555 20.9239 79.7084 20.9239C77.0156 20.9239 74.1308 22.9289 74.1308 26.6697C74.1308 28.0578 74.5923 29.446 75.3617 30.4487C76.3618 31.721 77.8618 32.4151 79.7084 32.4151C82.4783 32.4151 84.1707 31.2198 85.094 30.2173C86.0944 29.1375 86.4788 28.0578 86.4788 28.0192V27.9809L86.5173 27.9422H86.9406V32.7238H86.5173L84.2863 31.5282C82.9783 32.4537 81.4012 32.9166 79.5928 32.9166C72.2071 32.9166 68.3219 30.7572 68.3219 26.5924C68.3219 24.5871 69.4758 22.8903 71.7068 21.7722C73.5922 20.808 76.1694 20.2682 78.939 20.2682C80.6702 20.2682 82.0168 20.6925 82.863 21.0009C83.4557 21.2384 83.8657 21.4762 84.093 21.608ZM66.5906 10.9581C66.5777 10.9629 66.565 10.9683 66.5523 10.9746H66.5906V10.9581ZM66.5906 10.9581C66.6067 10.9521 66.6232 10.9469 66.6402 10.9416C66.6918 10.9253 66.7491 10.9072 66.8215 10.8588C67.5138 9.04662 68.5139 8.39086 68.591 8.35254H66.5906V10.9581ZM46.9331 9.20074L47.2026 8.66087C47.0487 8.62224 46.8561 8.62224 46.664 8.66087L46.9331 9.20074ZM47.2024 8.3138V7.31131H46.6638V8.3138H46.933H47.2024ZM50.0106 11.1674C49.8182 10.8587 49.4335 10.4347 48.7411 10.7817C48.7411 10.7817 48.7026 11.3989 49.0106 11.6303C49.1259 11.7459 49.4721 12.1699 49.3568 12.4786C49.3291 12.5895 48.9436 12.9394 48.6575 13.199L48.6575 13.199L48.6574 13.1991L48.6572 13.1993L48.6571 13.1994C48.5454 13.3008 48.4489 13.3883 48.3949 13.4425C48.0102 13.7512 48.0873 13.9437 48.0873 13.9437C48.1186 14.0846 48.0928 14.27 48.0665 14.4586C48.028 14.7346 47.9887 15.0175 48.1258 15.178L48.1643 15.2166C48.3949 15.2166 48.7411 14.6764 48.7411 14.5608C48.7411 14.5156 48.6619 14.391 48.5963 14.2878C48.5499 14.2148 48.5102 14.1525 48.5102 14.1365C48.5283 14.1006 48.5463 14.0898 48.5682 14.0768C48.5932 14.0619 48.6233 14.044 48.6644 13.9823C48.7026 13.9437 48.7026 13.8281 48.7026 13.7895C48.7411 13.5583 49.7415 12.7484 49.9335 12.6328C50.2415 12.44 50.0106 12.2085 50.0106 12.2085C49.6259 11.7459 49.9721 11.206 50.0106 11.1674ZM44.1634 9.77918C45.0481 8.89227 46.3176 8.69944 46.3176 8.69944L46.7794 9.5094V10.9362C46.1253 10.9362 45.7405 10.8589 45.4329 10.7817C45.4329 10.7945 45.4029 10.9276 45.363 11.1049C45.2833 11.4591 45.1637 11.9901 45.1637 12.0929C45.202 12.2857 45.1637 12.9028 45.1252 13.0184C45.0096 13.4041 45.0481 14.2523 45.202 14.6766C45.2405 14.7922 45.1637 14.9081 45.0867 14.985C45.0565 15.0002 45.0264 15.0034 44.9986 15.0065C44.9554 15.0112 44.9178 15.0153 44.8943 15.0623C44.8419 15.1149 44.8611 15.1855 44.8785 15.2495C44.8866 15.2793 44.8943 15.3076 44.8943 15.3321C44.9328 15.6022 43.971 15.7947 44.0096 15.6022C44.0395 15.3626 44.2082 15.1698 44.3363 15.0234C44.3733 14.9811 44.4069 14.9427 44.4328 14.9081C44.4457 14.8823 44.4585 14.8522 44.4713 14.8222L44.4714 14.822C44.497 14.7621 44.5225 14.7023 44.5481 14.6766C44.702 14.5224 44.702 13.2885 44.5481 12.9415C44.5481 12.9415 44.4328 12.3626 44.4714 12.2084C44.5 12.0353 44.3992 11.732 44.3146 11.4774L44.3145 11.4772C44.2862 11.392 44.2597 11.3122 44.2405 11.2446C44.279 11.2446 45.3561 10.7047 44.8943 10.0876C44.8176 10.7433 43.7404 11.1673 42.2401 11.7458C41.8168 11.9 41.8939 13.5969 42.2401 13.7511C42.3168 13.7897 42.3554 13.8667 42.3554 13.9439C42.3168 14.0981 42.3168 14.1368 42.5863 14.0981C43.1248 13.9826 42.8942 14.9081 42.7401 14.985C42.5092 14.985 42.0092 14.3682 41.8939 14.2137C41.8939 14.2137 41.6244 14.0212 41.6244 13.6738C41.6244 13.4775 41.5829 13.1214 41.541 12.7618L41.541 12.7617L41.5409 12.7617C41.4841 12.2739 41.4264 11.7796 41.4706 11.6686C41.5479 11.4877 42.0228 11.0989 42.3971 10.7925L42.3971 10.7925L42.3972 10.7924C42.5813 10.6417 42.741 10.5109 42.8171 10.4346C42.8557 10.3963 42.8942 10.3577 42.8942 10.2804C42.8942 10.1813 42.8422 10.0821 42.7821 9.96752C42.6788 9.77046 42.5517 9.52803 42.6248 9.16236C43.7787 8.62219 45.0096 7.69665 45.6638 7.11846C45.7004 7.11846 45.7811 7.13602 45.8847 7.15858C45.9979 7.18324 46.1385 7.21386 46.2791 7.23404V8.31378C45.5867 8.39072 44.4714 9.12374 44.0866 9.62498C44.0481 9.70192 44.0481 9.77918 44.0481 9.77918C44.0481 9.77918 44.0866 9.85644 44.1634 9.77918ZM49.5491 10.4733C49.1258 9.77925 48.972 9.47054 48.9335 9.2777C48.3564 8.89235 47.7411 8.73814 47.5872 8.73814C47.4716 8.93067 47.164 9.50916 47.164 9.50916V10.9363C47.4553 10.8945 47.7465 10.7775 48.036 10.6613C48.5494 10.4552 49.057 10.2514 49.5491 10.4733ZM52.9415 10.5296C52.7057 10.5083 52.5592 10.4951 52.3188 10.4348C53.2806 9.04665 52.3573 7.85134 52.0493 7.61988C52.8191 7.88966 53.3959 8.35258 53.1653 10.5507C53.081 10.5422 53.0078 10.5356 52.9417 10.5296L52.9416 10.5296L52.9415 10.5296ZM42.3992 6.14005C42.4829 6.10265 42.5543 6.07071 42.5862 6.03873C42.7401 6.34745 42.6633 7.11847 42.5092 7.54276C42.2401 7.69697 41.5091 8.31378 41.3553 8.50662V8.46799C41.3553 8.07618 41.5865 7.58497 41.7838 7.16562C41.9553 6.80109 42.1013 6.49087 42.0477 6.34745C42.1378 6.2569 42.2808 6.193 42.3992 6.14005ZM39.9704 7.3883C39.9704 7.3883 39.9704 7.42693 40.0089 7.50388C40.017 7.5321 40.0242 7.55865 40.031 7.58354C40.0889 7.79686 40.1141 7.88954 40.3551 7.88954L40.3664 7.88984C40.4533 7.89269 40.93 7.90837 40.8937 7.58113C40.8937 7.56688 40.9146 7.54742 40.9391 7.52465C40.981 7.4857 41.0333 7.43706 41.009 7.3883C41.009 7.27242 40.9705 7.31104 40.9705 7.31104C40.7784 7.34967 40.1628 7.42693 39.9704 7.3883ZM42.4708 10.3192C42.2784 9.89488 42.0861 9.47058 42.5093 7.92823C42.1631 8.19801 41.586 8.73819 41.4322 9.00797C41.3284 9.32016 41.5048 9.61489 41.6424 9.84469C41.7086 9.95542 41.7659 10.0511 41.7784 10.1263C41.8107 10.4174 40.5171 10.8441 40.0536 10.997C39.9644 11.0264 39.906 11.0456 39.8936 11.0519C39.7395 11.1288 39.6242 11.3217 39.6242 11.4759C39.6242 11.5664 39.4919 11.9618 39.3825 12.2889C39.3053 12.5197 39.2394 12.7166 39.2394 12.7484C39.2012 12.8643 39.0856 13.5584 39.0856 13.5584C39.1242 13.7895 39.1242 14.4839 39.1242 14.4839C39.9704 14.2911 39.6627 13.6353 39.6242 13.6353C39.6242 13.6114 39.639 13.6023 39.6594 13.5897C39.6719 13.582 39.6866 13.573 39.7012 13.5584C39.7395 13.4811 39.778 13.3269 39.7395 13.2497C39.6242 13.0955 39.6627 13.0185 39.6627 13.0185C39.8165 12.4014 40.1627 11.5917 40.3936 11.4759C40.4282 11.4412 41.1237 11.3431 41.4556 11.2963L41.5475 11.2833C41.5907 11.1754 41.8869 10.8983 42.1326 10.6685C42.3258 10.4877 42.4878 10.3362 42.4708 10.3192ZM48.3565 10.9361C48.318 11.3604 48.7412 11.9772 48.9336 12.1701C48.9721 12.2473 49.0107 12.3629 49.0492 12.5174C49.0492 12.5431 48.9168 12.6372 48.7403 12.7627C48.3869 13.014 47.8565 13.3912 47.8565 13.5969L47.8567 13.6195L47.8572 13.6393L47.8577 13.655C47.8619 13.7801 47.865 13.872 47.6641 13.9056C47.5597 13.9056 47.7034 14.0655 47.8065 14.1802L47.8066 14.1802L47.8067 14.1803C47.8554 14.2345 47.895 14.2786 47.895 14.2909C47.895 14.4454 47.5488 14.9467 47.3179 14.9467C47.2794 14.9467 47.2408 14.9467 47.2408 14.9081C47.1339 14.715 47.1697 14.4624 47.2027 14.2297C47.2291 14.0441 47.2536 13.8711 47.2023 13.7514C47.2023 13.7514 47.1256 13.5585 47.5103 13.2498C47.5576 13.2024 47.6305 13.1387 47.7135 13.0661L47.7135 13.0661L47.7136 13.066C47.9681 12.8434 48.318 12.5374 48.318 12.3629C48.318 12.1585 48.1929 11.9989 48.059 11.828C47.9151 11.6442 47.7608 11.4473 47.7409 11.1676C47.7409 11.1676 48.0871 11.0134 48.3565 10.9361ZM43.0479 11.7459C43.1032 12.0503 43.2971 12.315 43.4305 12.4972L43.4306 12.4973C43.4831 12.569 43.5262 12.6279 43.5479 12.6714C43.6514 12.9568 43.7027 13.3294 43.7369 13.578C43.7536 13.6989 43.7662 13.7905 43.7788 13.8284C43.8173 14.291 43.5864 14.7153 43.3555 14.7536C43.2403 14.7922 42.9323 15.1779 42.9323 15.2549C43.0479 15.4477 43.7403 15.3321 43.7403 15.3321C43.8559 15.2935 43.8941 15.0237 43.8941 15.0237C43.7788 14.7153 44.0479 14.6767 44.0865 14.6767C44.3559 14.6767 44.2788 14.291 44.2788 14.291C44.2021 14.1368 44.0479 12.9798 44.1635 12.5172C44.2271 12.2617 44.1325 11.7679 44.0762 11.4743C44.0646 11.4135 44.0546 11.3613 44.0479 11.3216C43.9728 11.3539 43.9006 11.3863 43.8247 11.4202L43.8247 11.4203L43.8244 11.4204C43.6286 11.5081 43.4081 11.6069 43.0479 11.7459ZM51.8574 7.42685C51.8574 7.42685 51.7418 7.3499 51.7033 7.31127C52.2804 6.9256 53.7037 6.34711 54.8576 9.77916L53.6651 10.2035C53.6651 10.1951 53.6658 10.1795 53.6668 10.1574C53.6836 9.77539 53.785 7.46337 51.8574 7.42685ZM52.1649 14.2524C52.1585 14.2268 52.1426 14.18 52.121 14.1166C52.0125 13.7975 51.7608 13.0575 51.8573 12.4786C51.7802 12.44 51.434 12.2471 51.2802 12.1316C51.0493 12.0157 50.6263 11.7459 50.3183 11.4375C50.3183 11.4375 50.1645 11.6686 50.203 11.9387C51.1263 12.3244 51.6649 13.1727 51.6264 14.291C51.6264 14.5225 51.2416 14.9851 51.2416 14.9851C51.0107 15.2935 51.0107 15.4094 51.0107 15.4094C51.434 15.4864 51.8955 15.3708 51.8955 15.3708C51.934 15.3322 51.934 15.1393 51.8955 15.1007C51.6649 14.8695 51.934 14.7153 51.934 14.7153C52.0878 14.5994 52.2034 14.4452 52.1649 14.2524ZM41.1245 6.1928C41.2398 6.11554 41.6631 5.57567 41.7016 5.42147L41.3554 5.22864V5.19032C41.5478 4.80465 41.7016 4.57319 41.7016 4.57319H41.7401L42.1245 4.76602L42.2402 4.53456C42.0478 4.34173 41.586 4.30341 41.3939 4.30341C41.2783 4.49624 41.086 4.84328 41.086 5.03611C41.0474 5.30589 40.7398 5.88439 40.7398 5.88439L41.1245 6.1928ZM40.3934 6.26995C40.3934 6.193 40.4319 6.07711 40.4705 6.11574C40.7014 6.38583 41.0475 6.57866 41.2784 6.65561C41.3167 6.65561 41.3167 6.69424 41.2784 6.73287C41.2592 6.75218 41.2399 6.74253 41.2206 6.73287C41.2014 6.72321 41.1821 6.71355 41.1628 6.73287C41.0861 6.84844 40.9323 6.88707 40.8937 6.88707C40.7399 6.88707 40.6243 6.84844 40.5475 6.7715C40.4319 6.65561 40.4319 6.50141 40.4319 6.38583C40.4319 6.37145 40.4212 6.36242 40.4098 6.35277C40.3906 6.3365 40.3692 6.31844 40.3934 6.26995ZM42.7016 3.76349C43.4711 3.87937 44.0864 4.53482 44.3173 5.07469C44.3654 5.18718 44.4168 5.32312 44.4727 5.47064C44.6848 6.03105 44.9601 6.75856 45.3562 7.0027C45.3362 7.01772 45.2988 7.04827 45.246 7.09142C44.8911 7.38127 43.8401 8.23962 42.7016 8.77652L42.7109 8.73962C42.8178 8.31735 43.3712 6.13155 42.7016 5.46035C42.7016 5.46035 42.4707 5.73044 42.3554 5.80739C42.2563 5.87356 42.1643 5.91133 42.0673 5.95119C41.9382 6.00421 41.8001 6.06091 41.6245 6.19305C41.6021 6.20801 41.632 6.16909 41.6941 6.08818C41.9518 5.75275 42.7637 4.69564 42.7016 3.76349ZM39.2011 4.88174C39.2396 4.80449 39.3934 4.61165 39.4702 4.57333C39.3549 4.49608 39.0087 4.34187 38.8546 4.34187C38.8546 4.34187 39.0087 4.68891 39.2011 4.88174ZM64.8213 8.08246H65.8214V4.92051H63.8595V8.08246H64.8213ZM65.2828 8.66093C65.2828 8.66093 65.3213 8.6223 65.3213 8.50672V8.39084H64.4751V8.50672C64.4751 8.58367 64.5133 8.66093 64.5133 8.66093H64.8981H65.2828ZM63.4748 4.5348H66.2061V11.0516C65.7443 11.2444 64.8595 11.2444 64.8595 11.2444C64.321 11.2444 63.898 11.1674 63.4748 11.0516V4.5348ZM61.936 5.96161L62.013 4.80461H61.5898L61.6665 5.96161H61.936ZM64.8213 11.6304C66.129 11.6304 67.0909 11.1675 67.0909 11.1675C67.0909 11.1675 67.5524 9.3164 69.168 8.27528L68.8218 8.0055H66.5138V4.14916H63.0515V8.04382H60.7049V8.27528C60.7049 10.4734 62.5897 11.2447 63.0898 11.3989C63.6286 11.5918 64.2057 11.6304 64.8213 11.6304ZM65.0519 12.7485C65.0905 12.7485 65.0905 12.7098 65.0905 12.6715L65.129 11.9002C65.0134 11.9388 64.629 11.9388 64.4751 11.9002L64.5134 12.6715C64.5134 12.7098 64.5134 12.7485 64.5519 12.7485H65.0519ZM61.705 4.30346C61.705 4.30346 61.705 4.45766 61.5511 4.45766H61.1664L61.3203 6.19285H61.3973C61.5897 6.19285 61.6282 6.38568 61.6282 6.38568L61.6664 6.57851H61.782L61.8206 6.38568C61.8206 6.38568 61.8588 6.19285 62.0512 6.19285H62.1282L62.2821 4.45766H62.0512C61.8588 4.45766 61.8588 4.30346 61.8588 4.30346C61.8588 4.30346 61.8588 4.22651 61.782 4.22651C61.705 4.22651 61.705 4.30346 61.705 4.30346ZM58.0121 8.39092C58.0507 8.54543 58.2816 9.35509 58.3583 9.54792C58.4967 9.27049 58.4797 8.96181 58.4749 8.87447L58.4742 8.86182L58.4739 8.85384V7.27255C58.4436 7.27255 58.3878 7.26805 58.3165 7.26231C58.0267 7.23895 57.4818 7.19502 57.3583 7.34981C57.243 7.54264 57.5121 7.73548 57.5121 7.73548C57.5121 7.73548 57.5892 7.65853 57.6274 7.65853C57.7045 7.69685 57.9354 8.19809 58.0121 8.39092ZM57.1509 9.90612C57.1886 9.88955 57.2264 9.87296 57.243 9.85637C57.5121 9.7408 57.8198 9.54796 57.3968 8.85389C57.368 8.81061 57.3014 8.72404 57.2233 8.62255C57.0929 8.453 56.9304 8.24181 56.8583 8.12119C56.8197 8.19813 55.8579 9.27787 55.8194 9.3165C56.2426 9.70217 56.6659 10.0106 57.0889 10.0878C57.0506 10.0492 57.0506 10.0106 57.0506 9.97195C57.0506 9.95009 57.1007 9.92813 57.1509 9.90612ZM70.2452 6.15442L70.3605 4.84322H69.7066L69.7834 6.15442H70.2452ZM58.8201 5.65326L58.974 4.95888L59.0507 4.88193L59.0628 4.86741L59.0507 4.84327L59.0604 4.78061C59.0642 4.8062 59.0692 4.83031 59.0748 4.85295L59.8202 3.95639C59.8202 3.95639 59.9355 4.18785 59.974 4.34206L59.9792 4.37035C60.0544 4.78401 60.127 5.18261 60.0893 6.53986C60.0893 6.84857 60.0125 7.19561 59.3587 7.31119H60.2049C60.2049 7.31119 60.2434 7.34981 60.2434 7.38844C60.2434 7.42707 60.2049 7.4657 60.2049 7.4657H60.0125C60.0125 7.50402 60.2049 7.96694 60.2817 8.12114C60.2817 8.15977 60.2817 8.19809 60.3587 8.19809C60.3751 8.19809 60.3846 8.19809 60.3929 8.19514C60.4042 8.19115 60.4137 8.18179 60.4358 8.15977C60.5511 8.00557 60.5511 7.50402 60.5511 7.4657V4.03365H60.4358C60.4358 4.03365 60.3973 3.99502 60.3973 3.95639V3.87944C60.3973 3.87944 62.1282 3.5321 64.8596 3.5321C67.6677 3.5321 69.3604 3.84082 69.3604 3.84082V3.91776C69.3604 3.95639 69.3219 3.99502 69.3219 3.99502H69.2066V5.22896H69.5142L69.4372 4.38069H69.7448C69.9372 4.38069 69.9372 4.18785 69.9372 4.18785C69.9372 4.18785 69.9757 4.07197 70.0528 4.07197C70.1681 4.07197 70.1681 4.18785 70.1681 4.18785C70.1681 4.18785 70.1681 4.38069 70.3604 4.38069H70.6681L70.5143 6.34733H70.399C70.2066 6.34733 70.1681 6.53986 70.1681 6.53986L70.1295 6.80994H70.0143L69.9757 6.53986C69.9757 6.53986 69.9372 6.34733 69.7448 6.34733H69.6295L69.591 5.49874H69.2448V7.50402C69.2448 7.73548 69.3986 7.92831 69.591 7.96694H69.9372L70.0999 7.95034C70.4953 7.90976 71.0642 7.85136 71.3993 7.85136C71.3993 7.85136 71.4764 7.85136 71.4764 7.96694C71.4764 8.08252 71.3993 8.08252 71.3993 8.08252C69.5142 8.08252 68.7062 9.085 68.3218 9.58655C67.6294 10.5118 67.4371 11.3604 67.4371 11.3604C67.3985 11.399 66.6291 11.7847 65.4367 11.8616L65.4752 12.6329C65.4752 12.6716 65.4752 12.7099 65.5137 12.7099H66.3985V12.8258C66.3985 12.8644 66.3599 12.9027 66.3599 12.9027C66.3599 12.9027 66.2829 13.0569 66.2443 13.0569H63.6286L63.5133 12.9027V12.8258V12.7099H64.321C64.3595 12.7099 64.3595 12.6716 64.3595 12.6329L64.3981 11.8616C63.2439 11.746 62.3974 11.399 61.6664 11.0133C61.6097 10.9817 61.5447 10.9387 61.4694 10.8889C61.0852 10.6348 60.4331 10.2034 59.2431 10.2034C58.3621 10.2034 57.6637 10.4324 56.9477 10.6671C56.1944 10.9141 55.4216 11.1675 54.3961 11.1675C53.2804 11.1675 52.4342 10.9361 52.0495 10.8205C52.088 11.0516 52.5113 11.8233 53.0498 11.9775C53.2804 12.0544 53.3189 12.3245 53.2804 12.5557C53.2804 12.5557 53.3189 14.3295 53.4345 14.6382C53.4728 14.7538 53.3575 14.908 53.2036 14.908C53.1266 14.908 52.9727 15.0239 53.0498 15.1394C53.0498 15.1394 53.1266 15.1781 53.1266 15.2167C53.1651 15.255 53.1266 15.4479 53.088 15.4865C53.0498 15.5251 53.0113 15.5251 52.9342 15.5251C52.7804 15.5637 52.3574 15.5251 52.3189 15.4479C52.2488 15.3309 52.4618 15.058 52.649 14.8183L52.649 14.8182L52.6491 14.8181L52.6491 14.8181C52.7704 14.6626 52.8808 14.5212 52.896 14.4454C52.9727 14.1367 52.9727 13.327 52.8189 12.8258C52.7191 12.5254 52.3442 12.2941 51.8708 12.0019C51.0675 11.5061 49.9805 10.8351 49.4723 9.35509C51.2032 10.3576 52.7422 10.8205 54.3961 10.8588C55.5502 10.8588 56.3965 10.5504 57.1274 10.2806C56.3965 10.1264 55.7423 9.43234 55.2037 8.85385C54.9732 8.62239 54.7423 8.39092 54.5499 8.19809C54.5499 8.19809 54.5114 8.15977 54.5499 8.12114C54.5884 8.08252 54.6655 8.08252 54.6655 8.08252C54.723 8.12107 54.771 8.16916 54.8189 8.21727C54.8671 8.26558 54.9152 8.3139 54.9732 8.35261C54.9732 8.31428 55.0111 8.27596 55.049 8.23764L55.0499 8.23672C55.0883 8.19825 55.2028 8.31306 55.2418 8.35214L55.2423 8.35261C55.3579 8.46818 55.627 8.54544 55.7423 8.46818C55.8194 8.42955 56.0503 8.19809 56.1273 8.00557C56.15 7.91406 56.3083 7.59163 56.4494 7.30428L56.4494 7.3041L56.4495 7.30401C56.5461 7.10723 56.6346 6.92694 56.6659 6.84857C56.743 6.65574 57.7815 6.50154 58.0507 6.46291V6.34733C58.166 6.3087 58.7431 6.23145 58.7431 6.23145V6.19282H57.8583V5.73021L58.8201 5.65326ZM59.1074 4.47455L59.0604 4.78061C59.0543 4.74078 59.0507 4.69739 59.0507 4.65044C59.0507 4.55954 59.0775 4.5088 59.1074 4.47455ZM59.1227 4.37519L59.1663 4.41898C59.1604 4.42496 59.1535 4.43095 59.1461 4.43736C59.1339 4.44794 59.1203 4.4597 59.1074 4.47455L59.1227 4.37519ZM59.193 4.19347L59.2049 4.26477L59.1278 4.34172L59.1227 4.37519L59.0893 4.34172C59.0125 4.3034 59.0893 4.22615 59.1278 4.22615L59.193 4.19347ZM59.1849 4.14495L59.2049 4.1492V4.18752L59.193 4.19347L59.1849 4.14495ZM59.1849 4.14495C59.1347 4.1339 59.0049 4.10292 58.974 4.07194C58.9354 4.03331 58.9354 3.91774 58.9354 3.87911L58.8969 3.84048V3.72491C58.8969 3.68628 58.8201 3.68628 58.8201 3.68628C58.7606 3.6664 58.8031 3.59552 58.8479 3.52087C58.8901 3.45048 58.9343 3.37673 58.8969 3.33924C58.8617 3.28624 58.7941 3.20886 58.7312 3.13689L58.7311 3.13684C58.6569 3.05189 58.5892 2.97448 58.5892 2.95357L58.6278 2.87663H58.7431C58.8527 2.90394 59.021 2.89232 59.1505 2.88339C59.2026 2.87979 59.2485 2.87663 59.2816 2.87663C59.5893 2.79937 60.0893 3.03083 60.0125 3.37787L60.0095 3.38089C59.9649 3.42562 59.7807 3.61024 59.7431 3.64765C59.7014 3.68966 59.6823 3.70883 59.6798 3.72995C59.6777 3.74766 59.6873 3.76675 59.7049 3.80185L59.1663 4.03331L59.1849 4.14495ZM41.3938 3.76346C40.4705 3.72483 40.0472 4.18775 40.0472 4.18775C40.0472 4.18775 40.3549 4.53479 40.432 4.65036C40.598 4.88355 40.592 5.1165 40.5873 5.29991V5.30011V5.30031V5.3005C40.5865 5.32931 40.5858 5.3569 40.5858 5.38306C40.6722 5.26182 40.7043 5.10157 40.7413 4.91635C40.7866 4.68945 40.8395 4.42509 41.009 4.14912C41.1243 3.99492 41.2782 3.87934 41.4323 3.84071C41.4102 3.81851 41.4007 3.80907 41.3967 3.79772C41.3938 3.78932 41.3938 3.77988 41.3938 3.76346ZM58.7816 13.4041L57.5121 14.7153C57.1659 14.3296 56.9735 13.8667 56.935 13.3654L58.7816 13.4041ZM59.0125 12.9026V12.9412L57.7045 11.6686C58.0892 11.3216 58.5507 11.1287 59.0507 11.1287L59.0125 12.9026ZM58.9739 13.6355L59.0125 15.4476C58.5121 15.4093 58.0506 15.2165 57.6659 14.8694L58.9739 13.6355ZM58.7816 13.0954L56.9735 13.134C56.9735 12.8651 57.0501 12.6343 57.1266 12.4036L57.1274 12.4013C57.2043 12.1704 57.3576 11.9782 57.5111 11.7858L57.5121 11.7845L58.7045 13.0184L58.7816 13.0954ZM60.7434 14.7153L59.5125 13.4041L61.3202 13.3654C61.282 13.7511 61.1664 14.1368 60.9358 14.4838C60.8976 14.5601 60.8214 14.6368 60.7453 14.7134L60.7434 14.7153ZM61.3202 13.1727L59.5125 13.134L60.7817 11.8232C61.1282 12.2085 61.3202 12.6714 61.3202 13.1727ZM59.2816 13.6738V13.6355L60.5896 14.9081C60.2049 15.2548 59.7431 15.4476 59.2431 15.4476L59.2816 13.6738ZM59.3201 12.8642L59.2816 12.9026L59.2431 11.0904C59.7431 11.1287 60.2049 11.3216 60.5896 11.6686L59.3201 12.8642ZM59.1278 10.7047C57.7045 10.7047 56.5503 11.8614 56.5503 13.2882C56.5503 14.7153 57.7045 15.872 59.1278 15.872C60.5511 15.872 61.705 14.7153 61.705 13.2882C61.705 11.8614 60.5511 10.7047 59.1278 10.7047ZM70.8991 12.4401L68.1681 12.4014V12.4787C68.2063 13.2114 68.5143 13.9438 69.0143 14.4837L70.9376 12.5173V12.4787C70.9376 12.4594 70.9376 12.4497 70.9328 12.4449C70.928 12.4401 70.9183 12.4401 70.8991 12.4401ZM70.8991 12.0545L70.8605 12.0159L68.9757 10.0879C68.4372 10.6278 68.1681 11.3605 68.1295 12.1315L70.8605 12.0929C70.8605 12.0929 70.9376 12.0929 70.8991 12.0545ZM71.1682 12.7486C71.1682 12.71 71.13 12.71 71.13 12.71L69.1681 14.6383C69.7449 15.1395 70.4758 15.4479 71.2067 15.4866L71.1682 12.7486ZM71.1682 11.8229C71.2067 11.8616 71.2067 11.7843 71.2067 11.7843L71.2453 9.04664C70.4758 9.08496 69.7834 9.35505 69.2066 9.89492L71.1682 11.8229ZM74.5922 12.4401L71.8223 12.4787L73.746 14.4837C74.246 13.9055 74.5537 13.2114 74.5922 12.4401ZM73.746 10.0879L71.8223 12.0929L74.5922 12.1315C74.5537 11.3988 74.246 10.6664 73.746 10.0879ZM71.5529 12.7486C71.5144 12.71 71.5144 12.7486 71.5144 12.7486C71.5144 12.7486 71.5144 15.4866 71.4762 15.5249C72.2456 15.4866 72.938 15.1779 73.5151 14.6766L71.5529 12.7486ZM71.5915 11.7844L73.5537 9.85641C73.0151 9.35517 72.2842 9.04676 71.5144 9.00813L71.5529 11.7844V11.8231L71.5915 11.7844ZM68.8219 9.70217C69.5143 9.0081 70.399 8.62243 71.3606 8.62243C73.3613 8.62243 74.977 10.242 75.0152 12.2473C75.0152 14.2526 73.3998 15.8719 71.3991 15.8719C70.4758 15.8719 69.6296 15.5249 68.9372 14.908L68.8987 14.8694C68.8731 14.8436 68.8475 14.8179 68.8217 14.7922C68.809 14.7794 68.7962 14.7667 68.7834 14.7538C68.1295 14.0598 67.7833 13.1728 67.7833 12.2473C67.7833 11.2831 68.1295 10.3962 68.8219 9.70217Z" fill="#3A4850"/>
</svg>
