<svg width="135" height="27" viewBox="0 0 135 27" fill="none" xmlns="http://www.w3.org/2000/svg">
<path fill-rule="evenodd" clip-rule="evenodd" d="M48.5633 13.7034C48.5633 7.46485 53.6538 2.39102 59.9101 2.39102C66.1671 2.39102 71.2566 7.46485 71.2566 13.7034C71.2566 19.9416 66.1671 25.0154 59.9101 25.0154C53.6538 25.0154 48.5633 19.9416 48.5633 13.7034ZM46.8433 13.7032C46.8433 20.887 52.705 26.7311 59.9101 26.7311C67.1151 26.7311 72.9773 20.887 72.9773 13.7032C72.9773 6.5198 67.1151 0.674927 59.9101 0.674927C52.705 0.674927 46.8433 6.5198 46.8433 13.7032Z" fill="#3A4850"/>
<path fill-rule="evenodd" clip-rule="evenodd" d="M61.7942 14.1234H64.9755C65.9192 14.1234 66.4786 14.2976 66.839 15.14C67.1368 14.4215 67.6465 14.1365 68.5176 14.1234H68.8517V18.3118H64.7143C65.1005 17.9768 65.2981 17.5429 65.2981 17.0359C65.2981 16.1178 64.5777 15.4373 63.5585 15.4373C62.4044 15.4373 61.7197 16.1178 61.7197 17.0359C61.7197 17.6545 62.0437 18.1006 62.6641 18.3118C62.0553 18.608 61.7197 19.1288 61.7197 19.7738C61.7197 20.7904 62.4527 21.3333 63.9072 21.3333C64.0805 21.3333 64.2802 21.3209 64.4909 21.3094V22.7207H61.7942C60.8123 22.7207 60.2783 22.5233 59.9311 21.6925C59.5823 22.5233 59.0484 22.7207 58.0665 22.7207H55.3697V21.3094C55.5815 21.3209 55.7798 21.3333 55.9662 21.3333C57.4076 21.3333 58.154 20.7904 58.154 19.7738C58.154 19.1288 57.8057 18.608 57.1958 18.3118C57.8184 18.1006 58.1406 17.6545 58.1406 17.0359C58.1406 16.1178 57.4697 15.4373 56.3145 15.4373C55.2949 15.4373 54.5749 16.1178 54.5749 17.0359C54.5749 17.5429 54.7613 17.9768 55.146 18.3118H51.0093V14.1234H51.3435C52.2131 14.1365 52.7231 14.4215 53.022 15.14C53.3697 14.3096 53.904 14.1234 54.8852 14.1234H58.0665C58.9862 14.1234 59.5573 14.2726 59.9311 15.14C60.2783 14.3096 60.8123 14.1234 61.7942 14.1234Z" fill="#3A4850"/>
<path fill-rule="evenodd" clip-rule="evenodd" d="M58.0262 13.2833H54.8456C53.9015 13.2833 53.3421 13.1091 52.9818 12.2664C52.6832 12.9852 52.1743 13.2692 51.3039 13.2833H50.9683V9.09566H55.1068C54.721 9.42993 54.5223 9.86416 54.5223 10.3715C54.5223 11.2878 55.243 11.969 56.2626 11.969C57.4174 11.969 58.0999 11.2878 58.0999 10.3715C58.0999 9.75189 57.7781 9.30607 57.1559 9.09566C57.7654 8.79833 58.0999 8.27791 58.0999 7.63254C58.0999 6.61705 57.3676 6.07273 55.9139 6.07273C55.7403 6.07273 55.5409 6.08504 55.3305 6.09808V4.68494H58.0262C59.0081 4.68494 59.5428 4.88449 59.8904 5.71419C60.2384 4.88449 60.7724 4.68494 61.7542 4.68494H64.451V6.09808C64.2396 6.08504 64.0405 6.07273 63.8531 6.07273C62.4132 6.07273 61.6663 6.61705 61.6663 7.63254C61.6663 8.27791 62.0154 8.79833 62.6239 9.09566C62.0023 9.30607 61.6798 9.75189 61.6798 10.3715C61.6798 11.2878 62.3511 11.969 63.5062 11.969C64.5251 11.969 65.2454 11.2878 65.2454 10.3715C65.2454 9.86416 65.0595 9.42993 64.6733 9.09566H68.8115V13.2833H68.4758C67.6062 13.2692 67.0984 12.9852 66.7991 12.2664C66.4522 13.0961 65.9175 13.2833 64.9356 13.2833H61.7542C60.8352 13.2833 60.2627 13.1341 59.8904 12.2664C59.5428 13.0961 59.0081 13.2833 58.0262 13.2833Z" fill="#3A4850"/>
<path fill-rule="evenodd" clip-rule="evenodd" d="M9.94483 9.14685V10.8287H6.53209V18.3464H4.20548V10.8287H0.780029V9.14685H9.94483Z" fill="#3A4850"/>
<path fill-rule="evenodd" clip-rule="evenodd" d="M14.401 10.8138C12.6894 11.5689 12.5579 13.1993 12.5579 13.8114C12.5579 13.9953 12.5713 14.5936 12.8063 15.1405C12.8721 15.31 12.9513 15.4805 13.1598 15.767C13.2252 15.8456 13.3952 16.0915 13.6306 16.2878C13.9967 16.6 14.7032 16.9911 15.8402 16.9911C16.0483 16.9911 16.5979 16.9792 17.173 16.7698C18.9903 16.1194 19.1472 14.3332 19.1472 13.7599C19.1472 13.3699 19.0822 12.3653 18.3227 11.5178C17.6699 10.8138 16.6895 10.4755 15.7341 10.515C15.5264 10.515 14.9771 10.5671 14.401 10.8138ZM19.0553 9.51111C19.1995 9.58753 19.4611 9.71935 19.7873 9.95331C20.0485 10.15 20.3107 10.3839 20.5196 10.645C20.9112 11.1006 21.4996 12.1172 21.4996 13.6549C21.4996 13.8382 21.4873 14.3209 21.3954 14.828C21.2646 15.4418 20.9112 16.7698 19.5134 17.7071C18.8719 18.1247 17.6961 18.6476 15.8653 18.6476C13.1216 18.6476 11.6697 17.5387 11.0032 16.5609C10.689 16.1194 10.179 15.1532 10.179 13.7469C10.179 11.6218 11.212 10.515 11.8917 9.99278C12.8986 9.22319 14.2444 8.89834 15.4857 8.85995C16.6368 8.80671 18.0226 9.00083 19.0553 9.51111Z" fill="#3A4850"/>
<path fill-rule="evenodd" clip-rule="evenodd" d="M25.7212 13.017H29.4213C29.4344 13.017 29.7998 13.017 29.9967 12.9776C30.2706 12.8997 30.8071 12.6781 30.8071 11.9233C30.8071 11.8321 30.794 11.492 30.624 11.2312C30.337 10.7898 29.827 10.7757 29.3566 10.7615H25.7212V13.017ZM29.7751 9.14673C30.5714 9.15977 30.9255 9.19888 31.3048 9.31441C32.4926 9.66679 33.1457 10.6852 33.1457 11.8948C33.1457 12.1309 33.1334 12.5883 32.8994 13.1084C32.4802 14.0485 31.6825 14.3336 30.741 14.502L33.5511 18.3466H30.8202L28.3628 14.6461H25.7212V18.3466H23.4211V9.14673H29.7751Z" fill="#3A4850"/>
<path fill-rule="evenodd" clip-rule="evenodd" d="M36.1403 9.14685L38.5966 12.6131C38.7285 12.7826 38.7928 12.8735 38.8589 13.0694C38.8992 12.9654 38.9359 12.8735 39.0826 12.6783L41.5916 9.14685H44.4006L39.9958 14.8939V18.3464H37.6965V14.8939L33.3022 9.14685H36.1403Z" fill="#3A4850"/>
<path fill-rule="evenodd" clip-rule="evenodd" d="M79.1099 16.8239H82.5884C82.8488 16.8239 83.1245 16.8239 83.385 16.7337C83.6996 16.6294 84.0919 16.3303 84.0919 15.5741C84.0919 15.4676 84.0664 15.0512 83.8169 14.7665C83.5557 14.4779 83.2273 14.4645 82.8612 14.4529L79.1099 14.4645V16.8239ZM79.1099 12.8487H82.4166C82.8612 12.8487 83.3091 12.8487 83.5557 12.4069C83.6996 12.1715 83.6996 11.9122 83.6996 11.8213C83.6996 11.7412 83.6996 11.5602 83.6218 11.3646C83.4006 10.779 82.7457 10.8297 82.6 10.8297H79.1099V12.8487ZM82.8082 9.24011C83.5041 9.25315 84.2474 9.26474 84.8765 9.58959C85.3077 9.82645 85.9212 10.3331 85.9212 11.4938C85.9212 11.8962 85.8417 12.8099 84.81 13.2927C84.7189 13.331 84.6026 13.3843 84.3927 13.4495C84.81 13.5527 84.9655 13.6041 85.1762 13.7084C86.3262 14.2821 86.3913 15.3649 86.3913 15.7944C86.3913 16.1461 86.3662 17.2166 85.465 17.8946C84.7704 18.4281 83.9735 18.4397 83.1634 18.4397H76.824V9.24011H82.8082Z" fill="#3A4850"/>
<path fill-rule="evenodd" clip-rule="evenodd" d="M90.8097 9.23999V14.66C90.837 15.3648 90.9147 15.9522 91.5421 16.3948C92.274 16.9156 93.3343 16.8906 93.5421 16.8906C93.7114 16.8906 94.626 16.8906 95.269 16.5255C95.6983 16.2894 95.9098 15.9649 96.0013 15.7947C96.1059 15.5854 96.1313 15.4285 96.1568 14.9871V9.23999H98.4561V14.5949C98.4445 15.4557 98.4445 16.1735 97.9861 16.9156C97.9094 17.034 97.726 17.3078 97.4383 17.5682C96.4441 18.454 94.7971 18.7524 93.5287 18.7524C93.2297 18.7524 92.5228 18.7405 91.7248 18.5714C89.8813 18.1665 89.0977 17.2165 88.7686 16.4589C88.5743 16.0037 88.5227 15.5854 88.51 14.5825V9.23999H90.8097Z" fill="#3A4850"/>
<path fill-rule="evenodd" clip-rule="evenodd" d="M103.387 13.1096H107.086C107.098 13.1096 107.465 13.1096 107.662 13.0708C107.933 12.993 108.469 12.7706 108.469 12.0159C108.469 11.9242 108.459 11.5845 108.289 11.3234C108 10.8823 107.49 10.8682 107.019 10.8541H103.387V13.1096ZM107.437 9.23926C108.237 9.25302 108.589 9.29068 108.967 9.40694C110.156 9.75932 110.81 10.7784 110.81 11.9877C110.81 12.2242 110.799 12.6801 110.562 13.2009C110.145 14.1407 109.348 14.4254 108.404 14.5949L111.216 18.4395H108.484L106.026 14.739H103.387V18.4395H101.084V9.23926H107.437Z" fill="#3A4850"/>
<path fill-rule="evenodd" clip-rule="evenodd" d="M120.51 12.1319C120.368 11.9124 120.106 11.5065 119.583 11.1548C119.279 10.9592 118.654 10.6456 117.738 10.6456C117.503 10.6456 116.916 10.6608 116.301 10.9205C115.099 11.4152 114.458 12.5611 114.458 13.854C114.458 14.491 114.654 15.1947 115.033 15.7285C115.112 15.8466 115.309 16.0805 115.608 16.3163C115.961 16.6017 116.668 17.0587 117.803 17.0587C119.151 17.0587 119.868 16.497 120.235 16.0689C120.392 15.8987 120.496 15.7285 120.707 15.3385L123.137 15.3109C123.01 15.7807 122.93 15.952 122.812 16.1841C122.666 16.4717 122.419 16.8903 121.856 17.3861C121.098 18.0492 119.884 18.7518 117.608 18.7518C117.086 18.7518 115.257 18.7402 113.819 17.6726C112.143 16.4351 112.065 14.5048 112.065 13.8275C112.065 12.8888 112.286 11.9124 112.81 11.1287C112.994 10.8546 113.164 10.6608 113.398 10.437C113.714 10.1382 113.869 10.0339 114.054 9.91731C114.654 9.51278 115.895 8.95325 117.738 8.95325C118.249 8.95325 120.026 9.00322 121.465 9.95425C122.25 10.4888 122.679 11.1287 122.85 11.4275C122.915 11.5597 122.982 11.6883 123.033 11.8205L120.51 12.1319Z" fill="#3A4850"/>
<path fill-rule="evenodd" clip-rule="evenodd" d="M126.812 9.23999V12.7855H132.381V9.23999H134.694V18.4395H132.381V14.4913H126.812V18.4395H124.497V9.23999H126.812Z" fill="#3A4850"/>
</svg>
