<svg width="135" height="14" viewBox="0 0 135 14" fill="none" xmlns="http://www.w3.org/2000/svg">
<path fill-rule="evenodd" clip-rule="evenodd" d="M7.21873 8.90463H5.02525V13.1035H7.3185C8.71417 13.1035 10.3094 12.8038 10.3094 11.1043C10.3094 9.10435 9.0135 8.90463 7.21873 8.90463ZM6.82002 4.90546H5.02525V8.40476H7.3185C8.61479 8.40476 9.61175 8.20464 9.61175 6.60448C9.61175 5.10558 8.61479 4.90546 6.82002 4.90546ZM8.61479 13.5038H0.23999V13.1035H2.43347V4.90542H0.23999V4.40552H7.71721C10.1098 4.40552 11.9046 5.10554 11.9046 6.60444C11.9046 7.90482 10.4092 8.60444 8.51502 8.60444C10.8079 8.60444 12.8018 9.50457 12.8018 11.1043C12.8018 12.3035 11.4057 13.5038 8.61479 13.5038Z" fill="#3A4850"/>
<path fill-rule="evenodd" clip-rule="evenodd" d="M56.1699 8.90463H53.9764V13.1035H56.2693C57.6653 13.1035 59.1604 12.8038 59.1604 11.1043C59.1604 9.10435 57.9647 8.90463 56.1699 8.90463ZM55.7708 4.90546H53.9764V8.40476H56.2693C57.566 8.40476 58.5629 8.20464 58.5629 6.60448C58.5629 5.10558 57.566 4.90546 55.7708 4.90546ZM57.566 13.5038H49.1912V13.1035H51.3846V4.90542H49.1912V4.40552H56.6684C59.061 4.40552 60.8558 5.10554 60.8558 6.60444C60.8558 7.90482 59.3599 8.60444 57.4662 8.60444C59.7587 8.60444 61.7534 9.50457 61.7534 11.1043C61.7534 12.3035 60.3573 13.5038 57.566 13.5038Z" fill="#3A4850"/>
<path fill-rule="evenodd" clip-rule="evenodd" d="M28.0555 4.9053V10.5043C28.0555 12.8036 26.1606 13.8038 23.0707 13.8038C20.8773 13.8038 17.4873 13.2035 17.4873 10.6043V4.9053H15.2942V4.4054H22.3727V4.9053H20.0798V10.6043C20.0798 12.8036 21.8742 13.1034 23.5692 13.1034C25.6625 13.1034 27.5571 12.4042 27.5571 10.5043V4.9053H25.2642V4.4054H30.3488V4.9053H28.0555Z" fill="#3A4850"/>
<path fill-rule="evenodd" clip-rule="evenodd" d="M39.0221 4.90534H37.1279V8.5043H39.1219C40.6173 8.5043 41.7136 8.20452 41.7136 6.70522C41.7136 5.30518 40.9162 4.90534 39.0221 4.90534ZM45.5027 13.8038C44.0069 13.8038 42.2121 13.1034 42.2121 11.2039V10.6043C42.2121 9.50445 41.2156 9.00415 39.7201 9.00415H37.1279V13.1034H39.2216V13.5036H32.3423V13.1034H34.5358V4.9053H32.3423V4.4054H40.0191C42.7106 4.4054 44.3058 5.40519 44.3058 6.70517C44.3058 7.90469 42.9102 8.80443 40.9162 8.80443C43.7076 8.80443 44.9041 10.0044 44.9041 11.3039V12.3037C44.9041 12.9037 45.2034 13.3035 45.9015 13.3035C46.3995 13.3035 46.6989 13.1034 46.8976 12.9037L47.1969 13.3035C46.7982 13.6037 46.3002 13.8038 45.5027 13.8038Z" fill="#3A4850"/>
<path fill-rule="evenodd" clip-rule="evenodd" d="M104.722 4.90534H102.828V8.5043H104.822C106.318 8.5043 107.513 8.20452 107.513 6.70522C107.513 5.30518 106.616 4.90534 104.722 4.90534ZM111.203 13.8038C109.707 13.8038 108.012 13.1034 108.012 11.2039V10.6043C108.012 9.50445 106.916 9.00415 105.42 9.00415H102.828V13.1034H104.921V13.5036H98.0425V13.1034H100.236V4.9053H98.0425V4.4054H105.819C108.411 4.4054 110.106 5.40519 110.106 6.70517C110.106 7.90469 108.61 8.80443 106.616 8.80443C109.507 8.80443 110.604 10.0044 110.604 11.3039V12.3037C110.604 12.9037 111.003 13.3035 111.601 13.3035C112.1 13.3035 112.399 13.1034 112.698 12.9037L112.897 13.3035C112.498 13.6037 112 13.8038 111.203 13.8038Z" fill="#3A4850"/>
<path fill-rule="evenodd" clip-rule="evenodd" d="M87.8734 4.90534H85.9789V8.5043H87.9732C89.4686 8.5043 90.565 8.20452 90.565 6.70522C90.565 5.30518 89.6682 4.90534 87.8734 4.90534ZM94.3537 13.8038C92.8582 13.8038 91.0635 13.1034 91.0635 11.2039V10.6043C91.0635 9.50445 89.9671 9.00415 88.4717 9.00415H85.9789V13.1034H88.073V13.5036H81.1936V13.1034H83.3871V4.9053H81.1936V4.4054H88.8704C91.5619 4.4054 93.1572 5.40519 93.1572 6.70517C93.1572 7.90469 91.6617 8.80443 89.7676 8.80443C92.5593 8.80443 93.7554 10.0044 93.7554 11.3039V12.3037C93.7554 12.9037 94.0547 13.3035 94.7524 13.3035C95.2509 13.3035 95.5502 13.1034 95.7489 12.9037L95.9485 13.3035C95.5502 13.6037 95.1515 13.8038 94.3537 13.8038Z" fill="#3A4850"/>
<path fill-rule="evenodd" clip-rule="evenodd" d="M64.7437 13.5038V13.1035H67.0373V4.90542H64.7437V4.40552H76.8074V7.30486H76.3089C76.3089 6.10494 75.4113 4.90542 73.1185 4.90542H69.5293V8.60444H70.925C72.62 8.60444 73.1185 7.7047 73.1185 6.90462H73.6165V10.8042H73.1185C73.1185 10.0045 72.62 9.10434 70.925 9.10434H69.5293V13.1035H73.2178C76.1093 13.1035 77.2061 11.8036 77.2061 10.4043H77.7042V13.5038H64.7437Z" fill="#3A4850"/>
<path fill-rule="evenodd" clip-rule="evenodd" d="M126.456 4.9053L122.368 9.70417V13.1034H124.661V13.5036H117.583V13.1034H119.876V9.60411L115.689 4.9053H113.197V4.4054H120.774V4.9053H118.481L122.269 9.00415L125.858 4.9053H123.665V4.4054H128.45V4.9053H126.456Z" fill="#3A4850"/>
<path fill-rule="evenodd" clip-rule="evenodd" d="M131.74 2.50559V1.80597H132.239C132.637 1.80597 132.836 1.90563 132.836 2.20541C132.836 2.40553 132.637 2.50559 132.338 2.50559H131.74ZM131.441 1.50622V3.90566H131.74V2.90546H132.139L132.837 3.90566H133.236L132.538 2.8058C132.936 2.8058 133.136 2.50562 133.136 2.20545C133.136 1.70594 132.837 1.50622 132.338 1.50622H131.441ZM132.139 0.905827H132.239C133.136 0.905827 133.933 1.70591 133.933 2.7057C133.933 3.7055 133.136 4.40552 132.239 4.40552C131.241 4.40552 130.544 3.7055 130.544 2.7057C130.544 1.70591 131.241 1.00589 132.139 0.905827ZM132.239 0.606079C131.042 0.606079 130.045 1.50622 130.045 2.70574C130.045 3.90566 131.042 4.8054 132.239 4.8054C133.435 4.8054 134.332 3.90566 134.332 2.70574C134.332 1.50622 133.335 0.606079 132.239 0.606079Z" fill="#3A4850"/>
</svg>
