<svg width="116" height="19" viewBox="0 0 116 19" fill="none" xmlns="http://www.w3.org/2000/svg">
<path fill-rule="evenodd" clip-rule="evenodd" d="M17.5857 7.19183C16.927 5.77159 16.201 4.37369 14.984 3.35611C13.689 2.26032 12.0476 1.60024 10.3505 1.60024C5.83879 1.60024 3.81814 5.68221 3.81814 9.69622C3.81814 13.5766 5.74954 17.5013 10.1046 17.5013C11.8803 17.5013 13.6109 16.7299 14.7051 15.332V12.2015C14.7051 11.3515 14.4257 10.8036 13.7671 10.3004H18.3787C17.8874 10.8595 17.5857 11.4297 17.5857 12.2015V15.332C15.4758 17.3002 12.8513 18.5081 9.93726 18.5081C4.78965 18.5081 0.580078 14.7171 0.580078 9.43926C0.580078 4.19494 4.73387 0.605469 9.81408 0.605469C12.9741 0.605469 15.5311 1.76829 17.5857 4.10556V7.19183ZM111.013 1.22036H115.044C114.597 1.56715 114.329 1.99169 114.329 2.57356V16.4729C114.329 17.0543 114.608 17.4677 115.044 17.8145H111.013C111.448 17.4677 111.716 17.0427 111.716 16.4729V2.57356C111.716 1.99169 111.459 1.56715 111.013 1.22036ZM33.2296 1.22036H28.8862C29.3994 1.6677 29.6787 2.18208 29.6787 2.87567V13.0175C29.6787 16.7857 34.1788 18.1497 37.2607 18.1497C40.2529 18.1497 44.5745 16.7411 44.5745 13.0734V2.87567C44.5745 2.20442 44.7534 1.71285 45.2332 1.22036H42.8657C43.3241 1.72356 43.4914 2.19325 43.4914 2.87567V13.0734C43.4914 15.791 40.4318 17.1661 38.0867 17.1661C35.697 17.1661 32.4371 15.8017 32.4371 13.0175V2.87567C32.4371 2.14856 32.6379 1.65653 33.2296 1.22036ZM72.3889 7.24729C71.8083 5.78282 71.1273 4.49711 69.9327 3.43484C68.6484 2.2939 67.0851 1.57796 65.3545 1.57796C60.8884 1.57796 58.599 5.49189 58.599 9.55105C58.599 13.6326 60.9772 17.4901 65.3875 17.4901C68.6707 17.4901 71.0158 15.1752 72.3889 12.3911V15.4103C70.3455 17.4343 67.7108 18.463 64.8297 18.463C59.4925 18.463 55.4944 15.0076 55.4944 9.49472C55.4944 4.13914 59.3363 0.616704 64.5731 0.616704C67.476 0.616704 70.2897 1.62312 72.3889 3.62477V7.24729ZM97.9374 3.43484C99.132 4.49711 99.813 5.78282 100.394 7.24729V3.62477C98.2944 1.62312 95.4807 0.616704 92.5773 0.616704C87.3405 0.616704 83.4995 4.13914 83.4995 9.49472C83.4995 15.0076 87.4971 18.463 92.8344 18.463C95.7261 18.463 98.3502 17.4343 100.394 15.4103V12.3911C99.0311 15.1752 96.6753 17.4901 93.3927 17.4901C88.9818 17.4901 86.6144 13.6326 86.6144 9.55105C86.6144 5.49189 88.8926 1.57796 93.3587 1.57796C95.0898 1.57796 96.653 2.2939 97.9374 3.43484Z" fill="#3A4850"/>
</svg>
