<svg width="104" height="49" viewBox="0 0 104 49" fill="none" xmlns="http://www.w3.org/2000/svg">
<path fill-rule="evenodd" clip-rule="evenodd" d="M51.7776 32.9722H52.5485V0.686768H51.7776V32.9722Z" fill="#3A4850"/>
<path fill-rule="evenodd" clip-rule="evenodd" d="M77.2214 26.0616L70.284 15.4127L75.6796 7.59766H74.6L69.7599 14.6079L65.193 7.59766H61.4927L67.8557 17.3659L61.8521 26.0616H62.9311L68.3799 18.1707L73.5199 26.0616H77.2214Z" fill="#3A4850"/>
<path fill-rule="evenodd" clip-rule="evenodd" d="M30.8212 20.3111L33.9337 12.1484L37.0137 20.3111H30.8212ZM39.1835 26.0617H42.473L35.332 7.13403H34.8522L27.635 26.0617H28.6284L30.5196 21.1018H37.3118L39.1835 26.0617Z" fill="#3A4850"/>
<path fill-rule="evenodd" clip-rule="evenodd" d="M3.94384 40.7163H3.75495L0.919922 48.1523H1.31068L2.05382 46.2039H4.7218L5.45668 48.1523H6.74995L3.94443 40.7163H3.94384ZM3.39489 42.6861L4.60493 45.8936H2.17187L3.39489 42.6861Z" fill="#3A4850"/>
<path fill-rule="evenodd" clip-rule="evenodd" d="M27.118 40.7163L24.283 48.1523H24.6731L25.4157 46.2039H28.0842L28.8197 48.1523H30.1118L27.3063 40.7163H27.118ZM26.7573 42.6861L27.9674 45.8936H25.5343L26.7573 42.6861Z" fill="#3A4850"/>
<path fill-rule="evenodd" clip-rule="evenodd" d="M78.9837 40.7163L76.1487 48.1523H76.5383L77.2814 46.2039H79.95L80.6855 48.1523H81.9775L79.1726 40.7163H78.9837ZM78.6231 42.6861L79.8325 45.8936H77.4L78.6231 42.6861Z" fill="#3A4850"/>
<path fill-rule="evenodd" clip-rule="evenodd" d="M59.2996 40.8694L57.396 43.6262L55.5999 40.8694H54.1443L56.647 44.7112L54.286 48.1313H54.7103L56.853 45.0274L58.8752 48.1313H60.3308L57.602 43.9425L59.7246 40.8694H59.2996Z" fill="#3A4850"/>
<path fill-rule="evenodd" clip-rule="evenodd" d="M10.0123 44.2155V41.2069H10.5736C11.9956 41.2069 12.0735 42.3114 12.0735 42.7118C12.0735 44.0858 11.0452 44.2072 10.7749 44.2155H10.0123ZM11.6916 44.5145H11.6827V44.511C11.9176 44.4684 13.3065 44.1539 13.3065 42.6946C13.3065 41.5812 12.2901 40.9256 10.8687 40.883V40.8806H10.0123H8.74438V48.1485H10.0123V44.5145H10.3464L12.3167 48.152H13.6619L11.6916 44.5145Z" fill="#3A4850"/>
<path fill-rule="evenodd" clip-rule="evenodd" d="M37.2946 40.8806H36.9345V45.9241L33.2336 40.8806H31.9226V48.1479H32.2827V41.6511L37.0502 48.1479H37.2946V40.8806Z" fill="#3A4850"/>
<path fill-rule="evenodd" clip-rule="evenodd" d="M89.2072 40.8806H88.8471V45.9241L85.1462 40.8806H83.8352V48.1479H84.1953V41.6511L88.9628 48.1479H89.2072V40.8806Z" fill="#3A4850"/>
<path fill-rule="evenodd" clip-rule="evenodd" d="M39.7234 48.1481H41.0468V40.8809H39.7234V48.1481Z" fill="#3A4850"/>
<path fill-rule="evenodd" clip-rule="evenodd" d="M21.1539 40.8806L19.2208 46.1094L17.1443 40.8806H15.7695V48.152H16.168V41.8833L18.5579 47.9027H18.918L21.2177 41.6801V48.152H22.4389V40.8806H21.1539Z" fill="#3A4850"/>
<path fill-rule="evenodd" clip-rule="evenodd" d="M52.6592 41.2241V40.8806H49.4642H48.2388V41.2241V48.1307H52.6592V47.7309H49.4642V44.4997H51.7254V44.1035H49.4642V41.2241H52.6592Z" fill="#3A4850"/>
<path fill-rule="evenodd" clip-rule="evenodd" d="M103.754 41.2241V40.8806H99.334V48.1307H103.754V47.7309H100.559V44.4997H102.821V44.1035H100.559V41.2241H103.754Z" fill="#3A4850"/>
<path fill-rule="evenodd" clip-rule="evenodd" d="M73.0153 40.8806V44.2326H70.0764V40.8806H68.8345V48.2379H70.0764V44.6022H73.0153V48.2379H74.2572V40.8806H73.0153Z" fill="#3A4850"/>
<path fill-rule="evenodd" clip-rule="evenodd" d="M66.4678 46.8586C65.9613 47.5284 65.2778 47.9465 64.6338 47.9465C63.2803 47.9465 62.6228 46.4108 62.6228 44.5003C62.6228 42.5892 63.3258 41.0263 64.6338 41.0263C65.2241 41.0263 65.9271 41.4693 66.4554 42.1717L66.7015 41.9774C66.2299 41.1903 65.3941 40.7083 64.4609 40.7083C62.7361 40.7083 61.3384 42.3943 61.3384 44.4736C61.3384 46.5524 62.7361 48.2379 64.4609 48.2379C65.3663 48.2379 66.1809 47.7736 66.7511 47.0315L66.4678 46.8586Z" fill="#3A4850"/>
<path fill-rule="evenodd" clip-rule="evenodd" d="M94.8976 45.2084V45.5501H95.8444V47.2681C95.5174 47.7745 95.1644 47.9415 94.7731 47.9463C93.419 47.9605 92.7626 46.4106 92.7626 44.5001C92.7626 42.5889 93.4645 41.026 94.7731 41.026C95.3627 41.026 96.0657 41.4696 96.5946 42.1714L96.8408 41.9772C96.3691 41.1901 95.5327 40.708 94.6001 40.708C92.8754 40.708 91.4771 42.3941 91.4771 44.4734C91.4771 46.5527 92.8754 48.2376 94.6001 48.2376C95.2996 48.2376 96.097 47.9889 96.6159 47.2687C96.7569 47.0721 97.0562 46.6398 97.0562 46.6398V45.2084H94.8976Z" fill="#3A4850"/>
</svg>
