<svg width="93" height="25" viewBox="0 0 93 25" fill="none" xmlns="http://www.w3.org/2000/svg">
<path fill-rule="evenodd" clip-rule="evenodd" d="M83.1612 3.68798L83.1659 3.60739C83.2162 2.73656 83.2605 1.96968 83.9043 1.40236C84.6745 0.765257 85.4966 0.791432 86.4253 0.84483L86.3997 2.06669L86.3057 2.06644C85.8821 2.06479 85.4411 2.06306 85.0458 2.35985C84.6479 2.67814 84.5945 3.15662 84.5945 4.11254V5.86681H86.4253V6.98292H84.5945V19.5779H83.1612V6.98292H81.7012V5.89298H83.1612V3.68798ZM16.1989 3.26274H14.5271V0.89807H16.1989V3.26274ZM16.0666 19.5777H14.6333V5.91952H16.0666V19.5777ZM9.64317 8.8957H2.23856V0.95152H0.671875V19.5778H2.26523V10.3039H9.64317V19.5778H11.1827V0.95152H9.64317V8.8957ZM19.3035 19.5777H20.7892V0.951468H19.3035V19.5777ZM24.2131 7.4613C23.9746 8.04553 23.8946 8.65646 23.8151 9.32078H25.3018C25.3551 8.60358 25.4079 7.93926 25.912 7.4346C26.1249 7.19483 26.6818 6.74357 27.5572 6.74357C28.2208 6.74357 28.6459 6.98281 28.8587 7.14248C29.6546 7.67384 29.708 8.39104 29.708 9.32078C29.708 10.1181 29.6808 10.4636 29.4423 10.7557C29.0239 11.2906 28.0568 11.6015 27.3413 11.8316L27.3411 11.8316C27.2394 11.8643 27.1428 11.8954 27.0536 11.9252C25.9387 12.2697 24.93 12.6691 24.2131 13.6256C23.4936 14.6281 23.4957 15.7317 23.4966 16.1867L23.4967 16.2295C23.4967 17.133 23.6295 17.6382 23.7628 18.0099C24.028 18.7009 24.7977 19.9767 26.7351 19.9767C28.45 19.9767 29.3004 19.013 29.7402 18.5146L29.7874 18.4612C29.7936 18.4798 29.8008 18.5074 29.8099 18.542C29.8787 18.805 30.0534 19.4722 30.6633 19.6841C30.8757 19.7631 31.0613 19.7631 31.168 19.7631C31.46 19.7631 31.8952 19.7062 32.1267 19.6758H32.1268L32.1269 19.6758C32.2107 19.6649 32.2679 19.6574 32.2818 19.6574V18.6214C31.6187 18.5413 31.2997 18.4879 31.2208 17.7968C31.1859 17.622 31.1741 17.4466 31.1622 17.2713C31.1561 17.1811 31.15 17.0908 31.1408 17.0006V8.84282C31.1408 8.68368 31.1146 7.72724 30.7695 7.00899C30.6362 6.74357 30.3977 6.39806 30.1592 6.21221C29.2828 5.52119 27.9023 5.49449 27.6905 5.49449C25.4869 5.49449 24.5849 6.5839 24.2131 7.4613ZM26.0982 13.8114C26.4167 13.5994 26.7618 13.4397 27.1336 13.3062L29.7341 12.2173V15.4322C29.6808 16.3363 29.6008 17.0535 29.0177 17.7434C28.5136 18.3292 27.7705 18.7009 27.0274 18.7009C26.4167 18.7009 26.0715 18.4879 25.8587 18.3292C25.3818 17.957 25.0367 17.3718 25.0367 16.1232C25.0367 14.8479 25.6731 14.1307 26.0982 13.8114ZM36.184 5.78739V7.51338C36.2573 7.40882 36.3172 7.3228 36.3682 7.24963C36.5756 6.95168 36.6348 6.86671 36.8476 6.61034C37.7996 5.48236 38.8457 5.48937 39.4958 5.49372C39.5345 5.49398 39.5718 5.49423 39.6076 5.49423L39.5815 6.95585C38.3066 7.06265 37.8291 7.24849 37.325 7.70028C36.4261 8.45465 36.3277 9.85276 36.297 10.2885C36.2942 10.329 36.2919 10.3612 36.2896 10.3838V19.5781H34.7774V5.78739H36.184ZM47.9152 5.83948L44.7839 17.3461L41.8906 5.83948H40.3783L43.987 19.5506L43.9837 19.5652C43.8248 20.258 43.5594 21.4156 43.1383 22.0487C42.9788 22.3147 42.4747 22.9518 41.4921 22.9518C41.2446 22.9518 40.885 22.8873 40.7247 22.8585L40.7247 22.8585C40.6788 22.8503 40.6492 22.845 40.6434 22.845L40.6167 24.0684C41.227 24.1736 41.4132 24.2009 41.7578 24.2009C43.6691 24.2009 44.3321 22.845 44.5978 22.2613C44.7573 21.8891 44.9157 21.464 45.0491 21.0656L49.4019 5.83948H47.9152ZM61.4241 0.924507C61.5501 0.932793 61.6734 0.938456 61.795 0.944037C62.0574 0.956086 62.3115 0.967751 62.5656 1.0046L62.5675 1.00477C63.1537 1.05735 65.2476 1.24518 66.6267 2.99706C67.4231 3.9802 67.6621 4.96334 67.9272 6.1852C68.0867 7.59395 68.2451 9.02835 68.2451 10.4638C68.2451 11.8061 68.0531 13.1964 67.9422 13.999C67.9104 14.2291 67.8853 14.4108 67.8733 14.5293C67.8685 14.5461 67.8618 14.5705 67.8532 14.6015C67.7671 14.9136 67.4951 15.8986 67.1569 16.5752C66.7851 17.2929 65.8297 18.8598 63.7861 19.3922C63.3359 19.4979 62.8841 19.5508 62.4328 19.5775H57.283V0.924507H61.4241ZM58.8764 18.1159H62.3005C63.3087 18.063 63.9195 17.9572 64.6892 17.2662C65.7466 16.3276 66.0206 15.2581 66.1813 14.6306L66.1815 14.63C66.1982 14.5648 66.2137 14.5043 66.2287 14.4492C66.44 13.2012 66.5995 12.2448 66.5995 9.7733C66.5995 8.76294 66.5995 7.93894 66.2549 5.99988C66.2239 5.89434 66.1944 5.78886 66.165 5.68375L66.1649 5.68359C66.0683 5.3383 65.9728 4.99708 65.8297 4.67123C65.3528 3.58181 64.6626 3.15621 64.2379 2.94366C63.9456 2.78399 63.441 2.54528 62.6979 2.43848C62.1636 2.34588 61.5474 2.35484 61.2957 2.3585C61.2599 2.35902 61.2315 2.35943 61.2118 2.35943H58.8764V18.1159ZM72.7037 15.6708V5.91952H71.2442V16.1231C71.2714 17.5581 71.4032 18.0627 71.8284 18.648C72.7299 19.8437 74.0314 19.9494 74.4822 19.9494C75.3586 19.9494 76.314 19.6578 77.0576 19.072C77.3755 18.8333 77.5612 18.648 77.853 18.3292V19.5778H79.2335V5.91952H77.7996V16.3891C77.3227 17.2126 76.8709 17.9837 75.995 18.4349C75.8094 18.5412 75.412 18.7014 74.854 18.7014C74.5889 18.7014 74.0843 18.6742 73.5535 18.2491C72.6781 17.5581 72.6781 16.7074 72.7037 15.6708ZM88.952 3.60739L88.9473 3.68798V5.89298H87.4873V6.98292H88.9473V19.5779H90.3807V6.98292H92.212V5.86681H90.3807V4.11254C90.3807 3.15662 90.434 2.67814 90.832 2.35985C91.2272 2.06306 91.6683 2.06479 92.0918 2.06644C92.1233 2.06657 92.1546 2.06669 92.1858 2.06669L92.212 0.84483C91.2827 0.791432 90.4607 0.765257 89.6904 1.40236C89.0466 1.96968 89.0023 2.73656 88.952 3.60739Z" fill="#3A4850"/>
</svg>
