<svg width="112" height="19" viewBox="0 0 112 19" fill="none" xmlns="http://www.w3.org/2000/svg">
<path fill-rule="evenodd" clip-rule="evenodd" d="M98.1399 6.36907L95.2856 11.9196H101.331L98.1399 6.36907ZM102.675 18.2065V17.9053C103.597 17.9053 103.99 17.6325 103.99 17.0306C103.99 16.7574 103.877 16.4025 103.682 16.0471L102.002 13.0934H94.7269L93.4395 15.6921C93.2721 16.0471 93.131 16.4567 93.131 16.8675C93.131 17.4957 93.411 17.9053 94.1951 17.9053V18.2065H89.6899V17.9053C90.7522 17.9053 91.4251 17.195 92.0686 15.9107L97.4687 5.16664L95.9589 2.67854C95.1744 1.39383 94.3626 1.12105 93.552 1.12105V0.820312H100.632L109.364 16.0471C109.894 16.9764 110.482 17.9053 111.658 17.9053V18.2065H102.675ZM83.3927 6.3142C83.3927 3.17127 81.377 1.99584 79.1394 1.99584H76.7325V17.0303H79.1394C81.377 17.0303 83.3927 15.8544 83.3927 12.7115V6.3142ZM79.8954 18.2065H69.5967V17.9053C69.8204 17.9053 71.8075 17.7969 71.8075 15.8005V3.22581C71.8075 1.22947 69.8204 1.12105 69.5967 1.12105V0.820312H79.8954C84.5135 0.820312 89.3251 3.77222 89.3251 9.51339C89.3251 15.2825 84.5135 18.2065 79.8954 18.2065ZM54.2043 6.36907L51.35 11.9196H57.3953L54.2043 6.36907ZM58.7394 18.2065V17.9053C59.6628 17.9053 60.0536 17.6325 60.0536 17.0306C60.0536 16.7574 59.9411 16.4025 59.7455 16.0471L58.0665 13.0934H50.7913L49.5031 15.6921C49.336 16.0471 49.195 16.4567 49.195 16.8675C49.195 17.4957 49.475 17.9053 50.2595 17.9053V18.2065H45.7539V17.9053C46.8162 17.9053 47.4874 17.195 48.1322 15.9107L53.5327 5.16664L52.0212 2.67854C51.2388 1.39383 50.4265 1.12105 49.6143 1.12105V0.820312H56.6956L65.426 16.0471C65.9583 16.9764 66.5468 17.9053 67.7217 17.9053V18.2065H58.7394ZM32.7684 1.99584H29.1018V10.442H32.7684C35.4271 10.442 36.7153 8.47531 36.7153 6.23202C36.7153 3.99045 35.4271 1.99584 32.7684 1.99584ZM37.2454 18.2065L29.1018 11.6181V15.8005C29.1018 17.7969 31.0893 17.9053 31.3126 17.9053V18.2065H21.9941V17.9053C22.2178 17.9053 24.2054 17.7969 24.2054 15.8005V3.22581C24.2054 1.22947 22.2178 1.12105 21.9941 1.12105V0.820312H35.0926C39.2611 0.820312 41.2205 3.52741 41.2205 6.23235C41.2205 8.9132 39.2611 11.6181 35.0926 11.6181H31.0063C31.9016 12.5475 33.7762 12.9308 35.4833 12.9308C36.2376 12.9308 36.9931 12.8202 37.6384 12.6576L44.2705 17.9595V18.2065H37.2454ZM11.3043 1.99584H7.66583V10.442H11.3043C13.9911 10.442 15.2491 8.47531 15.2491 6.23202C15.2491 3.99045 13.9911 1.99584 11.3043 1.99584ZM13.6263 11.6181H7.66583V15.8005C7.66583 17.7969 9.65338 17.9053 9.8771 17.9053V18.2065H0.530029V17.9053C0.753753 17.9053 2.7413 17.7969 2.7413 15.8005V3.22581C2.7413 1.22947 0.753753 1.12105 0.530029 1.12105V0.820312H13.6263C17.797 0.820312 19.7828 3.52741 19.7828 6.23235C19.7828 8.9132 17.797 11.6181 13.6263 11.6181Z" fill="#3A4850"/>
</svg>
