<svg width="113" height="25" viewBox="0 0 113 25" fill="none" xmlns="http://www.w3.org/2000/svg">
<path fill-rule="evenodd" clip-rule="evenodd" d="M67.547 1.20459C67.0395 0.938529 66.5683 0.887964 66.3324 0.882293L66.3207 0.881348H66.3192L50.0267 0.893635H50.006H49.9914C49.4373 0.90923 49.007 1.08786 48.7434 1.23531C48.4586 1.38795 47.5298 2.00418 47.5486 3.52398V14.6091L47.5496 14.6347C47.5665 14.8818 47.6324 15.3761 47.8796 15.9059C48.1738 16.5732 48.8804 17.2863 49.9796 17.2863H63.8435V16.7934C63.8478 16.4607 63.7108 16.1271 63.4768 15.9012C62.9109 15.3804 62.1624 15.353 61.8428 15.3412C61.7971 15.3397 61.7599 15.3383 61.734 15.3355H61.6926H55.0667C54.8605 15.3355 54.6637 15.336 54.4768 15.3374C54.2847 15.3383 54.1016 15.3388 53.9298 15.3388H53.8681C53.8003 15.3397 53.7349 15.3402 53.6699 15.3402C52.6093 15.3402 52.0091 15.2462 51.7817 15.0449C51.673 14.9584 51.5619 14.8327 51.4696 14.499C51.3867 14.1928 51.3458 13.7358 51.3462 13.1409L51.3458 9.69438C51.3448 7.53991 51.3448 5.05796 51.3448 4.31554C51.3331 3.9493 51.5374 3.37748 51.7422 3.20216C52.0044 2.94839 52.3523 2.89735 52.8273 2.89546C52.9577 2.89546 53.0834 2.89971 53.2152 2.90349C53.3522 2.90774 53.4948 2.91153 53.6421 2.91247H62.8187C63.0173 2.91247 63.1929 2.90822 63.3483 2.90396C63.4707 2.90113 63.5804 2.89829 63.6783 2.89829C64.1349 2.90869 64.2832 2.92381 64.6641 3.19223C64.9432 3.46822 65.0275 3.81178 65.0783 4.31082L65.0906 19.5527C65.0906 19.5532 65.0901 19.6369 65.0713 19.7725C65.0416 19.9894 64.9578 20.2928 64.8081 20.4965C64.6382 20.7148 64.4597 20.8443 64.0521 20.8533L49.7136 20.8811L49.6911 20.8807L49.6765 20.8811C49.3206 20.8868 48.9859 20.9397 48.6822 21.0366C48.3786 21.1368 48.1507 21.2677 47.9638 21.4473C47.7186 21.6784 47.574 22.021 47.5792 22.365V22.8575H66.2505L66.2708 22.856C66.8992 22.8036 67.4947 22.573 67.9481 22.2091C68.4956 21.7738 68.8067 21.1236 68.8025 20.4246V20.4095L68.8063 3.49846C68.8223 2.27969 68.166 1.51507 67.547 1.20459Z" fill="#3A4850"/>
<path fill-rule="evenodd" clip-rule="evenodd" d="M112.546 17.2427L112.459 16.6993C112.364 16.0344 111.866 15.6417 111.431 15.4971C110.96 15.3255 110.478 15.3236 110.219 15.3222C110.158 15.3222 110.103 15.3232 110.056 15.3236L109.966 15.3246C109.499 15.3236 98.7392 15.3236 98.7392 15.3236C98.05 15.308 97.824 15.1247 97.6828 14.9281C97.5317 14.7145 97.503 14.3695 97.5063 14.1171C97.5053 14.0552 97.5068 13.9957 97.5072 13.9371C97.5086 13.8889 97.5091 13.8416 97.5091 13.7958V10.2983L97.51 10.2633V10.2553H107.151L107.142 8.21659L106.814 8.22037L97.5218 8.27235C97.5199 8.22178 97.5176 8.11262 97.5185 8.04126C97.5185 7.79363 97.5171 7.37777 97.5152 6.88676C97.5129 6.18074 97.5091 5.32065 97.5091 4.58533C97.5228 3.71296 97.8109 3.40342 98.1202 3.19832C98.2812 3.09908 98.445 3.0523 98.5533 3.03056C98.6455 3.01166 98.7091 3.00835 98.7364 3.00693L98.7505 3.00599H99.1393C100.425 3.00599 104.611 3.00693 107.394 3.0074H109.976C110.355 3.00599 110.854 2.98188 111.35 2.81412C111.674 2.70354 111.926 2.54995 112.12 2.3458C112.363 2.09486 112.5 1.74185 112.495 1.3775L112.511 1.07363C111.625 1.08639 110.753 1.07694 109.852 1.07599L104.958 1.06134C101.301 1.05945 97.1537 1.09962 96.0865 1.09962L96.045 1.09915C94.5377 1.09915 94.1526 1.96443 94.0024 2.29807C93.7571 2.81459 93.631 3.42043 93.6277 4.09716C93.6277 4.17088 93.6296 4.22523 93.631 4.255L93.6319 14.585L93.6324 14.6011C93.6423 14.8558 93.7002 15.3643 93.9723 15.9063C94.1248 16.2267 94.7424 17.2744 96.271 17.2744H96.311L112.523 17.2702H112.55L112.546 17.2427Z" fill="#3A4850"/>
<path fill-rule="evenodd" clip-rule="evenodd" d="M71.7913 16.9558C72.4076 17.2663 73.0205 17.2724 73.2507 17.2748L89.0904 17.2752C89.3262 17.2724 89.9382 17.2663 90.5549 16.9553C91.1537 16.6703 91.7878 15.9539 91.7695 14.7999L91.7624 0.892525V0.868896H90.5337C90.0352 0.876458 89.4764 1.09337 88.9981 1.46481C88.4031 1.92982 88.0632 2.61269 88.066 3.33857V14.5863C88.0632 14.8368 88.0034 14.953 87.945 15.0352C87.8513 15.1666 87.672 15.2654 87.4267 15.3226C87.2083 15.3722 86.9724 15.3788 86.8147 15.3788H75.5061C75.2726 15.3788 74.9436 15.3571 74.7011 15.2536C74.5651 15.1969 74.4672 15.125 74.4012 15.0348C74.3424 14.953 74.2826 14.8368 74.2803 14.5858V3.33857C74.2826 2.61269 73.9432 1.92982 73.3486 1.46481C72.8703 1.09337 72.3106 0.876458 71.8139 0.868896H70.5834V0.892525L70.5768 14.8004C70.5589 15.9539 71.1925 16.6703 71.7913 16.9558Z" fill="#3A4850"/>
<path fill-rule="evenodd" clip-rule="evenodd" d="M20.4308 0.880901C20.3554 0.880901 20.2914 0.880428 20.2429 0.879483C20.225 0.879483 20.2081 0.87901 20.1954 0.87901H20.1761C20.1102 0.874285 20.0631 0.874285 20.0231 0.874285C18.9333 0.874285 18.1965 1.54061 17.7691 2.0992C17.3431 2.64927 17.0408 3.26976 16.7744 3.81606C16.7231 3.92191 16.6722 4.02493 16.6242 4.12276C16.6275 4.11567 16.6346 4.11236 16.6426 4.11142L16.6388 4.11756C16.6058 4.15631 16.4877 4.38267 15.87 5.56458L14.1602 8.83574C13.1792 10.7133 12.1492 12.6834 11.5692 13.7949H11.209V14.4863C11.2072 14.4901 11.2043 14.4948 11.2025 14.4986L4.45788 0.89177L4.45176 0.878065H0.0200195L0.0364961 0.912563L7.08613 15.12C7.45003 15.8478 7.82287 16.3596 8.25879 16.7306C8.75121 17.153 9.3486 17.3756 9.98601 17.3756H10.003H10.067H10.1023C10.8555 17.3756 11.4388 17.2239 11.8874 16.913C12.3553 16.5878 12.6463 16.1304 12.9033 15.7278L12.916 15.7074L18.0883 5.44927C18.2681 5.11233 18.4724 4.97812 18.7229 4.88029C18.9625 4.7905 19.2854 4.7475 19.7364 4.7475H19.7618C19.9026 4.7475 20.0471 4.75128 20.1954 4.75459L20.3423 4.75837C20.7641 4.7612 21.8906 4.76735 21.8911 4.76735L22.3849 4.77066V0.860107L21.8868 0.866251C21.7169 0.869086 20.8836 0.880901 20.4308 0.880901Z" fill="#3A4850"/>
<path fill-rule="evenodd" clip-rule="evenodd" d="M41.5546 13.7157C41.556 14.5423 41.3757 14.9194 41.2237 15.09C41.0448 15.2937 40.7873 15.382 40.3627 15.3863H29.3064C28.8822 15.382 28.6247 15.2937 28.4449 15.09C28.2938 14.9194 28.113 14.5423 28.1144 13.7157V4.49629C28.113 3.66976 28.2938 3.29264 28.4449 3.1211C28.6247 2.91695 28.8822 2.82858 29.3064 2.8248H40.3631C40.7873 2.82858 41.0448 2.91695 41.2237 3.1211C41.3757 3.2917 41.556 3.66881 41.5546 4.49629V13.7157ZM42.6035 0.876709H27.0661C26.1561 0.876709 25.4801 1.09409 24.9994 1.54209C24.4731 2.03735 24.2076 2.81048 24.2095 3.84069V14.3711C24.2076 15.4013 24.4731 16.1744 24.9994 16.6697C25.4796 17.1177 26.1561 17.3355 27.0661 17.3355H42.6035C43.5139 17.3355 44.19 17.1177 44.6692 16.6697C45.196 16.1753 45.4619 15.4017 45.4596 14.3711V3.84069C45.4619 2.81001 45.196 2.03641 44.6692 1.54209C44.1895 1.09409 43.5135 0.876709 42.6035 0.876709Z" fill="#3A4850"/>
<path fill-rule="evenodd" clip-rule="evenodd" d="M111.581 19.9463C111.247 19.977 111.003 20.0271 110.81 20.1401C110.615 20.2516 110.498 20.4453 110.461 20.6632C110.451 20.7199 110.439 20.7847 110.439 20.857V23.1078H111.591V20.8674C111.591 20.8485 111.592 20.8362 111.594 20.8296C111.594 20.7965 111.692 20.7634 111.86 20.7634H112.427V19.9359H111.798C111.725 19.9359 111.652 19.9411 111.581 19.9463Z" fill="#3A4850"/>
<path fill-rule="evenodd" clip-rule="evenodd" d="M93.6916 21.9046L92.9426 20.2208C92.8024 19.9727 92.5128 19.8895 92.1777 19.8782C92.0967 19.8791 92.019 19.8919 91.955 19.9009C91.7055 19.9462 91.5096 20.028 91.4141 20.2198L90.6557 21.9065L89.8498 19.9354H88.6794L88.7783 20.1783L89.8455 22.7906C89.9764 23.0543 90.2734 23.146 90.6218 23.1541C90.7235 23.1541 90.8228 23.1427 90.9184 23.1257C91.1556 23.0808 91.3675 22.9603 91.4654 22.7415L92.1847 21.1177L92.8885 22.7372C92.9779 22.9546 93.1879 23.0794 93.4238 23.1243C93.5245 23.1427 93.6229 23.1541 93.725 23.1541C94.0729 23.146 94.3709 23.0543 94.5004 22.7944L95.6679 19.9354H94.4971L93.6916 21.9046Z" fill="#3A4850"/>
<path fill-rule="evenodd" clip-rule="evenodd" d="M98.384 20.9348C98.3888 20.845 98.3996 20.8365 98.433 20.8095C98.4702 20.7826 98.5757 20.7524 98.7512 20.7538L100.059 20.7528C100.14 20.7528 100.206 20.7571 100.256 20.7642L98.384 21.2731V20.9348ZM98.4547 22.2469C98.4358 22.236 98.4189 22.2219 98.3953 22.1524L101.524 21.3018V20.8306C101.526 20.5371 101.354 20.2871 101.096 20.1468C100.838 20.0027 100.496 19.937 100.085 19.9355H98.8939C98.3709 19.937 97.9754 20.0027 97.6859 20.1614C97.3936 20.3164 97.2269 20.6019 97.2326 20.9246V22.1916C97.2302 22.4482 97.3766 22.6547 97.5682 22.797C97.8102 23.0399 98.3836 23.1075 98.707 23.1075H101.577V22.2842H98.7602C98.5756 22.2866 98.4806 22.2649 98.4547 22.2469Z" fill="#3A4850"/>
<path fill-rule="evenodd" clip-rule="evenodd" d="M71.3636 20.9348C71.3688 20.845 71.3796 20.8365 71.413 20.8095C71.4507 20.7826 71.5552 20.7524 71.7308 20.7538L73.0386 20.7528C73.12 20.7528 73.1859 20.7571 73.2368 20.7642L71.3636 21.2731V20.9348ZM71.4352 22.2469C71.4163 22.236 71.3994 22.2219 71.3749 22.1524L74.5031 21.3018V20.8306C74.5078 20.5371 74.3341 20.2871 74.0761 20.1468C73.8186 20.0027 73.4754 19.937 73.0659 19.9355H71.8734C71.3514 19.937 70.955 20.0027 70.6655 20.1614C70.3736 20.3164 70.2065 20.6019 70.2131 20.9246V22.1916C70.2103 22.4482 70.3552 22.6543 70.5478 22.797L70.5487 22.7979C70.8444 23.0224 71.204 23.1075 71.687 23.1075H74.5563V22.2842H71.7402C71.5562 22.2866 71.4601 22.2649 71.4352 22.2469Z" fill="#3A4850"/>
<path fill-rule="evenodd" clip-rule="evenodd" d="M106.953 22.1704C106.921 22.229 106.916 22.2299 106.87 22.2498C106.816 22.2706 106.688 22.2857 106.471 22.2843H105.386C105.169 22.2857 105.041 22.2706 104.986 22.2498C104.938 22.229 104.934 22.229 104.903 22.1718V21.9932C104.929 21.944 104.942 21.9332 104.988 21.91C105.039 21.8859 105.141 21.8656 105.307 21.8561H105.376H106.569C106.723 21.8656 106.824 21.8864 106.872 21.9091C106.914 21.9317 106.926 21.9421 106.953 21.9932V22.1704ZM108.08 20.5828L108.075 20.571C107.896 20.0998 107.418 19.9287 106.774 19.9354H103.752V20.752L106.826 20.7633C106.904 20.7661 106.921 20.7751 106.953 20.7983V21.0327L105.154 21.0341C104.757 21.0341 104.417 21.1135 104.161 21.2898C103.903 21.4641 103.748 21.7529 103.752 22.0894V22.1754C103.748 22.4688 103.918 22.7212 104.171 22.8715C104.424 23.0255 104.762 23.103 105.162 23.1073H106.768C107.199 23.1073 107.589 22.9802 107.881 22.6966C108.023 22.5657 108.106 22.3918 108.104 22.2127V20.7581C108.104 20.692 108.091 20.639 108.082 20.5965L108.08 20.5828Z" fill="#3A4850"/>
<path fill-rule="evenodd" clip-rule="evenodd" d="M79.6571 22.1662C79.65 22.2215 79.6576 22.2059 79.618 22.2352C79.5747 22.2603 79.4589 22.2863 79.2814 22.2849H78.0363C77.8809 22.2853 77.7783 22.2636 77.7251 22.2376C77.6733 22.2097 77.662 22.1941 77.6437 22.1436L77.6352 22.1374L77.6423 22.1369C77.6423 22.1318 77.6418 22.1247 77.6418 22.1143V19.9366H76.4908V22.2442C76.4875 22.5122 76.656 22.7371 76.914 22.886C77.1786 23.0405 77.4798 23.1086 77.823 23.1081H79.6552C79.6519 23.136 79.6467 23.1355 79.6312 23.1492C79.611 23.1676 79.5422 23.1941 79.4269 23.2054H76.4908V24.0287H79.3704C79.8223 24.0277 80.2022 23.9323 80.4711 23.7347C80.6805 23.592 80.8161 23.3543 80.8076 23.0561V19.9366H79.6571V22.1662Z" fill="#3A4850"/>
<path fill-rule="evenodd" clip-rule="evenodd" d="M84.0643 20.9346C84.069 20.8449 84.0799 20.8364 84.1133 20.8094C84.1514 20.7825 84.2559 20.7522 84.4315 20.7536H85.7393C85.8202 20.7527 85.8871 20.757 85.9365 20.764L84.0643 21.273V20.9346ZM84.1359 22.2469C84.1161 22.236 84.0996 22.2219 84.0756 22.1524L87.2038 21.3018V20.8306C87.2076 20.5371 87.0348 20.2871 86.7764 20.1468C86.5184 20.0027 86.1762 19.937 85.7657 19.9355H84.5737C84.0516 19.937 83.6557 20.0027 83.3662 20.1614C83.0743 20.3164 82.9067 20.6019 82.9138 20.9246V22.1916C82.9105 22.4482 83.0578 22.6547 83.2485 22.797L83.2494 22.7979C83.5446 23.0224 83.9043 23.1075 84.3877 23.1075H87.2575V22.2842H84.4405C84.2569 22.2866 84.1613 22.2649 84.1359 22.2469Z" fill="#3A4850"/>
</svg>
