<svg width="126" height="13" viewBox="0 0 126 13" fill="none" xmlns="http://www.w3.org/2000/svg">
<path fill-rule="evenodd" clip-rule="evenodd" d="M25.2035 0.459509C27.7145 0.459509 29.8449 2.14072 30.5947 4.47132H28.5378C27.8993 3.2471 26.6458 2.41473 25.2035 2.41473C23.1139 2.41473 21.4198 4.16203 21.4198 6.3174C21.4198 8.47277 23.1139 10.2203 25.2035 10.2203C26.6049 10.2203 27.8284 9.43404 28.4822 8.26603H30.5605C29.7818 10.5432 27.6774 12.1755 25.2035 12.1755C22.067 12.1755 19.524 9.55258 19.524 6.3174C19.524 3.08199 22.067 0.459509 25.2035 0.459509ZM2.79405 3.88041L5.88116 12.0416H7.82253L10.7201 3.9665V12.0416H12.6394V0.665466H9.95223L6.80875 8.71189L3.76766 0.665466H0.874756V12.0416H2.79405V3.88041ZM15.4492 12.0416H17.3586V0.665466H15.4492V12.0416ZM39.9965 7.20473V12.0416H41.9215V0.665466H39.9965V5.30008H34.2997V0.665466H32.3748V12.0416H34.2997V7.20473H39.9965ZM51.4108 9.20417L52.5155 12.0416H54.5581L50.077 0.665466H48.0025L43.5214 12.0416H45.5799L46.6686 9.20417H51.4108ZM49.0475 2.78983L50.7657 7.31625H47.3297L49.0475 2.78983ZM56.3041 0.665466V12.0416H64.3978V10.1541H58.3736V7.22167H64.0108V5.31702H58.3736V2.55295H64.3473V0.665466H56.3041ZM66.8579 0.665466V12.0416H74.0339V10.1541H68.9418V0.665466H66.8579ZM85.4405 6.58145L83.7434 8.20245V12.0416H81.8396V0.665466H83.7434V5.73214L88.5112 0.665466H90.9725L86.6689 5.27092L91.7817 12.0416H89.2535L85.4405 6.58145ZM99.7111 11.6612C100.416 11.3604 101.024 10.942 101.537 10.4066C102.049 9.87132 102.466 9.25251 102.77 8.54973C103.074 7.84719 103.218 7.09455 103.218 6.27488C103.218 5.4719 103.058 4.71903 102.754 3.99979C102.449 3.28031 102.033 2.6615 101.521 2.12618C101.008 1.5911 100.4 1.17268 99.6949 0.871628C98.9902 0.570572 98.2377 0.420044 97.437 0.420044C96.6362 0.420044 95.8833 0.570572 95.1788 0.871628C94.4741 1.17268 93.8656 1.5911 93.353 2.12618C92.8403 2.6615 92.4242 3.28031 92.1199 3.99979C91.8155 4.71903 91.6554 5.4719 91.6554 6.27488C91.6554 7.09455 91.7996 7.86389 92.1039 8.56667C92.408 9.26921 92.8244 9.88826 93.337 10.4233C93.8494 10.9587 94.4579 11.3768 95.1626 11.6779C96.5763 12.2821 98.2988 12.2647 99.7111 11.6612ZM97.4208 10.1892C96.9083 10.1892 96.4279 10.089 95.9796 9.88833C95.531 9.68747 95.1307 9.40312 94.7944 9.05173C94.4579 8.70034 94.1857 8.28239 93.9936 7.79717C93.8013 7.31219 93.7055 6.81027 93.7055 6.27496C93.7055 5.73941 93.8013 5.23772 93.9936 4.75274C94.1857 4.26752 94.4579 3.84934 94.7944 3.49795C95.1307 3.1468 95.531 2.86244 95.9796 2.66158C96.4279 2.46095 96.9083 2.36052 97.4208 2.36052C97.9334 2.36052 98.4136 2.46095 98.8781 2.66158C99.3426 2.86244 99.743 3.1468 100.079 3.49795C100.416 3.84934 100.688 4.26752 100.88 4.75274C101.072 5.23772 101.168 5.73941 101.168 6.27496C101.168 6.81027 101.072 7.31219 100.88 7.79717C100.688 8.28239 100.416 8.70034 100.079 9.05173C99.743 9.40312 99.3426 9.68747 98.8781 9.88833C98.4136 10.089 97.9334 10.1892 97.4208 10.1892ZM107.965 2.46852H111.34C111.573 2.46852 111.776 2.51908 111.962 2.62022C112.149 2.72136 112.304 2.87306 112.429 3.0584C112.554 3.24374 112.647 3.44577 112.709 3.66521C112.771 3.88442 112.802 4.12009 112.802 4.356C112.802 4.5919 112.771 4.82781 112.709 5.06395C112.647 5.29985 112.554 5.51906 112.429 5.7044C112.304 5.88974 112.149 6.04144 111.962 6.15928C111.776 6.27735 111.558 6.34461 111.309 6.34461H107.949L107.965 2.46852ZM110.922 8.24949L113.097 11.9911H115.408L112.809 7.89763C114.17 6.94342 114.715 6.10846 114.715 4.30589C114.715 3.85078 114.638 3.4126 114.498 2.97419C114.358 2.53601 114.156 2.14864 113.891 1.79466C113.627 1.44069 113.3 1.17091 112.911 0.968639C112.522 0.766602 112.071 0.665466 111.573 0.665466H106.021V12.0416H107.934V8.30006L110.922 8.24949ZM116.728 10.2964C118.38 11.4936 119.573 12.0416 121.66 12.0416C122.674 12.0416 123.653 11.8767 124.406 11.3985C125.503 10.7021 126.141 9.43744 125.873 7.84326C125.671 6.63786 124.706 5.81936 123.03 5.53618C122.38 5.42634 120.869 5.32356 119.976 4.84258C119.023 4.32913 118.927 3.25427 119.639 2.72742C120.808 1.86071 123.668 2.86643 124.726 3.55203L125.53 1.94303C125.185 1.67984 124.808 1.46651 124.398 1.28612C123.988 1.10525 123.578 0.974006 123.169 0.875692C122.759 0.777143 122.349 0.694823 121.955 0.645431C121.562 0.596275 121.201 0.580046 120.889 0.580046C120.283 0.580046 119.742 0.661895 119.266 0.8263C118.209 1.19133 117.497 2.08791 117.282 3.18489C116.899 5.14669 118.014 6.21097 119.396 6.711C120.59 7.14354 121.963 7.10261 122.997 7.47846C123.989 7.83879 124.252 9.15873 123.48 9.84575C123.185 10.1085 122.693 10.2399 122.004 10.2399C120.047 10.2399 119.336 9.63172 117.84 8.71985L116.728 10.2964Z" fill="#3A4850"/>
</svg>
