<svg width="77" height="42" viewBox="0 0 77 42" fill="none" xmlns="http://www.w3.org/2000/svg">
<g id="2 Faces">
<g id="oval">
<path id="Fill 1" fill-rule="evenodd" clip-rule="evenodd" d="M27.5578 30.859C28.0475 29.5561 29.5228 26.3314 29.5228 26.3314C30.1259 25.2504 29.9992 23.7561 29.9992 23.7561C30.0735 22.2207 29.3424 21.8546 28.5415 22.7201C28.6273 22.245 28.7967 21.2133 28.8716 20.7066C29.9562 16.7746 28.1731 11.3033 28.1731 11.3033C28.0451 10.8714 28.1214 11.1104 28.0017 10.7935C27.3556 9.28853 25.8295 6.06043 21.3687 3.57074C16.8713 1.06039 19.2445 1.13803 19.8018 1.04746C19.8018 1.04746 13.8809 0.301775 7.92515 4.05606C8.27524 3.51331 8.9864 2.83323 8.9864 2.83323C6.54866 4.15049 5.78606 5.19035 5.56274 5.8037C5.34966 5.98711 5.13756 6.17801 4.92667 6.3755C3.00286 6.41136 1.3794 8.18874 1.3794 8.18874L2.75272 7.75109C0.398603 8.75124 0.529523 11.4398 0.529523 11.4398L1.48814 10.6678C1.26921 10.9476 1.08075 11.245 0.9196 11.556C-0.414953 14.1378 0.166019 17.681 0.905948 20.2381C1.07441 20.8844 1.31138 21.8466 1.50374 22.8379C-0.352053 21.1073 0.0331489 25.3585 0.0331489 25.3585C0.111408 26.3323 0.965191 27.7571 0.965191 27.7571C1.40135 28.8408 2.09885 30.4246 2.09885 30.4246C2.624 31.794 3.07088 31.9386 3.36709 31.7893C3.68476 32.9213 7.87907 39.6846 15.0065 39.6846C22.1335 39.6846 26.2539 33.0893 26.6652 31.4742C27.2532 31.9422 27.5578 30.859 27.5578 30.859Z" fill="#89959C"/>
<path id="Fill 43" fill-rule="evenodd" clip-rule="evenodd" d="M18.0799 8.88462H11.9302C9.0458 8.88462 5.99207 10.2325 4.52856 12.0414C2.91056 14.0415 2.42729 16.6464 2.37896 18.2605C2.3059 20.6948 2.64799 23.5379 3.23819 27.5503C3.60921 30.075 5.32219 34.1545 6.14831 35.3567C6.95846 36.898 11.2932 40.4453 15.0052 40.4744C18.7173 40.4453 23.0513 36.898 23.8618 35.3567C24.6883 34.1545 26.4005 30.075 26.7723 27.5503C27.3621 23.5379 27.7046 20.6948 27.6312 18.2605C27.5824 16.6464 27.0999 14.0415 25.4816 12.0414C24.0177 10.2325 20.9647 8.88462 18.0799 8.88462Z" fill="#FFF1E3" stroke="#89959C" stroke-width="1.6"/>
</g>
<g id="round">
<path id="Fill 1_2" fill-rule="evenodd" clip-rule="evenodd" d="M64.665 37.9684C73.1327 37.4687 75.8525 35.9101 76.6715 35.1889L75.341 33.973C75.982 34.4068 76.5584 34.6863 76.9752 34.8573C76.9933 34.8301 77 34.8152 77 34.8152C75.1995 33.4566 73.9129 28.1146 73.9129 28.1146C72.8843 25.4885 72.1124 15.9818 72.1124 15.9818C72.1124 13.2654 71.0838 10.4584 71.0838 10.4584C69.197 4.75418 64.9955 2.12832 64.9955 2.12832C64.6507 1.91288 64.3011 1.72071 63.9509 1.54536C63.601 1.38545 61.4253 0.42852 58.7523 0.0854252C57.1169 -0.0800159 55.9918 0.0457931 55.9918 0.0457931C55.0941 0.121371 54.2526 0.285199 53.4662 0.514466C52.265 0.940511 51.1272 1.64813 50.161 2.75253C50.161 2.75253 50.1545 2.7334 50.1018 2.72926C46.6204 1.33891 44.0882 8.73398 44.0827 8.75011C43.3372 10.5398 42.658 13.5597 42.658 13.5597L42.1434 19.6033C41.7573 24.7645 39.7639 31.216 39.7639 31.216C38.992 33.593 37.5128 34.7474 37.5128 34.7474C37.8528 35.0914 38.2687 35.3988 38.7397 35.673C39.0103 35.5357 39.6564 35.191 40.2693 34.7366L39.2284 35.9357C41.5371 37.0882 44.8583 37.5776 47.2625 37.7855C49.1009 37.9684 50.0225 37.9369 50.2429 37.9387L64.665 37.9684Z" fill="#89959C"/>
<path id="Fill 43_2" fill-rule="evenodd" clip-rule="evenodd" d="M60.3312 8.68718H54.1815C51.2971 8.68718 48.2434 10.035 46.7798 11.844C45.1618 13.8441 44.6786 16.449 44.6302 18.063C44.5572 20.4973 44.8993 23.3405 45.4895 27.3528C45.8605 29.8776 47.5735 33.957 48.3996 35.1593C49.2097 36.7005 53.5445 40.2479 57.2565 40.2769C60.9686 40.2479 65.3026 36.7005 66.1131 35.1593C66.9396 33.957 68.6518 29.8776 69.0236 27.3528C69.6134 23.3405 69.9559 20.4973 69.8824 18.063C69.8337 16.449 69.3512 13.8441 67.7328 11.844C66.2689 10.035 63.216 8.68718 60.3312 8.68718Z" fill="#FFF1E3" stroke="#89959C" stroke-width="1.6"/>
</g>
</g>
</svg>
