<svg width="38" height="51" viewBox="0 0 38 51" fill="none" xmlns="http://www.w3.org/2000/svg">
<g id="oval">
<path id="Fill 1" fill-rule="evenodd" clip-rule="evenodd" d="M34.8946 37.8247C35.5147 36.1749 37.3827 32.0917 37.3827 32.0917C38.1465 30.7229 37.9859 28.8308 37.9859 28.8308C38.0801 26.8866 37.1543 26.423 36.1402 27.5189C36.2489 26.9174 36.4634 25.611 36.5582 24.9694C37.9316 19.9906 35.6737 13.0627 35.6737 13.0627C35.5117 12.5157 35.6083 12.8184 35.4567 12.4171C34.6386 10.5115 32.7061 6.42391 27.0578 3.27139C21.3631 0.0927029 24.368 0.191004 25.0737 0.0763195C25.0737 0.0763195 17.5765 -0.867887 10.0351 3.88591C10.4784 3.19867 11.3789 2.33753 11.3789 2.33753C8.29214 4.00548 7.32651 5.3222 7.04373 6.09883C6.77392 6.33108 6.50535 6.5728 6.23832 6.82287C3.80232 6.86828 1.74665 9.11885 1.74665 9.11885L3.48559 8.56469C0.504725 9.83111 0.670499 13.2354 0.670499 13.2354L1.88433 12.2579C1.60711 12.6123 1.36848 12.9888 1.16443 13.3826C-0.525427 16.6518 0.210219 21.1383 1.14714 24.3762C1.36046 25.1945 1.66052 26.4129 1.90409 27.6681C-0.445781 25.4768 0.0419743 30.8597 0.0419743 30.8597C0.141069 32.0928 1.22216 33.897 1.22216 33.897C1.77443 35.2692 2.65764 37.2746 2.65764 37.2746C3.32259 39.0087 3.88845 39.1918 4.26353 39.0026C4.66577 40.436 9.97675 49 19.0018 49C28.0262 49 33.2436 40.6487 33.7644 38.6037C34.509 39.1964 34.8946 37.8247 34.8946 37.8247Z" fill="#89959C"/>
<path id="Fill 43" fill-rule="evenodd" clip-rule="evenodd" d="M22.8934 10H15.1065C11.4541 10 7.5874 11.7067 5.73426 13.9972C3.68548 16.5298 3.07355 19.8282 3.01236 21.872C2.91985 24.9544 3.35302 28.5545 4.10035 33.6351C4.57014 36.832 6.73917 41.9975 7.78524 43.5199C8.81107 45.4715 14.2999 49.9632 19.0002 50C23.7005 49.9632 29.1883 45.4715 30.2147 43.5199C31.2612 41.9975 33.4293 36.832 33.9 33.6351C34.6469 28.5545 35.0805 24.9544 34.9875 21.872C34.9259 19.8282 34.3149 16.5298 32.2656 13.9972C30.412 11.7067 26.5462 10 22.8934 10Z" fill="#FFF1E3" stroke="#89959C" stroke-width="2"/>
</g>
</svg>
