<svg width="60" height="60" viewBox="0 0 60 60" fill="none" xmlns="http://www.w3.org/2000/svg">
<path d="M58.75 13.75H43.6387C46.1962 12.295 47.5 10.215 47.5 7.5C47.5 0.7775 43.22 0 40 0C35.8737 0 31.935 4.73625 30 9.5025C28.065 4.73625 24.1275 0 20 0C16.78 0 12.5 0.7775 12.5 7.5C12.5 10.215 13.8037 12.295 16.3612 13.75H1.25C0.56 13.75 0 14.3087 0 15V30C0 30.6912 0.56 31.25 1.25 31.25H3.75H6.25H23.75V16.25H26.25V31.25H33.75V16.25H36.25V31.25H53.75H56.25H58.75C59.44 31.25 60 30.6912 60 30V15C60 14.3087 59.44 13.75 58.75 13.75ZM15 7.5C15 3.3175 16.8337 2.5 20 2.5C23.64 2.5 27.9563 8.94625 28.6525 13.735C22.1325 13.5925 15 12.33 15 7.5ZM31.3475 13.735C32.0437 8.94625 36.36 2.5 40 2.5C43.1662 2.5 45 3.3175 45 7.5C45 12.33 37.8675 13.5925 31.3475 13.735ZM36.25 33.75H53.75V58.75C53.75 59.4412 53.19 60 52.5 60H7.5C6.81 60 6.25 59.4412 6.25 58.75V33.75H23.75V57.5H26.25V33.75H33.75V57.5H36.25V33.75Z" fill="#2196F3"/>
</svg>
