<svg width="79" height="43" viewBox="0 0 79 43" fill="none" xmlns="http://www.w3.org/2000/svg">
<g id="2 Faces">
<g id="oval">
<path id="Fill 1" fill-rule="evenodd" clip-rule="evenodd" d="M26.7007 29.9685C27.2807 30.4223 27.581 29.372 27.581 29.372C28.0641 28.1086 29.5192 24.9819 29.5192 24.9819C30.1141 23.9338 29.9891 22.4849 29.9891 22.4849C30.0624 20.9962 29.3413 20.6411 28.5513 21.4804C28.636 21.0197 28.8031 20.0194 28.8769 19.5281C29.9467 15.7156 28.188 10.4105 28.188 10.4105C28.0617 9.99169 28.137 10.2235 28.0189 9.9162C27.3817 8.45695 25.8764 5.32693 21.4766 2.9129C17.0407 0.478832 19.3814 0.554105 19.9311 0.466286C19.9311 0.466286 14.0912 -0.256737 8.21683 3.38347C8.56214 2.85721 9.26358 2.1978 9.26358 2.1978C6.85916 3.47503 6.10699 4.4833 5.88672 5.078C5.67655 5.25584 5.46735 5.44094 5.25935 5.63243C3.36183 5.66721 1.76057 7.39057 1.76057 7.39057L3.11511 6.96622C0.793178 7.93598 0.922308 10.5428 0.922308 10.5428L1.86782 9.79427C1.65188 10.0656 1.466 10.354 1.30705 10.6555C-0.00925559 13.1589 0.563774 16.5944 1.29359 19.0738C1.45975 19.7004 1.69348 20.6334 1.88321 21.5946C0.0527846 19.9166 0.43272 24.0386 0.43272 24.0386C0.50991 24.9828 1.35202 26.3644 1.35202 26.3644C1.78221 27.4151 2.47019 28.9507 2.47019 28.9507C2.98815 30.2786 3.42892 30.4188 3.72109 30.274C4.03441 31.3716 8.17138 37.9294 15.2014 37.9294C22.2309 37.9294 26.295 31.5345 26.7007 29.9685Z" fill="#89959C"/>
<path id="Fill 43" fill-rule="evenodd" clip-rule="evenodd" d="M18.2175 8.5647H12.1826C9.35201 8.5647 6.35528 9.89566 4.9191 11.6819C3.3313 13.6569 2.85705 16.2291 2.80963 17.8229C2.73793 20.2267 3.07364 23.0342 3.65282 26.9962C4.01691 29.4893 6.18134 33.5176 6.99204 34.7048C7.78706 36.2267 11.5574 41.1635 15.2002 41.1922C18.8429 41.1635 22.6126 36.2267 23.408 34.7048C24.219 33.5176 26.3827 29.4893 26.7476 26.9962C27.3264 23.0342 27.6625 20.2267 27.5904 17.8229C27.5426 16.2291 27.0691 13.6569 25.4809 11.6819C24.0444 9.89566 21.0484 8.5647 18.2175 8.5647Z" fill="#FFF1E3" stroke="#89959C" stroke-width="1.6"/>
</g>
<g id="oval_2">
<path id="Fill 1_2" fill-rule="evenodd" clip-rule="evenodd" d="M66.4046 37.7258C74.6392 37.2328 77.2841 35.6952 78.0806 34.9836L76.7867 33.7841C77.41 34.2121 77.9706 34.4879 78.3759 34.6565C78.3935 34.6297 78.4 34.6149 78.4 34.6149C76.6491 33.2747 75.3979 28.0045 75.3979 28.0045C74.3976 25.4137 73.647 16.0349 73.647 16.0349C73.647 13.355 72.6467 10.5858 72.6467 10.5858C70.8119 4.95828 66.726 2.36773 66.726 2.36773C66.3907 2.15519 66.0508 1.9656 65.7102 1.79261C65.3699 1.63485 63.2541 0.690792 60.6547 0.352312C59.0644 0.189096 57.9703 0.313213 57.9703 0.313213C57.0973 0.387774 56.2789 0.549399 55.5141 0.775582C54.346 1.1959 53.2395 1.894 52.3 2.98354C52.3 2.98354 52.2937 2.96468 52.2424 2.96058C48.8568 1.58893 46.3944 8.88455 46.389 8.90046C45.664 10.6661 45.0036 13.6453 45.0036 13.6453L44.5031 19.6077C44.1277 24.6995 42.1891 31.0642 42.1891 31.0642C41.4385 33.4092 40 34.5481 40 34.5481C40.3307 34.8875 40.7351 35.1907 41.1931 35.4612C41.4563 35.3258 42.0845 34.9857 42.6806 34.5374L41.6684 35.7204C43.9135 36.8574 47.1432 37.3403 49.4812 37.5453C51.2691 37.7258 52.1652 37.6947 52.3796 37.6965L66.4046 37.7258Z" fill="#89959C"/>
<g id="Fill 43_2">
<path fill-rule="evenodd" clip-rule="evenodd" d="M69.2758 11.588C67.8629 9.7612 64.9163 8.4 62.1321 8.4H56.1967C53.4128 8.4 50.4655 9.7612 49.053 11.588C47.4914 13.6079 47.0249 16.2386 46.9783 17.8686C46.9078 20.327 47.2379 23.1983 47.8076 27.2503C48.1657 29.8001 49.3435 33.431 50.1408 34.6452C50.9227 36.2017 55.5819 41.2507 59.1646 41.28C62.7473 41.2507 67.4057 36.2017 68.1879 34.6452C68.9856 33.431 70.1627 29.8001 70.5216 27.2503C71.0908 23.1983 71.4214 20.327 71.3505 17.8686C71.3035 16.2386 70.8378 13.6079 69.2758 11.588Z" fill="#FFF1E3"/>
<path d="M69.2758 11.588C67.8629 9.7612 64.9163 8.4 62.1321 8.4H56.1967C53.4128 8.4 50.4655 9.7612 49.053 11.588C47.4914 13.6079 47.0249 16.2386 46.9783 17.8686C46.9078 20.327 47.2379 23.1983 47.8076 27.2503C48.1657 29.8001 49.3435 33.431 50.1408 34.6452C50.9227 36.2017 55.5819 41.2507 59.1646 41.28C62.7473 41.2507 67.4057 36.2017 68.1879 34.6452C68.9856 33.431 70.1627 29.8001 70.5216 27.2503C71.0908 23.1983 71.4214 20.327 71.3505 17.8686C71.3035 16.2386 70.8378 13.6079 69.2758 11.588" stroke="#89959C" stroke-width="1.824"/>
</g>
</g>
</g>
</svg>
