<svg width="38" height="53" viewBox="0 0 38 53" fill="none" xmlns="http://www.w3.org/2000/svg">
<g id="oval">
<path id="Fill 1" fill-rule="evenodd" clip-rule="evenodd" d="M33.3759 37.4605C34.1009 38.0278 34.4763 36.715 34.4763 36.715C35.0802 35.1357 36.899 31.2274 36.899 31.2274C37.6426 29.9172 37.4863 28.1061 37.4863 28.1061C37.578 26.2452 36.6765 25.8014 35.6891 26.8504C35.7949 26.2746 36.0038 25.0242 36.0961 24.4101C37.4334 19.6444 35.235 13.0131 35.235 13.0131C35.0771 12.4896 35.1712 12.7793 35.0236 12.3952C34.2271 10.5711 32.3455 6.65863 26.8457 3.64108C21.3009 0.598499 24.2267 0.692591 24.9139 0.582817C24.9139 0.582817 17.6139 -0.320961 10.271 4.22929C10.7026 3.57148 11.5794 2.74721 11.5794 2.74721C8.57392 4.34374 7.6337 5.60408 7.35837 6.34746C7.09566 6.56976 6.83416 6.80114 6.57415 7.0405C4.20226 7.08397 2.20068 9.23818 2.20068 9.23818L3.89386 8.70774C0.991442 9.91993 1.15285 13.1785 1.15285 13.1785L2.33474 12.2428C2.06482 12.582 1.83247 12.9424 1.63379 13.3193C-0.0116001 16.4486 0.704687 20.743 1.61695 23.8422C1.82466 24.6255 2.11682 25.7918 2.35398 26.9932C0.0659502 24.8957 0.54087 30.0482 0.54087 30.0482C0.637357 31.2285 1.68999 32.9554 1.68999 32.9554C2.22774 34.2688 3.0877 36.1884 3.0877 36.1884C3.73516 37.8482 4.28612 38.0234 4.65133 37.8424C5.04299 39.2144 10.2142 47.4117 19.0017 47.4117C27.7886 47.4117 32.8688 39.418 33.3759 37.4605Z" fill="#89959C"/>
<path id="Fill 43" fill-rule="evenodd" clip-rule="evenodd" d="M22.7718 10.7058H15.2281C11.6899 10.7058 7.94404 12.3695 6.14881 14.6023C4.16406 17.071 3.57125 20.2863 3.51197 22.2786C3.42235 25.2833 3.84199 28.7927 4.56596 33.7452C5.02107 36.8615 7.72661 41.8969 8.73999 43.3809C9.73376 45.2833 14.4467 51.4543 19.0002 51.4901C23.5536 51.4543 28.2657 45.2833 29.2599 43.3809C30.2738 41.8969 32.9784 36.8615 33.4344 33.7452C34.1579 28.7927 34.578 25.2833 34.4879 22.2786C34.4282 20.2863 33.8363 17.071 31.8511 14.6023C30.0554 12.3695 26.3104 10.7058 22.7718 10.7058Z" fill="#FFF1E3" stroke="#89959C" stroke-width="2"/>
</g>
</svg>
