<svg width="45" height="44" viewBox="0 0 45 44" fill="none" xmlns="http://www.w3.org/2000/svg">
<path fill-rule="evenodd" clip-rule="evenodd" d="M43.8136 39.6695C43.7805 39.5673 43.6592 39.2302 43.6592 39.2302C43.6162 39.1217 43.5717 39.0153 43.5246 38.9129C43.5246 38.9129 43.4654 38.806 43.4267 38.7727C43.0258 38.4324 41.3472 37.1369 37.7878 35.9567C37.7878 35.9567 32.0734 33.6394 31.8035 33.4145C31.5336 33.1895 29.9136 32.4922 29.9136 32.4922C29.9136 32.4922 29.7558 32.2562 29.5773 31.7617C29.4226 31.2726 29.2648 30.5911 29.1866 29.6975L29.1358 29.6796C29.1339 29.6604 29.1314 29.6428 29.1296 29.6234H28.9762L28.3867 29.4159L28.0915 26.7446V25.3553C28.1037 25.3103 28.1176 25.2642 28.1336 25.217C28.3872 24.8778 28.5859 24.5153 28.7413 24.1513C29.0936 23.5407 29.4677 22.6274 29.7374 21.489C30.1235 21.819 30.3234 21.0554 30.3234 21.0554C30.6446 20.137 31.613 17.8641 31.613 17.8641C32.0086 17.1022 31.9254 16.0489 31.9254 16.0489C31.9744 14.9666 31.4946 14.7086 30.969 15.3186C31.0251 14.9838 31.1365 14.2566 31.1854 13.8994C31.8973 11.1279 30.727 7.27144 30.727 7.27144C30.6432 6.96696 30.6931 7.13544 30.6147 6.91208C30.1906 5.85128 29.1891 3.57608 26.2616 1.82104C23.3101 0.0516038 24.8674 0.106324 25.2333 0.0424838C25.2333 0.0424838 21.3474 -0.483116 17.4389 2.16312C17.6686 1.78056 18.1354 1.3012 18.1354 1.3012C16.5355 2.22968 16.035 2.96264 15.8885 3.39496C15.7485 3.52424 15.6094 3.6588 15.4709 3.798C14.2085 3.82328 13.143 5.07608 13.143 5.07608L14.0443 4.7676C12.4992 5.47272 12.5851 7.3676 12.5851 7.3676L13.2144 6.82344C13.0706 7.02072 12.9469 7.23032 12.8413 7.44952C11.9654 9.26952 12.3466 11.7668 12.8322 13.5694C12.9429 14.0247 13.0982 14.703 13.2245 15.4017C12.0066 14.1818 12.2594 17.1783 12.2594 17.1783C12.3107 17.8647 12.871 18.869 12.871 18.869C13.1573 19.6329 13.6152 20.7492 13.6152 20.7492C13.9598 21.7145 14.253 21.8164 14.4475 21.7111C14.656 22.5092 14.9216 23.3756 15.207 23.931C15.207 23.931 15.2178 23.9498 15.2357 23.9812C15.5802 24.818 15.961 25.2079 15.961 25.2079L15.92 27.6108C15.8211 28.5153 15.7213 29.422 15.7213 29.422L14.933 29.633C14.933 29.633 14.7394 31.5262 14.2698 32.5111C13.6187 32.8174 8.07024 35.421 6.67312 35.8446C6.67312 35.8446 2.41824 37.3436 0.75024 38.7926C0.75024 38.7926 0.55088 39.0225 0.50336 39.1322C0.4944 39.1537 0.4864 39.1764 0.4776 39.1983C0.4776 39.1983 0.37472 39.4556 0.3136 39.6534C0.14464 40.189 0.03008 40.7962 0 41.4914V43.1777H44.1251V41.4914C44.0952 40.802 43.9805 40.2017 43.8136 39.6695Z" fill="#5B6971"/>
</svg>
