<svg width="49" height="50" viewBox="0 0 49 50" fill="none" xmlns="http://www.w3.org/2000/svg">
<g id="round">
<path id="Fill 1" fill-rule="evenodd" clip-rule="evenodd" d="M33.6934 46.1538C44.2011 45.5463 47.576 43.6518 48.5924 42.7751L46.9414 41.297C47.7368 41.8244 48.4521 42.1642 48.9693 42.372C48.9917 42.339 49 42.3208 49 42.3208C46.7657 40.6693 45.1693 34.1756 45.1693 34.1756C43.8928 30.9834 42.935 19.4273 42.935 19.4273C42.935 16.1252 41.6586 12.7131 41.6586 12.7131C39.3172 5.77911 34.1036 2.58716 34.1036 2.58716C33.6756 2.32527 33.2419 2.09167 32.8073 1.87852C32.373 1.68413 29.6732 0.520902 26.3562 0.103842C24.3269 -0.0972661 22.9308 0.0556653 22.9308 0.0556653C21.8168 0.147536 20.7726 0.346683 19.7967 0.625377C18.3061 1.14327 16.8942 2.00344 15.6953 3.34593C15.6953 3.34593 15.6872 3.32268 15.6218 3.31764C11.3016 1.62755 8.15949 10.6169 8.1526 10.6365C7.22749 12.812 6.38477 16.4829 6.38477 16.4829L5.74612 23.8295C5.26706 30.1033 2.79341 37.9457 2.79341 37.9457C1.83558 40.8351 0 42.2384 0 42.2384C0.421939 42.6566 0.938024 43.0302 1.52242 43.3635C1.85825 43.1966 2.65994 42.7776 3.42057 42.2252L2.12892 43.6829C4.9938 45.0839 9.11502 45.6788 12.0984 45.9314C14.3798 46.1538 15.5233 46.1155 15.7969 46.1177L33.6934 46.1538Z" fill="#89959C"/>
<path id="Fill 1_2" fill-rule="evenodd" clip-rule="evenodd" d="M8.30942 25.6728C8.2994 29.8046 8.23195 36.1894 11.6338 41.0775C13.8955 44.3271 20.3329 48 24.4328 48C28.6702 48 34.4009 44.5926 36.8638 41.4763C40.1853 37.2735 40.7724 30.6786 40.7691 25.6728C40.7658 20.667 38.2165 10.1539 24.3584 10.1539C10.2318 10.1539 8.31892 21.754 8.30942 25.6728Z" fill="#FFF1E3" stroke="#89959C" stroke-width="2.28"/>
</g>
</svg>
