<svg width="79" height="40" viewBox="0 0 79 40" fill="none" xmlns="http://www.w3.org/2000/svg">
<g id="2Faces">
<g id="round">
<path id="Fill 1" fill-rule="evenodd" clip-rule="evenodd" d="M26.7007 29.6224C27.2807 30.0772 27.581 29.0247 27.581 29.0247C28.0641 27.7587 29.5192 24.6254 29.5192 24.6254C30.1141 23.5751 29.9891 22.1232 29.9891 22.1232C30.0624 20.6314 29.3413 20.2756 28.5513 21.1166C28.636 20.655 28.8031 19.6525 28.8769 19.1602C29.9467 15.3397 28.188 10.0236 28.188 10.0236C28.0617 9.60388 28.137 9.83613 28.0189 9.52823C27.3817 8.06593 25.8764 4.92937 21.4766 2.51029C17.0407 0.0711355 19.3814 0.146566 19.9311 0.0585635C19.9311 0.0585635 14.0912 -0.66597 8.21683 2.98184C8.56214 2.45449 9.26358 1.79369 9.26358 1.79369C6.85916 3.07359 6.10699 4.08397 5.88672 4.67992C5.67655 4.85813 5.46735 5.04362 5.25935 5.23551C3.36183 5.27035 1.76057 6.99732 1.76057 6.99732L3.11511 6.57209C0.793178 7.54387 0.922308 10.1562 0.922308 10.1562L1.86782 9.40604C1.65188 9.67799 1.466 9.96692 1.30705 10.2691C-0.00925559 12.7777 0.563774 16.2204 1.29359 18.705C1.45975 19.3329 1.69348 20.2679 1.88321 21.231C0.0527846 19.5495 0.43272 23.6801 0.43272 23.6801C0.50991 24.6263 1.35202 26.0108 1.35202 26.0108C1.78221 27.0637 2.47019 28.6025 2.47019 28.6025C2.98815 29.9332 3.42892 30.0737 3.72109 29.9285C4.03441 31.0285 8.17138 37.6 15.2014 37.6C22.2309 37.6 26.295 31.1917 26.7007 29.6224Z" fill="#89959C"/>
<path id="Fill 1_2" fill-rule="evenodd" clip-rule="evenodd" d="M2.80158 21.0688C2.79373 24.5483 2.74093 28.9443 5.40401 33.0607C7.1745 35.7973 11.9079 38.4 15.1174 38.4C18.4346 38.4 22.6148 36.0209 24.5428 33.3966C27.143 29.8573 27.6026 25.2843 27.6 21.0688C27.5974 16.8533 25.9077 8 15.0592 8C4.00057 8 2.80902 17.7687 2.80158 21.0688Z" fill="#FFF1E3" stroke="#89959C" stroke-width="1.6"/>
</g>
<g id="round_2">
<path id="Fill 1_3" fill-rule="evenodd" clip-rule="evenodd" d="M66.4046 36.9231C74.6392 36.4371 77.2841 34.9214 78.0806 34.2201L76.7867 33.0376C77.41 33.4595 77.9706 33.7313 78.3759 33.8976C78.3935 33.8712 78.4 33.8566 78.4 33.8566C76.6491 32.5355 75.3979 27.3405 75.3979 27.3405C74.3976 24.7867 73.647 15.5418 73.647 15.5418C73.647 12.9002 72.6467 10.1705 72.6467 10.1705C70.8119 4.62329 66.726 2.06973 66.726 2.06973C66.3907 1.86021 66.0508 1.67334 65.7102 1.50281C65.3699 1.34731 63.2541 0.416721 60.6547 0.0830732C59.0644 -0.0778129 57.9703 0.0445323 57.9703 0.0445323C57.0973 0.118029 56.2789 0.277347 55.5141 0.500301C54.346 0.914617 53.2395 1.60275 52.3 2.67675C52.3 2.67675 52.2937 2.65815 52.2424 2.65411C48.8568 1.30204 46.3944 8.49352 46.389 8.5092C45.664 10.2496 45.0036 13.1863 45.0036 13.1863L44.5031 19.0636C44.1277 24.0827 42.1891 30.3565 42.1891 30.3565C41.4385 32.6681 40 33.7907 40 33.7907C40.3307 34.1253 40.7351 34.4242 41.1931 34.6908C41.4563 34.5573 42.0845 34.2221 42.6806 33.7802L41.6684 34.9463C43.9135 36.0671 47.1432 36.543 49.4812 36.7452C51.2691 36.9231 52.1652 36.8924 52.3796 36.8942L66.4046 36.9231Z" fill="#89959C"/>
<path id="Fill 1_4" fill-rule="evenodd" clip-rule="evenodd" d="M45.8475 20.5382C45.8395 23.8437 45.7855 28.9515 48.5071 32.862C50.3164 35.4617 55.4663 38.4 58.7462 38.4C62.1361 38.4 66.7207 35.6741 68.691 33.1811C71.3482 29.8188 71.8179 24.5429 71.8153 20.5382C71.8127 16.5335 69.7732 8.12308 58.6867 8.12308C47.3854 8.12308 45.8551 17.4032 45.8475 20.5382Z" fill="#FFF1E3" stroke="#89959C" stroke-width="1.824"/>
</g>
</g>
</svg>
