<svg width="38" height="49" viewBox="0 0 38 49" fill="none" xmlns="http://www.w3.org/2000/svg">
<g id="round">
<path id="Fill 1" fill-rule="evenodd" clip-rule="evenodd" d="M33.3759 37.028C34.1009 37.5965 34.4763 36.2809 34.4763 36.2809C35.0802 34.6984 36.899 30.7818 36.899 30.7818C37.6426 29.4689 37.4863 27.654 37.4863 27.654C37.578 25.7892 36.6765 25.3445 35.6891 26.3957C35.7949 25.8187 36.0038 24.5656 36.0961 23.9503C37.4334 19.1747 35.235 12.5295 35.235 12.5295C35.0771 12.0049 35.1712 12.2952 35.0236 11.9103C34.2271 10.0824 32.3455 6.16171 26.8457 3.13786C21.3009 0.0889192 24.2267 0.183208 24.9139 0.0732044C24.9139 0.0732044 17.6139 -0.832463 10.271 3.7273C10.7026 3.06811 11.5794 2.24212 11.5794 2.24212C8.57392 3.84199 7.6337 5.10496 7.35837 5.8499C7.09566 6.07266 6.83416 6.30453 6.57415 6.54438C4.20226 6.58794 2.20068 8.74666 2.20068 8.74666L3.89386 8.21511C0.991442 9.42984 1.15285 12.6952 1.15285 12.6952L2.33474 11.7576C2.06482 12.0975 1.83247 12.4587 1.63379 12.8364C-0.0116001 15.9721 0.704687 20.2755 1.61695 23.3812C1.82466 24.1662 2.11682 25.3348 2.35398 26.5388C0.0659502 24.4369 0.54087 29.6002 0.54087 29.6002C0.637357 30.7829 1.68999 32.5135 1.68999 32.5135C2.22774 33.8296 3.0877 35.7532 3.0877 35.7532C3.73516 37.4165 4.28612 37.5921 4.65133 37.4107C5.04299 38.7856 10.2142 47 19.0017 47C27.7886 47 32.8688 38.9896 33.3759 37.028Z" fill="#89959C"/>
<path id="Fill 1_2" fill-rule="evenodd" clip-rule="evenodd" d="M3.50191 26.336C3.49211 30.6853 3.4261 36.1804 6.75496 41.3259C8.96807 44.7466 14.8849 48 18.8967 48C23.0431 48 28.2684 45.0261 30.6785 41.7458C33.9287 37.3217 34.5032 31.6054 34.5 26.336C34.4967 21.0666 32.3845 10 18.8239 10C5.00065 10 3.51121 22.2109 3.50191 26.336Z" fill="#FFF1E3" stroke="#89959C" stroke-width="2"/>
</g>
</svg>
