<svg width="69" height="23" viewBox="0 0 69 23" fill="none" xmlns="http://www.w3.org/2000/svg">
<g id="cat eye">
<path id="Path 2" fill-rule="evenodd" clip-rule="evenodd" d="M4.90877 2.90048C11.4554 2.25882 28.3234 3.4919 29.9903 7.19761C31.5073 13.4287 28.2568 17.6123 25.4824 19.5107C22.708 21.4092 10.4702 22.8699 5.88182 14.0419C1.29345 5.21387 3.2329 6.65283 4.90877 2.90048Z" fill="url(#paint0_linear_1_1996)"/>
<path id="Path 2_2" fill-rule="evenodd" clip-rule="evenodd" d="M64.4225 2.90048C57.8759 2.25882 41.0079 3.4919 39.341 7.19761C37.4971 14.1125 42.3176 18.4502 43.8489 19.5107C45.6795 21.0571 57.857 24.165 63.4495 14.0419C68.0379 5.21387 66.0984 6.65283 64.4225 2.90048Z" fill="url(#paint1_linear_1_1996)"/>
<g id="Fill 1">
<path fill-rule="evenodd" clip-rule="evenodd" d="M64.2457 7.20117C64.2457 14.9776 58.151 20.5712 50.4728 20.5712C42.7945 20.5712 39.3379 15.725 39.1875 10.6351C39.0972 6.64244 45.2665 4.60035 51.8821 3.22881C59.1699 2.37541 64.3761 2.22303 64.2457 7.20117ZM29.9893 10.6351C29.8388 15.725 26.3795 20.5712 18.6951 20.5712C11.0108 20.5712 4.91116 14.9776 4.91116 7.20117C4.78067 2.22303 9.99104 2.37541 17.2846 3.22881C23.9055 4.60035 30.0797 6.64244 29.9893 10.6351ZM68.1479 4.53936C68.3285 0.231728 58.7486 1.06481 58.7486 1.06481C49.4796 0.912426 38.7361 5.83983 38.7361 5.83983C37.2236 6.66467 34.7538 6.73019 34.5903 6.73368C34.4265 6.73019 31.9548 6.66467 30.4411 5.83983C30.4411 5.83983 19.689 0.912426 10.4127 1.06481C10.4127 1.06481 0.825201 0.231728 1.0059 4.53936C1.0059 4.53936 0.534035 12.0981 8.03338 18.2549C8.03338 18.2549 12.8522 22.3389 18.8156 22.0952C18.8156 22.0952 25.5319 22.278 29.2364 17.4014C29.2364 17.4014 30.923 14.7869 32.1277 11.5528C32.1277 11.5528 32.3114 10.0498 34.5903 9.98526C36.8673 10.0498 37.0508 11.5528 37.0508 11.5528C38.2546 14.7869 39.9398 17.4014 39.9398 17.4014C43.6414 22.278 50.3523 22.0952 50.3523 22.0952C56.311 22.3389 61.126 18.2549 61.126 18.2549C68.6194 12.0981 68.1479 4.53936 68.1479 4.53936Z" fill="#3A4850"/>
<path d="M39.1875 10.6351L38.9375 10.6408L38.9376 10.6425L39.1875 10.6351ZM51.8821 3.22881L51.8531 2.98051L51.8421 2.98179L51.8314 2.98402L51.8821 3.22881ZM4.91116 7.20117H5.16124L5.16107 7.19462L4.91116 7.20117ZM17.2846 3.22881L17.3353 2.98401L17.3246 2.98178L17.3137 2.98051L17.2846 3.22881ZM58.7486 1.06481L58.7445 1.31477L58.7574 1.31498L58.7702 1.31387L58.7486 1.06481ZM38.7361 5.83983L38.6319 5.61259L38.624 5.6162L38.6164 5.62034L38.7361 5.83983ZM34.5903 6.73368L34.5849 6.98385L34.5956 6.98362L34.5903 6.73368ZM30.4411 5.83983L30.5607 5.6203L30.5531 5.61616L30.5453 5.61256L30.4411 5.83983ZM10.4127 1.06481L10.3911 1.31387L10.4039 1.31498L10.4168 1.31477L10.4127 1.06481ZM1.0059 4.53936L1.25541 4.55494L1.25622 4.54192L1.25568 4.52889L1.0059 4.53936ZM8.03338 18.2549L8.19504 18.0641L8.19201 18.0616L8.03338 18.2549ZM18.8156 22.0952L18.8224 21.8452L18.8139 21.845L18.8054 21.8454L18.8156 22.0952ZM29.2364 17.4014L29.4354 17.5527L29.4412 17.545L29.4464 17.537L29.2364 17.4014ZM32.1277 11.5528L32.362 11.6401L32.3723 11.6125L32.3758 11.5832L32.1277 11.5528ZM34.5903 9.98526L34.5973 9.73536L34.5903 9.73516L34.5832 9.73536L34.5903 9.98526ZM37.0508 11.5528L36.8026 11.5831L36.8062 11.6124L36.8165 11.64L37.0508 11.5528ZM39.9398 17.4014L39.7297 17.5369L39.7349 17.545L39.7407 17.5526L39.9398 17.4014ZM50.3523 22.0952L50.3625 21.8454L50.354 21.845L50.3455 21.8452L50.3523 22.0952ZM61.126 18.2549L60.9673 18.0617L60.9643 18.0642L61.126 18.2549ZM63.9957 7.20117C63.9957 14.8287 58.024 20.3212 50.4728 20.3212V20.8212C58.2779 20.8212 64.4957 15.1265 64.4957 7.20117H63.9957ZM50.4728 20.3212C46.6886 20.3212 43.9725 19.1286 42.1842 17.3354C40.3933 15.5396 39.511 13.1196 39.4374 10.6277L38.9376 10.6425C39.0144 13.2405 39.9356 15.7886 41.8302 17.6884C43.7273 19.5908 46.5786 20.8212 50.4728 20.8212V20.3212ZM39.4374 10.6295C39.3958 8.78771 40.7925 7.34438 43.132 6.17257C45.4592 5.00696 48.6284 4.15869 51.9329 3.47361L51.8314 2.98402C48.5202 3.67047 45.2969 4.52901 42.9081 5.72551C40.5317 6.91579 38.8889 8.48985 38.9375 10.6408L39.4374 10.6295ZM51.9112 3.47712C55.564 3.04937 58.6445 2.80541 60.7926 3.27245C61.8607 3.50468 62.6694 3.90713 63.205 4.52419C63.7373 5.13749 64.0273 5.99466 63.9958 7.19462L64.4957 7.20772C64.5294 5.9186 64.2175 4.92802 63.5826 4.19646C62.9509 3.46866 62.027 3.02914 60.8989 2.78387C58.6546 2.29592 55.488 2.55485 51.8531 2.98051L51.9112 3.47712ZM29.7394 10.6277C29.6657 13.1196 28.7827 15.5395 26.9905 17.3353C25.2007 19.1286 22.4824 20.3212 18.6951 20.3212V20.8212C22.5923 20.8212 25.4458 19.5908 27.3444 17.6885C29.2404 15.7887 30.1624 13.2406 30.2392 10.6425L29.7394 10.6277ZM18.6951 20.3212C11.1376 20.3212 5.16116 14.8285 5.16116 7.20117H4.66116C4.66116 15.1267 10.884 20.8212 18.6951 20.8212V20.3212ZM5.16107 7.19462C5.12962 5.99471 5.41982 5.13757 5.95254 4.52427C6.48856 3.90718 7.29792 3.5047 8.36694 3.27246C10.5169 2.8054 13.5999 3.04938 17.2556 3.47712L17.3137 2.98051C13.6758 2.55485 10.5068 2.29593 8.26079 2.78386C7.13183 3.02912 6.20722 3.46861 5.57506 4.19638C4.93962 4.92794 4.62745 5.91856 4.66124 7.20772L5.16107 7.19462ZM17.2339 3.47362C20.541 4.1587 23.7128 5.00698 26.0418 6.1726C28.3833 7.34447 29.7811 8.78782 29.7394 10.6295L30.2393 10.6408C30.2879 8.48975 28.6438 6.91571 26.2656 5.72547C23.8749 4.529 20.6491 3.67046 17.3353 2.98401L17.2339 3.47362ZM68.3977 4.54983C68.4477 3.35684 67.8117 2.52564 66.8848 1.96524C65.9688 1.41145 64.7485 1.10585 63.5504 0.939108C62.3473 0.771668 61.1419 0.741084 60.2396 0.751963C59.7878 0.757409 59.4107 0.77327 59.1462 0.787799C59.0138 0.795066 58.9096 0.802003 58.8382 0.807148C58.8024 0.80972 58.7749 0.811845 58.7562 0.813339C58.7468 0.814086 58.7396 0.814675 58.7347 0.815084C58.7323 0.815288 58.7304 0.815448 58.7291 0.815559C58.7284 0.815615 58.7279 0.815658 58.7276 0.81569C58.7274 0.815705 58.7272 0.81572 58.7271 0.815727C58.727 0.815738 58.7269 0.815746 58.7486 1.06481C58.7702 1.31387 58.7702 1.31387 58.7702 1.31387C58.7703 1.31386 58.7703 1.31386 58.7705 1.31385C58.7707 1.31383 58.771 1.3138 58.7715 1.31375C58.7726 1.31367 58.7741 1.31353 58.7763 1.31335C58.7806 1.31299 58.7872 1.31245 58.7959 1.31176C58.8134 1.31036 58.8397 1.30833 58.8741 1.30586C58.9429 1.3009 59.0443 1.29415 59.1736 1.28705C59.4322 1.27284 59.8021 1.25727 60.2456 1.25193C61.1339 1.24122 62.3122 1.27159 63.4815 1.43433C64.6558 1.59777 65.7966 1.89159 66.6261 2.39312C67.4447 2.88804 67.9384 3.56807 67.8981 4.52889L68.3977 4.54983ZM58.7527 0.81484C54.0785 0.737997 49.0454 1.94091 45.1913 3.15676C43.262 3.76538 41.6235 4.37875 40.467 4.8401C39.8887 5.0708 39.4307 5.26357 39.1169 5.39882C38.96 5.46645 38.8391 5.51971 38.7573 5.55615C38.7164 5.57437 38.6853 5.58839 38.6642 5.5979C38.6537 5.60265 38.6457 5.60628 38.6403 5.60874C38.6376 5.60997 38.6356 5.61091 38.6342 5.61155C38.6335 5.61187 38.6329 5.61212 38.6325 5.61229C38.6323 5.61238 38.6322 5.61245 38.6321 5.6125C38.632 5.61255 38.6319 5.61259 38.7361 5.83983C38.8403 6.06707 38.8403 6.06707 38.8404 6.06705C38.8405 6.06701 38.8405 6.06697 38.8407 6.06691C38.841 6.06678 38.8414 6.06658 38.842 6.06631C38.8432 6.06576 38.8451 6.06491 38.8475 6.06377C38.8525 6.0615 38.8601 6.05806 38.8702 6.0535C38.8904 6.04437 38.9207 6.03073 38.9607 6.0129C39.0408 5.97724 39.1598 5.92478 39.3148 5.85798C39.6248 5.72436 40.0785 5.53337 40.6522 5.30451C41.7998 4.84673 43.4265 4.23777 45.3417 3.63359C49.1766 2.42383 54.1497 1.23923 58.7445 1.31477L58.7527 0.81484ZM38.6164 5.62034C37.9 6.01104 36.9401 6.22863 36.1214 6.34735C35.3084 6.46526 34.6611 6.48211 34.5849 6.48374L34.5956 6.98362C34.683 6.98176 35.3524 6.96411 36.1932 6.84217C37.0284 6.72105 38.0597 6.49345 38.8558 6.05931L38.6164 5.62034ZM34.5956 6.48374C34.5193 6.48211 33.8715 6.46526 33.0578 6.34735C32.2384 6.22862 31.2778 6.01103 30.5607 5.6203L30.3215 6.05935C31.1182 6.49347 32.1502 6.72106 32.9861 6.84218C33.8275 6.96411 34.4975 6.98176 34.5849 6.98362L34.5956 6.48374ZM30.4411 5.83983C30.5453 5.61256 30.5452 5.61252 30.5451 5.61246C30.545 5.61242 30.5448 5.61235 30.5446 5.61226C30.5442 5.61209 30.5437 5.61184 30.543 5.61152C30.5416 5.61088 30.5395 5.60994 30.5368 5.60871C30.5314 5.60625 30.5234 5.60262 30.5129 5.59787C30.4919 5.58836 30.4607 5.57434 30.4197 5.55612C30.3378 5.51968 30.2169 5.46642 30.0599 5.39879C29.7459 5.26354 29.2875 5.07077 28.7087 4.84007C27.5513 4.37872 25.9115 3.76536 23.9807 3.15674C20.1235 1.9409 15.0864 0.737998 10.4086 0.81484L10.4168 1.31477C15.0153 1.23923 19.9924 2.42384 23.8304 3.63361C25.7471 4.23779 27.3751 4.84676 28.5236 5.30453C29.0978 5.53339 29.5519 5.72439 29.8621 5.85801C30.0172 5.92481 30.1363 5.97727 30.2165 6.01293C30.2565 6.03076 30.2868 6.0444 30.3071 6.05353C30.3172 6.05809 30.3247 6.06153 30.3297 6.06381C30.3322 6.06494 30.3341 6.06579 30.3353 6.06634C30.3359 6.06661 30.3363 6.06682 30.3366 6.06694C30.3368 6.06701 30.3368 6.06704 30.3369 6.06708C30.337 6.0671 30.337 6.0671 30.4411 5.83983ZM10.4127 1.06481C10.4343 0.815745 10.4342 0.815737 10.4341 0.815726C10.434 0.815718 10.4339 0.815704 10.4337 0.815688C10.4333 0.815657 10.4328 0.815613 10.4322 0.815558C10.4308 0.815446 10.429 0.815287 10.4265 0.815083C10.4216 0.814674 10.4144 0.814085 10.4051 0.813338C10.3863 0.811844 10.3588 0.809719 10.323 0.807147C10.2515 0.802003 10.1472 0.795065 10.0148 0.787799C9.75 0.773269 9.37259 0.757409 8.92048 0.751963C8.01744 0.741084 6.8111 0.771667 5.6071 0.939104C4.40809 1.10585 3.18684 1.41143 2.2702 1.9652C1.34268 2.52555 0.706068 3.35675 0.756115 4.54984L1.25568 4.52889C1.21538 3.56816 1.70944 2.88813 2.52875 2.39316C3.35895 1.89161 4.50069 1.59778 5.67597 1.43434C6.84625 1.27159 8.02549 1.24122 8.91446 1.25193C9.35836 1.25727 9.72856 1.27285 9.98739 1.28705C10.1168 1.29415 10.2183 1.3009 10.2871 1.30586C10.3216 1.30833 10.3478 1.31036 10.3653 1.31176C10.3741 1.31246 10.3807 1.313 10.385 1.31336C10.3871 1.31353 10.3887 1.31367 10.3897 1.31376C10.3903 1.3138 10.3906 1.31383 10.3908 1.31385C10.3909 1.31386 10.391 1.31386 10.3911 1.31387C10.3911 1.31387 10.3911 1.31387 10.4127 1.06481ZM1.0059 4.53936C0.756381 4.52379 0.756371 4.52394 0.75636 4.52413C0.756354 4.52423 0.756341 4.52444 0.756329 4.52464C0.756305 4.52504 0.756274 4.52555 0.756237 4.52618C0.756164 4.52744 0.756066 4.52916 0.755948 4.53133C0.755713 4.53568 0.755397 4.54184 0.755033 4.54979C0.754304 4.56569 0.753383 4.58872 0.752529 4.61861C0.75082 4.6784 0.749377 4.76565 0.750275 4.87817C0.75207 5.10319 0.763226 5.42939 0.800365 5.83918C0.874629 6.65862 1.05288 7.81327 1.46847 9.16195C2.30018 11.861 4.0818 15.3342 7.87475 18.4481L8.19201 18.0616C4.48561 15.0188 2.75349 11.6342 1.9463 9.01471C1.54244 7.7041 1.36994 6.58427 1.29832 5.79405C1.26252 5.39901 1.25195 5.08658 1.25026 4.87418C1.24941 4.76799 1.25078 4.68684 1.25232 4.6329C1.2531 4.60593 1.25391 4.58576 1.25451 4.57268C1.25481 4.56614 1.25505 4.56136 1.25522 4.5584C1.2553 4.55691 1.25535 4.55588 1.25539 4.5553C1.25541 4.55501 1.25542 4.55484 1.25542 4.55478C1.25542 4.55475 1.25542 4.55479 1.25542 4.55477C1.25542 4.55484 1.25541 4.55494 1.0059 4.53936ZM8.03338 18.2549C7.87174 18.4456 7.87182 18.4456 7.87191 18.4457C7.87197 18.4458 7.87209 18.4459 7.8722 18.446C7.87243 18.4461 7.87273 18.4464 7.8731 18.4467C7.87385 18.4473 7.87489 18.4482 7.87622 18.4493C7.87889 18.4516 7.88272 18.4548 7.8877 18.4589C7.89767 18.4672 7.91225 18.4792 7.93132 18.4947C7.96948 18.5257 8.02563 18.5706 8.0989 18.6274C8.24541 18.741 8.46042 18.9022 8.73674 19.0944C9.2892 19.4787 10.0878 19.9879 11.075 20.4893C13.0467 21.4908 15.786 22.4692 18.8258 22.3449L18.8054 21.8454C15.8818 21.9649 13.23 21.0231 11.3014 20.0435C10.3385 19.5544 9.55969 19.0578 9.02226 18.6839C8.75364 18.4971 8.54559 18.3411 8.40527 18.2323C8.33512 18.1779 8.28193 18.1353 8.24658 18.1066C8.22891 18.0923 8.2157 18.0814 8.20707 18.0742C8.20275 18.0706 8.19958 18.068 8.19757 18.0663C8.19656 18.0654 8.19584 18.0648 8.19542 18.0645C8.1952 18.0643 8.19506 18.0642 8.195 18.0641C8.19496 18.0641 8.19497 18.0641 8.19495 18.0641C8.19497 18.0641 8.19502 18.0641 8.03338 18.2549ZM18.8156 22.0952C18.8088 22.3451 18.8089 22.3451 18.8091 22.3451C18.8092 22.3451 18.8093 22.3451 18.8095 22.3451C18.8098 22.3451 18.8102 22.3451 18.8108 22.3451C18.8118 22.3451 18.8133 22.3452 18.8152 22.3452C18.8189 22.3453 18.8242 22.3454 18.8312 22.3455C18.845 22.3457 18.8651 22.3459 18.8912 22.346C18.9434 22.3462 19.0196 22.3457 19.1174 22.3434C19.3129 22.3388 19.5949 22.3266 19.9443 22.2966C20.6428 22.2366 21.6126 22.1051 22.7004 21.8188C24.8732 21.2469 27.5372 20.0514 29.4354 17.5527L29.0373 17.2502C27.231 19.628 24.6847 20.7794 22.5732 21.3352C21.5188 21.6128 20.5781 21.7403 19.9015 21.7984C19.5634 21.8275 19.2918 21.8391 19.1055 21.8436C19.0124 21.8458 18.9407 21.8462 18.8927 21.846C18.8687 21.8459 18.8506 21.8457 18.8388 21.8456C18.8329 21.8455 18.8286 21.8454 18.8258 21.8453C18.8245 21.8453 18.8235 21.8453 18.8229 21.8453C18.8226 21.8452 18.8224 21.8452 18.8224 21.8452C18.8223 21.8452 18.8223 21.8452 18.8223 21.8452C18.8224 21.8452 18.8224 21.8452 18.8156 22.0952ZM29.2364 17.4014C29.4464 17.537 29.4465 17.5369 29.4465 17.5369C29.4465 17.5369 29.4465 17.5368 29.4466 17.5367C29.4467 17.5366 29.4468 17.5365 29.4469 17.5363C29.4471 17.5359 29.4475 17.5354 29.4479 17.5347C29.4488 17.5333 29.4501 17.5312 29.4518 17.5286C29.4552 17.5233 29.4602 17.5154 29.4667 17.5052C29.4797 17.4847 29.4988 17.4545 29.5234 17.415C29.5726 17.336 29.644 17.2199 29.7332 17.0708C29.9118 16.7725 30.1621 16.3414 30.4501 15.8089C31.0259 14.7444 31.7543 13.2713 32.362 11.6401L31.8934 11.4656C31.2963 13.0684 30.5791 14.5196 30.0104 15.571C29.7262 16.0963 29.4795 16.521 29.3042 16.814C29.2165 16.9605 29.1467 17.074 29.099 17.1506C29.0751 17.1889 29.0568 17.218 29.0445 17.2374C29.0383 17.2471 29.0337 17.2543 29.0306 17.2591C29.0291 17.2615 29.028 17.2633 29.0273 17.2644C29.0269 17.265 29.0266 17.2654 29.0265 17.2656C29.0264 17.2658 29.0263 17.2659 29.0263 17.2659C29.0263 17.2659 29.0263 17.2659 29.0263 17.2659C29.0263 17.2659 29.0263 17.2659 29.2364 17.4014ZM32.1277 11.5528C32.3758 11.5832 32.3758 11.5833 32.3758 11.5835C32.3758 11.5836 32.3758 11.5837 32.3758 11.5838C32.3757 11.584 32.3757 11.5842 32.3757 11.5844C32.3756 11.5847 32.3756 11.5849 32.3756 11.585C32.3756 11.5853 32.3756 11.5852 32.3756 11.5848C32.3758 11.584 32.3761 11.5818 32.3767 11.5784C32.3778 11.5717 32.38 11.56 32.3837 11.5441C32.391 11.5123 32.4041 11.4639 32.4263 11.4042C32.4707 11.2848 32.5511 11.122 32.6938 10.9565C32.9727 10.6328 33.5184 10.2657 34.5973 10.2352L34.5832 9.73536C33.3832 9.76936 32.6977 10.1861 32.315 10.6301C32.1269 10.8483 32.0189 11.0654 31.9577 11.2298C31.9271 11.312 31.908 11.3815 31.8964 11.4321C31.8906 11.4575 31.8866 11.4782 31.8839 11.4934C31.8826 11.5011 31.8816 11.5074 31.8809 11.5123C31.8806 11.5147 31.8803 11.5168 31.88 11.5185C31.8799 11.5193 31.8798 11.5201 31.8797 11.5208C31.8797 11.5211 31.8797 11.5214 31.8796 11.5217C31.8796 11.5219 31.8796 11.5221 31.8796 11.5221C31.8795 11.5223 31.8795 11.5225 32.1277 11.5528ZM34.5832 10.2352C35.6611 10.2657 36.2063 10.6328 36.485 10.9564C36.6275 11.1219 36.7078 11.2847 36.7522 11.4041C36.7744 11.4638 36.7875 11.5122 36.7948 11.5441C36.7985 11.56 36.8006 11.5716 36.8018 11.5784C36.8024 11.5818 36.8027 11.5839 36.8028 11.5847C36.8029 11.5852 36.8029 11.5852 36.8029 11.585C36.8029 11.5848 36.8028 11.5846 36.8028 11.5843C36.8028 11.5842 36.8027 11.584 36.8027 11.5838C36.8027 11.5837 36.8027 11.5835 36.8027 11.5835C36.8027 11.5833 36.8026 11.5831 37.0508 11.5528C37.299 11.5225 37.2989 11.5224 37.2989 11.5222C37.2989 11.5221 37.2989 11.5219 37.2989 11.5217C37.2988 11.5215 37.2988 11.5212 37.2987 11.5208C37.2987 11.5201 37.2986 11.5194 37.2984 11.5185C37.2982 11.5168 37.2979 11.5147 37.2976 11.5123C37.2968 11.5074 37.2959 11.5011 37.2945 11.4935C37.2919 11.4782 37.2879 11.4575 37.2821 11.4322C37.2705 11.3816 37.2515 11.3121 37.2209 11.2298C37.1597 11.0654 37.0518 10.8484 36.8639 10.6301C36.4815 10.1861 35.7965 9.76937 34.5973 9.73536L34.5832 10.2352ZM36.8165 11.64C37.4237 13.2712 38.1515 14.7443 38.7268 15.8088C39.0146 16.3413 39.2647 16.7724 39.4431 17.0707C39.5323 17.2199 39.6036 17.3359 39.6528 17.4149C39.6774 17.4544 39.6965 17.4846 39.7094 17.5051C39.7159 17.5154 39.7209 17.5232 39.7243 17.5285C39.726 17.5312 39.7273 17.5332 39.7282 17.5346C39.7287 17.5353 39.729 17.5358 39.7293 17.5362C39.7294 17.5364 39.7295 17.5366 39.7296 17.5367C39.7296 17.5367 39.7296 17.5368 39.7296 17.5368C39.7297 17.5369 39.7297 17.5369 39.9398 17.4014C40.15 17.266 40.15 17.266 40.15 17.266C40.15 17.266 40.15 17.266 40.1499 17.266C40.1499 17.2659 40.1499 17.2658 40.1498 17.2657C40.1496 17.2655 40.1493 17.2651 40.149 17.2645C40.1483 17.2633 40.1471 17.2616 40.1456 17.2592C40.1425 17.2544 40.1379 17.2472 40.1318 17.2375C40.1195 17.2181 40.1011 17.189 40.0773 17.1507C40.0296 17.074 39.9598 16.9605 39.8723 16.8141C39.697 16.5211 39.4506 16.0964 39.1667 15.571C38.5984 14.5197 37.8817 13.0685 37.2851 11.4656L36.8165 11.64ZM39.7407 17.5526C41.6374 20.0514 44.2994 21.2468 46.4705 21.8188C47.5574 22.1051 48.5266 22.2366 49.2245 22.2966C49.5737 22.3266 49.8554 22.3388 50.0508 22.3434C50.1485 22.3457 50.2246 22.3462 50.2768 22.346C50.3029 22.3459 50.323 22.3457 50.3368 22.3455C50.3437 22.3454 50.3491 22.3453 50.3528 22.3452C50.3547 22.3452 50.3561 22.3451 50.3572 22.3451C50.3577 22.3451 50.3581 22.3451 50.3585 22.3451C50.3586 22.3451 50.3588 22.3451 50.3589 22.3451C50.359 22.3451 50.3591 22.3451 50.3523 22.0952C50.3455 21.8452 50.3456 21.8452 50.3456 21.8452C50.3456 21.8452 50.3456 21.8452 50.3456 21.8452C50.3455 21.8452 50.3453 21.8452 50.345 21.8453C50.3445 21.8453 50.3435 21.8453 50.3421 21.8453C50.3394 21.8454 50.335 21.8455 50.3291 21.8456C50.3173 21.8457 50.2993 21.8459 50.2753 21.846C50.2274 21.8462 50.1557 21.8458 50.0627 21.8436C49.8766 21.8391 49.6052 21.8275 49.2673 21.7984C48.5913 21.7403 47.6513 21.6128 46.5979 21.3353C44.4881 20.7795 41.9438 19.6281 40.139 17.2503L39.7407 17.5526ZM50.3421 22.3449C53.3796 22.4692 56.1168 21.4908 58.087 20.4893C59.0734 19.9878 59.8714 19.4787 60.4234 19.0944C60.6995 18.9021 60.9144 18.741 61.0607 18.6274C61.134 18.5706 61.1901 18.5256 61.2282 18.4946C61.2473 18.4791 61.2618 18.4671 61.2718 18.4589C61.2768 18.4547 61.2806 18.4515 61.2833 18.4493C61.2846 18.4482 61.2856 18.4473 61.2864 18.4467C61.2867 18.4463 61.287 18.4461 61.2873 18.4459C61.2874 18.4458 61.2875 18.4457 61.2876 18.4457C61.2877 18.4456 61.2877 18.4455 61.126 18.2549C60.9643 18.0642 60.9643 18.0642 60.9644 18.0641C60.9644 18.0642 60.9644 18.0642 60.9643 18.0642C60.9643 18.0642 60.9641 18.0644 60.9639 18.0645C60.9635 18.0649 60.9628 18.0655 60.9618 18.0663C60.9597 18.068 60.9566 18.0707 60.9523 18.0743C60.9436 18.0814 60.9304 18.0923 60.9128 18.1067C60.8775 18.1354 60.8243 18.178 60.7542 18.2324C60.614 18.3411 60.4061 18.4971 60.1377 18.684C59.6007 19.0578 58.8225 19.5545 57.8604 20.0436C55.9334 21.0231 53.2837 21.9649 50.3625 21.8454L50.3421 22.3449ZM61.2847 18.448C65.0747 15.3341 66.8549 11.8609 67.6859 9.1619C68.1012 7.81323 68.2793 6.6586 68.3535 5.83916C68.3906 5.42938 68.4017 5.10319 68.4035 4.87817C68.4044 4.76565 68.403 4.6784 68.4013 4.61862C68.4004 4.58872 68.3995 4.56569 68.3988 4.5498C68.3984 4.54185 68.3981 4.53569 68.3979 4.53135C68.3978 4.52917 68.3977 4.52745 68.3976 4.5262C68.3975 4.52557 68.3975 4.52505 68.3975 4.52465C68.3975 4.52445 68.3975 4.52424 68.3975 4.52414C68.3975 4.52395 68.3974 4.5238 68.1479 4.53936C67.8984 4.55493 67.8984 4.55483 67.8984 4.55476C67.8984 4.55478 67.8984 4.55473 67.8984 4.55477C67.8984 4.55483 67.8984 4.555 67.8984 4.55529C67.8985 4.55587 67.8985 4.5569 67.8986 4.55839C67.8988 4.56135 67.899 4.56613 67.8993 4.57267C67.8999 4.58575 67.9007 4.60592 67.9015 4.63289C67.903 4.68684 67.9044 4.76799 67.9036 4.87419C67.9019 5.08659 67.8913 5.39902 67.8555 5.79407C67.784 6.5843 67.6116 7.70414 67.2081 9.01476C66.4015 11.6343 64.6707 15.0189 60.9673 18.0617L61.2847 18.448Z" fill="#3A4850"/>
</g>
<g id="Group">
<path id="Fill 8" d="M16.3348 9.62699C16.2685 9.5607 16.1607 9.5607 16.0944 9.62699L11.5052 14.2163C11.4389 14.2825 11.4389 14.3903 11.5052 14.4566C11.5385 14.4899 11.582 14.5066 11.6252 14.5066C11.6687 14.5066 11.7122 14.4899 11.7455 14.4566L16.3348 9.86733C16.4011 9.80104 16.4011 9.69328 16.3348 9.62699" stroke="#B0BDC5" stroke-width="0.55"/>
<path id="Fill 10" d="M22.8934 7.24735L13.8848 16.2559C13.8185 16.3222 13.8185 16.43 13.8848 16.4963C13.9181 16.5296 13.9616 16.5462 14.0051 16.5462C14.0483 16.5462 14.0918 16.5296 14.1251 16.4963L23.1337 7.48769C23.2 7.4214 23.2 7.31364 23.1337 7.24735C23.0674 7.18106 22.9597 7.18106 22.8934 7.24735" stroke="#B0BDC5" stroke-width="0.55"/>
<path id="Fill 12" d="M49.3095 9.62699C49.2432 9.5607 49.1355 9.5607 49.0692 9.62699L44.4799 14.2163C44.4136 14.2825 44.4136 14.3903 44.4799 14.4566C44.5132 14.4899 44.5567 14.5066 44.5999 14.5066C44.6434 14.5066 44.6869 14.4899 44.7202 14.4566L49.3095 9.86733C49.3758 9.80104 49.3758 9.69328 49.3095 9.62699" stroke="#B0BDC5" stroke-width="0.55"/>
<path id="Fill 14" d="M55.8681 7.24735L46.8595 16.2559C46.7932 16.3222 46.7932 16.43 46.8595 16.4963C46.8928 16.5296 46.9364 16.5462 46.9799 16.5462C47.023 16.5462 47.0666 16.5296 47.0999 16.4963L56.1084 7.48769C56.1747 7.4214 56.1747 7.31364 56.1084 7.24735C56.0421 7.18106 55.9344 7.18106 55.8681 7.24735" stroke="#B0BDC5" stroke-width="0.55"/>
</g>
</g>
<defs>
<linearGradient id="paint0_linear_1_1996" x1="3.0878" y1="2.73865" x2="3.0878" y2="20.8749" gradientUnits="userSpaceOnUse">
<stop stop-color="#89959C" stop-opacity="0.628551"/>
<stop offset="1" stop-color="#3A4850"/>
</linearGradient>
<linearGradient id="paint1_linear_1_1996" x1="66.2434" y1="2.73865" x2="66.2434" y2="21.1247" gradientUnits="userSpaceOnUse">
<stop stop-color="#89959C" stop-opacity="0.628551"/>
<stop offset="1" stop-color="#3A4850"/>
</linearGradient>
</defs>
</svg>
