<svg width="42" height="44" viewBox="0 0 42 44" fill="none" xmlns="http://www.w3.org/2000/svg">
<mask id="mask0_1_2043" style="mask-type:alpha" maskUnits="userSpaceOnUse" x="0" y="0" width="42" height="44">
<path fill-rule="evenodd" clip-rule="evenodd" d="M0 0.0224609H41.5863V43.2H0V0.0224609Z" fill="white"/>
</mask>
<g mask="url(#mask0_1_2043)">
<path fill-rule="evenodd" clip-rule="evenodd" d="M39.029 35.9496C38.1765 35.0036 31.3572 32.5204 30.3829 32.0473C29.4088 31.5744 28.0692 30.7467 28.0692 30.7467L27.6444 30.163L26.6079 30.0372C25.8212 30.1112 25.7362 27.9748 25.7808 26.387C31.6381 26.04 33.5194 24.9577 34.086 24.4569L33.1656 23.6128C33.609 23.9139 34.0077 24.108 34.296 24.2267C34.3085 24.2078 34.3132 24.1974 34.3132 24.1974C33.0677 23.2542 32.1778 19.5446 32.1778 19.5446C31.4661 17.7212 30.9324 11.1198 30.9324 11.1198C30.9324 9.23357 30.2207 7.28445 30.2207 7.28445C28.9157 3.32349 26.0095 1.50013 26.0095 1.50013C25.7709 1.35053 25.529 1.21709 25.2869 1.09549C25.0448 0.984446 23.5399 0.319806 21.6909 0.0817262C20.5596 -0.0333138 19.7815 0.0542062 19.7815 0.0542062C19.1605 0.106526 18.5784 0.220286 18.0344 0.379486C17.2036 0.675326 16.4165 1.16669 15.7482 1.93357C15.7482 1.93357 15.7437 1.92029 15.7071 1.91741C13.2991 0.951966 11.5476 6.08701 11.5437 6.09821C11.028 7.34109 10.5583 9.43789 10.5583 9.43789L10.2023 13.6347C9.93524 17.2184 8.5562 21.6982 8.5562 21.6982C8.02244 23.3489 6.99924 24.1504 6.99924 24.1504C7.23444 24.3894 7.52212 24.6028 7.84788 24.7931C8.03508 24.6979 8.48196 24.4585 8.90596 24.1428L8.18596 24.9756C9.78276 25.776 12.08 26.1156 13.7431 26.26C13.9141 25.1515 14.2008 22.8966 14.0647 20.942C14.1973 22.2702 14.4413 24.9523 14.4013 26.31C15.1301 26.3572 15.6524 26.3651 15.8048 26.3664C15.8508 27.9563 15.7685 30.1115 14.9784 30.0372L13.942 30.163L13.517 30.7467C13.517 30.7467 12.1775 31.5744 11.2032 32.0473C10.2292 32.5204 3.40964 35.0036 2.55716 35.9496C1.70484 36.8955 0.121798 38.1528 -0.00012207 40.8944V43.2H41.5863V40.8944C41.4645 38.1528 39.8815 36.8955 39.029 35.9496Z" fill="#5B6971"/>
</g>
</svg>
